WorkSans-ExtraBold.ufo
<glyph name="numbersign" format="2">
  <advance width="706"/>
  <unicode hex="0023"/>
  <outline>
    <contour>
      <point x="456" y="660" type="line"/>
      <point x="351" y="0" type="line"/>
      <point x="483" y="0" type="line"/>
      <point x="589" y="660" type="line"/>
    </contour>
    <contour>
      <point x="28" y="267" type="line"/>
      <point x="28" y="150" type="line"/>
      <point x="635" y="150" type="line"/>
      <point x="635" y="267" type="line"/>
    </contour>
    <contour>
      <point x="207" y="660" type="line"/>
      <point x="102" y="0" type="line"/>
      <point x="235" y="0" type="line"/>
      <point x="340" y="660" type="line"/>
    </contour>
    <contour>
      <point x="71" y="511" type="line"/>
      <point x="71" y="394" type="line"/>
      <point x="678" y="394" type="line"/>
      <point x="678" y="511" type="line"/>
    </contour>
  </outline>
</glyph>
<glyph name="parenleft" format="2">
  <advance width="405"/>
  <unicode hex="0028"/>
  <outline>
    <contour>
      <point x="69" y="270" type="curve" smooth="yes"/>
      <point x="69" y="56"/>
      <point x="154" y="-96"/>
      <point x="310" y="-192" type="curve"/>
      <point x="402" y="-102" type="line"/>
      <point x="296" y="-7"/>
      <point x="248" y="96"/>
      <point x="248" y="270" type="curve" smooth="yes"/>
      <point x="248" y="443"/>
      <point x="296" y="546"/>
      <point x="402" y="641" type="curve"/>
      <point x="310" y="731" type="line"/>
      <point x="154" y="636"/>
      <point x="69" y="483"/>
    </contour>
  </outline>
</glyph>
<glyph name="asterisk" format="2">
  <advance width="594"/>
  <unicode hex="002A"/>
  <outline>
    <contour>
      <point x="297" y="475" type="line"/>
      <point x="264" y="451" type="line"/>
      <point x="309" y="347" type="line"/>
      <point x="389" y="229" type="line"/>
      <point x="503" y="312" type="line"/>
      <point x="416" y="424" type="line"/>
      <point x="329" y="500" type="line"/>
    </contour>
    <contour>
      <point x="178" y="424" type="line"/>
      <point x="90" y="312" type="line"/>
      <point x="204" y="229" type="line"/>
      <point x="284" y="347" type="line"/>
      <point x="329" y="451" type="line"/>
      <point x="297" y="475" type="line"/>
      <point x="264" y="500" type="line"/>
    </contour>
    <contour>
      <point x="33" y="487" type="line"/>
      <point x="170" y="448" type="line"/>
      <point x="284" y="437" type="line"/>
      <point x="297" y="475" type="line"/>
      <point x="309" y="515" type="line"/>
      <point x="211" y="573" type="line"/>
      <point x="77" y="622" type="line"/>
    </contour>
    <contour>
      <point x="226" y="730" type="line"/>
      <point x="231" y="588" type="line"/>
      <point x="256" y="475" type="line"/>
      <point x="297" y="475" type="line"/>
      <point x="338" y="475" type="line"/>
      <point x="362" y="588" type="line"/>
      <point x="367" y="730" type="line"/>
    </contour>
    <contour>
      <point x="382" y="573" type="line"/>
      <point x="284" y="515" type="line"/>
      <point x="297" y="475" type="line"/>
      <point x="309" y="437" type="line"/>
      <point x="423" y="448" type="line"/>
      <point x="560" y="487" type="line"/>
      <point x="517" y="622" type="line"/>
    </contour>
  </outline>
</glyph>
<glyph name="slash" format="2">
  <advance width="479"/>
  <unicode hex="002F"/>
  <outline>
    <contour>
      <point x="281" y="706" type="line"/>
      <point x="10" y="-70" type="line"/>
      <point x="197" y="-70" type="line"/>
      <point x="468" y="706" type="line"/>
    </contour>
  </outline>
</glyph>
<glyph name="one" format="2">
  <advance width="450"/>
  <unicode hex="0031"/>
  <outline>
    <contour>
      <point x="385" y="660" type="line"/>
      <point x="225" y="660" type="line"/>
      <point x="203" y="609"/>
      <point x="189" y="546"/>
      <point x="189" y="501" type="curve" smooth="yes"/>
      <point x="189" y="0" type="line"/>
      <point x="385" y="0" type="line"/>
      <point x="385" y="506" type="line"/>
    </contour>
    <contour>
      <point x="302" y="621" type="curve"/>
      <point x="225" y="660" type="line"/>
      <point x="193" y="612"/>
      <point x="99" y="560"/>
      <point x="23" y="552" type="curve"/>
      <point x="38" y="386" type="line"/>
      <point x="160" y="405"/>
      <point x="267" y="534"/>
    </contour>
  </outline>
</glyph>
<glyph name="three" format="2">
  <advance width="597"/>
  <unicode hex="0033"/>
  <outline>
    <contour>
      <point x="36" y="488" type="curve"/>
      <point x="213" y="431" type="line"/>
      <point x="215" y="496"/>
      <point x="248" y="517"/>
      <point x="288" y="517" type="curve" smooth="yes"/>
      <point x="327" y="517"/>
      <point x="351" y="493"/>
      <point x="351" y="452" type="curve" smooth="yes"/>
      <point x="350" y="409"/>
      <point x="328" y="388"/>
      <point x="275" y="388" type="curve" smooth="yes"/>
      <point x="244" y="388" type="line"/>
      <point x="244" y="267" type="line"/>
      <point x="285" y="267" type="line" smooth="yes"/>
      <point x="340" y="267"/>
      <point x="363" y="248"/>
      <point x="364" y="208" type="curve" smooth="yes"/>
      <point x="365" y="164"/>
      <point x="335" y="143"/>
      <point x="290" y="143" type="curve" smooth="yes"/>
      <point x="245" y="143"/>
      <point x="210" y="163"/>
      <point x="208" y="233" type="curve"/>
      <point x="24" y="156" type="line"/>
      <point x="59" y="36"/>
      <point x="147" y="-10"/>
      <point x="295" y="-10" type="curve" smooth="yes"/>
      <point x="446" y="-10"/>
      <point x="560" y="64"/>
      <point x="560" y="181" type="curve" smooth="yes"/>
      <point x="560" y="310"/>
      <point x="455" y="329"/>
      <point x="423" y="329" type="curve"/>
      <point x="423" y="333" type="line"/>
      <point x="451" y="333"/>
      <point x="547" y="363"/>
      <point x="547" y="480" type="curve" smooth="yes"/>
      <point x="547" y="600"/>
      <point x="458" y="670"/>
      <point x="302" y="670" type="curve" smooth="yes"/>
      <point x="164" y="670"/>
      <point x="55" y="624"/>
    </contour>
  </outline>
</glyph>
<glyph name="seven" format="2">
  <advance width="633"/>
  <unicode hex="0037"/>
  <outline>
    <contour>
      <point x="42" y="504" type="line"/>
      <point x="511" y="504" type="line"/>
      <point x="466" y="557" type="line"/>
      <point x="273" y="390"/>
      <point x="196" y="217"/>
      <point x="196" y="0" type="curve"/>
      <point x="397" y="0" type="line"/>
      <point x="397" y="195"/>
      <point x="442" y="366"/>
      <point x="607" y="521" type="curve"/>
      <point x="607" y="660" type="line"/>
      <point x="42" y="660" type="line"/>
    </contour>
  </outline>
</glyph>
<glyph name="eight" format="2">
  <advance width="631"/>
  <unicode hex="0038"/>
  <outline>
    <contour>
      <point x="55" y="478" type="curve" smooth="yes"/>
      <point x="55" y="410"/>
      <point x="94" y="359"/>
      <point x="164" y="334" type="curve"/>
      <point x="164" y="333" type="line"/>
      <point x="82" y="308"/>
      <point x="37" y="255"/>
      <point x="37" y="174" type="curve" smooth="yes"/>
      <point x="37" y="61"/>
      <point x="140" y="-10"/>
      <point x="315" y="-10" type="curve" smooth="yes"/>
      <point x="490" y="-10"/>
      <point x="594" y="61"/>
      <point x="594" y="174" type="curve" smooth="yes"/>
      <point x="594" y="255"/>
      <point x="548" y="308"/>
      <point x="467" y="333" type="curve"/>
      <point x="467" y="334" type="line"/>
      <point x="537" y="359"/>
      <point x="576" y="410"/>
      <point x="576" y="478" type="curve" smooth="yes"/>
      <point x="576" y="596"/>
      <point x="477" y="667"/>
      <point x="315" y="667" type="curve" smooth="yes"/>
      <point x="153" y="667"/>
      <point x="55" y="596"/>
    </contour>
    <contour>
      <point x="389" y="460" type="curve" smooth="yes"/>
      <point x="389" y="419"/>
      <point x="360" y="394"/>
      <point x="315" y="394" type="curve" smooth="yes"/>
      <point x="270" y="394"/>
      <point x="242" y="419"/>
      <point x="242" y="460" type="curve" smooth="yes"/>
      <point x="242" y="501"/>
      <point x="270" y="525"/>
      <point x="315" y="525" type="curve" smooth="yes"/>
      <point x="361" y="525"/>
      <point x="389" y="501"/>
    </contour>
    <contour>
      <point x="233" y="201" type="curve" smooth="yes"/>
      <point x="233" y="244"/>
      <point x="264" y="269"/>
      <point x="315" y="269" type="curve" smooth="yes"/>
      <point x="367" y="269"/>
      <point x="397" y="244"/>
      <point x="397" y="201" type="curve" smooth="yes"/>
      <point x="397" y="158"/>
      <point x="368" y="133"/>
      <point x="315" y="133" type="curve" smooth="yes"/>
      <point x="263" y="133"/>
      <point x="233" y="158"/>
    </contour>
  </outline>
</glyph>
<glyph name="A" format="2">
  <advance width="684"/>
  <unicode hex="0041"/>
  <anchor x="341" y="660" name="top"/>
  <anchor x="687" y="0" name="ogonek"/>
  <anchor x="341" y="0" name="bottom"/>
  <anchor x="581" y="0" name="bottomC"/>
  <outline>
    <contour>
      <point x="201" y="0" type="line"/>
      <point x="312" y="401" type="line"/>
      <point x="339" y="508" type="line"/>
      <point x="341" y="508" type="line"/>
      <point x="369" y="400" type="line"/>
      <point x="477" y="0" type="line"/>
      <point x="687" y="0" type="line"/>
      <point x="464" y="660" type="line"/>
      <point x="219" y="660" type="line"/>
      <point x="-3" y="0" type="line"/>
    </contour>
    <contour>
      <point x="529" y="137" type="line"/>
      <point x="529" y="269" type="line"/>
      <point x="156" y="269" type="line"/>
      <point x="156" y="137" type="line"/>
    </contour>
  </outline>
</glyph>
<glyph name="C" format="2">
  <advance width="679"/>
  <unicode hex="0043"/>
  <anchor x="359" y="660" name="top"/>
  <anchor x="463" y="0" name="ogonek"/>
  <anchor x="359" y="0" name="bottom"/>
  <anchor x="366" y="0" name="bottomC"/>
  <outline>
    <contour>
      <point x="482" y="245" type="line"/>
      <point x="470" y="177"/>
      <point x="438" y="146"/>
      <point x="370" y="146" type="curve" smooth="yes"/>
      <point x="287" y="146"/>
      <point x="246" y="207"/>
      <point x="246" y="330" type="curve" smooth="yes"/>
      <point x="246" y="454"/>
      <point x="291" y="514"/>
      <point x="372" y="514" type="curve" smooth="yes"/>
      <point x="433" y="514"/>
      <point x="466" y="492"/>
      <point x="481" y="408" type="curve"/>
      <point x="658" y="479" type="line"/>
      <point x="627" y="612"/>
      <point x="508" y="670"/>
      <point x="366" y="670" type="curve" smooth="yes"/>
      <point x="162" y="670"/>
      <point x="36" y="545"/>
      <point x="36" y="330" type="curve" smooth="yes"/>
      <point x="36" y="115"/>
      <point x="162" y="-10"/>
      <point x="367" y="-10" type="curve" smooth="yes"/>
      <point x="513" y="-10"/>
      <point x="626" y="49"/>
      <point x="664" y="196" type="curve"/>
    </contour>
  </outline>
</glyph>
<glyph name="G" format="2">
  <advance width="722"/>
  <unicode hex="0047"/>
  <anchor x="366" y="660" name="top"/>
  <anchor x="411" y="0" name="ogonek"/>
  <anchor x="384" y="0" name="bottom"/>
  <anchor x="365" y="0" name="bottomC"/>
  <outline>
    <contour>
      <point x="562" y="227" type="curve"/>
      <point x="499" y="229" type="line"/>
      <point x="499" y="170"/>
      <point x="452" y="141"/>
      <point x="385" y="141" type="curve" smooth="yes"/>
      <point x="292" y="141"/>
      <point x="246" y="197"/>
      <point x="246" y="330" type="curve" smooth="yes"/>
      <point x="246" y="455"/>
      <point x="291" y="514"/>
      <point x="378" y="514" type="curve" smooth="yes"/>
      <point x="431" y="514"/>
      <point x="469" y="487"/>
      <point x="482" y="424" type="curve"/>
      <point x="672" y="495" type="line"/>
      <point x="618" y="619"/>
      <point x="529" y="670"/>
      <point x="372" y="670" type="curve" smooth="yes"/>
      <point x="163" y="670"/>
      <point x="36" y="543"/>
      <point x="36" y="328" type="curve" smooth="yes"/>
      <point x="36" y="106"/>
      <point x="169" y="-10"/>
      <point x="343" y="-10" type="curve" smooth="yes"/>
      <point x="495" y="-10"/>
      <point x="562" y="80"/>
    </contour>
    <contour>
      <point x="671" y="0" type="line"/>
      <point x="671" y="365" type="line"/>
      <point x="369" y="365" type="line"/>
      <point x="369" y="234" type="line"/>
      <point x="499" y="234" type="line"/>
      <point x="499" y="166" type="line"/>
      <point x="521" y="143" type="line"/>
      <point x="535" y="0" type="line"/>
    </contour>
  </outline>
</glyph>
<glyph name="H" format="2">
  <advance width="745"/>
  <unicode hex="0048"/>
  <anchor x="373" y="660" name="top"/>
  <anchor x="693" y="0" name="ogonek"/>
  <anchor x="373" y="0" name="bottom"/>
  <anchor x="591" y="0" name="bottomC"/>
  <outline>
    <contour>
      <point x="479" y="660" type="line"/>
      <point x="479" y="0" type="line"/>
      <point x="684" y="0" type="line"/>
      <point x="684" y="660" type="line"/>
    </contour>
    <contour>
      <point x="61" y="660" type="line"/>
      <point x="61" y="0" type="line"/>
      <point x="265" y="0" type="line"/>
      <point x="265" y="660" type="line"/>
    </contour>
    <contour>
      <point x="160" y="409" type="line"/>
      <point x="160" y="256" type="line"/>
      <point x="591" y="256" type="line"/>
      <point x="591" y="409" type="line"/>
    </contour>
  </outline>
</glyph>
<glyph name="I" format="2">
  <advance width="326"/>
  <unicode hex="0049"/>
  <anchor x="163" y="660" name="top"/>
  <anchor x="265" y="0" name="ogonek"/>
  <anchor x="163" y="0" name="bottom"/>
  <anchor x="163" y="0" name="bottomC"/>
  <outline>
    <contour>
      <point x="61" y="660" type="line"/>
      <point x="61" y="0" type="line"/>
      <point x="265" y="0" type="line"/>
      <point x="265" y="660" type="line"/>
    </contour>
  </outline>
</glyph>
<glyph name="J" format="2">
  <advance width="640"/>
  <unicode hex="004A"/>
  <anchor x="491" y="660" name="top"/>
  <anchor x="388" y="0" name="ogonek"/>
  <anchor x="313" y="0" name="bottom"/>
  <anchor x="319" y="0" name="bottomC"/>
  <outline>
    <contour>
      <point x="388" y="660" type="line"/>
      <point x="388" y="281" type="line" smooth="yes"/>
      <point x="388" y="187"/>
      <point x="365" y="146"/>
      <point x="307" y="146" type="curve" smooth="yes"/>
      <point x="244" y="146"/>
      <point x="219" y="188"/>
      <point x="236" y="311" type="curve"/>
      <point x="32" y="277" type="line"/>
      <point x="2" y="111"/>
      <point x="81" y="-10"/>
      <point x="295" y="-10" type="curve" smooth="yes"/>
      <point x="485" y="-10"/>
      <point x="593" y="90"/>
      <point x="593" y="263" type="curve" smooth="yes"/>
      <point x="593" y="660" type="line"/>
    </contour>
  </outline>
</glyph>
<glyph name="N" format="2">
  <advance width="744"/>
  <unicode hex="004E"/>
  <anchor x="373" y="660" name="top"/>
  <anchor x="683" y="0" name="ogonek"/>
  <anchor x="378" y="0" name="bottom"/>
  <anchor x="540" y="0" name="bottomC"/>
  <outline>
    <contour>
      <point x="504" y="660" type="line"/>
      <point x="504" y="374" type="line"/>
      <point x="508" y="243" type="line"/>
      <point x="507" y="243" type="line"/>
      <point x="464" y="333" type="line"/>
      <point x="284" y="660" type="line"/>
      <point x="61" y="660" type="line"/>
      <point x="61" y="0" type="line"/>
      <point x="239" y="0" type="line"/>
      <point x="239" y="286" type="line"/>
      <point x="235" y="417" type="line"/>
      <point x="237" y="417" type="line"/>
      <point x="279" y="327" type="line"/>
      <point x="459" y="0" type="line"/>
      <point x="683" y="0" type="line"/>
      <point x="683" y="660" type="line"/>
    </contour>
  </outline>
</glyph>
<glyph name="O" format="2">
  <advance width="733"/>
  <unicode hex="004F"/>
  <anchor x="367" y="660" name="top"/>
  <anchor x="452" y="0" name="ogonek"/>
  <anchor x="367" y="0" name="bottom"/>
  <anchor x="367" y="0" name="bottomC"/>
  <outline>
    <contour>
      <point x="36" y="330" type="curve" smooth="yes"/>
      <point x="36" y="115"/>
      <point x="162" y="-10"/>
      <point x="367" y="-10" type="curve" smooth="yes"/>
      <point x="573" y="-10"/>
      <point x="696" y="115"/>
      <point x="696" y="330" type="curve" smooth="yes"/>
      <point x="696" y="545"/>
      <point x="573" y="670"/>
      <point x="367" y="670" type="curve" smooth="yes"/>
      <point x="162" y="670"/>
      <point x="36" y="545"/>
    </contour>
    <contour>
      <point x="487" y="330" type="curve" smooth="yes"/>
      <point x="487" y="205"/>
      <point x="448" y="146"/>
      <point x="367" y="146" type="curve" smooth="yes"/>
      <point x="286" y="146"/>
      <point x="246" y="205"/>
      <point x="246" y="330" type="curve" smooth="yes"/>
      <point x="246" y="455"/>
      <point x="286" y="514"/>
      <point x="367" y="514" type="curve" smooth="yes"/>
      <point x="448" y="514"/>
      <point x="487" y="455"/>
    </contour>
  </outline>
</glyph>
<glyph name="P" format="2">
  <advance width="688"/>
  <unicode hex="0050"/>
  <anchor x="333" y="660" name="top"/>
  <anchor x="265" y="0" name="ogonek"/>
  <anchor x="163" y="0" name="bottom"/>
  <anchor x="163" y="0" name="bottomC"/>
  <outline>
    <contour>
      <point x="205" y="660" type="line"/>
      <point x="205" y="511" type="line"/>
      <point x="356" y="511" type="line" smooth="yes"/>
      <point x="422" y="511"/>
      <point x="451" y="487"/>
      <point x="451" y="437" type="curve" smooth="yes"/>
      <point x="451" y="387"/>
      <point x="422" y="363"/>
      <point x="356" y="363" type="curve" smooth="yes"/>
      <point x="205" y="363" type="line"/>
      <point x="205" y="219" type="line"/>
      <point x="389" y="219" type="line" smooth="yes"/>
      <point x="563" y="219"/>
      <point x="656" y="296"/>
      <point x="656" y="435" type="curve" smooth="yes"/>
      <point x="656" y="583"/>
      <point x="563" y="660"/>
      <point x="389" y="660" type="curve" smooth="yes"/>
    </contour>
    <contour>
      <point x="61" y="660" type="line"/>
      <point x="61" y="0" type="line"/>
      <point x="265" y="0" type="line"/>
      <point x="265" y="660" type="line"/>
    </contour>
  </outline>
</glyph>
<glyph name="Q" format="2">
  <advance width="733"/>
  <unicode hex="0051"/>
  <anchor x="367" y="660" name="top"/>
  <anchor x="573" y="-200" name="ogonek"/>
  <anchor x="367" y="-210" name="bottom"/>
  <anchor x="535" y="-200" name="bottomC"/>
  <outline>
    <contour>
      <point x="307" y="19" type="line"/>
      <point x="278" y="-108"/>
      <point x="343" y="-207"/>
      <point x="511" y="-207" type="curve" smooth="yes"/>
      <point x="596" y="-207"/>
      <point x="655" y="-188"/>
      <point x="690" y="-158" type="curve"/>
      <point x="643" y="-15" type="line"/>
      <point x="615" y="-40"/>
      <point x="575" y="-54"/>
      <point x="518" y="-54" type="curve" smooth="yes"/>
      <point x="450" y="-54"/>
      <point x="416" y="-36"/>
      <point x="428" y="30" type="curve"/>
    </contour>
    <component base="O"/>
  </outline>
</glyph>
<glyph name="S" format="2">
  <advance width="645"/>
  <unicode hex="0053"/>
  <anchor x="330" y="660" name="top"/>
  <anchor x="419" y="0" name="ogonek"/>
  <anchor x="342" y="0" name="bottom"/>
  <anchor x="330" y="0" name="bottomC"/>
  <outline>
    <contour>
      <point x="37" y="449" type="curve" smooth="yes"/>
      <point x="37" y="297"/>
      <point x="176" y="264"/>
      <point x="296" y="242" type="curve" smooth="yes"/>
      <point x="368" y="230"/>
      <point x="410" y="217"/>
      <point x="410" y="188" type="curve" smooth="yes"/>
      <point x="410" y="161"/>
      <point x="384" y="143"/>
      <point x="319" y="143" type="curve" smooth="yes"/>
      <point x="229" y="143"/>
      <point x="163" y="172"/>
      <point x="111" y="231" type="curve"/>
      <point x="17" y="92" type="line"/>
      <point x="92" y="29"/>
      <point x="171" y="-10"/>
      <point x="333" y="-10" type="curve" smooth="yes"/>
      <point x="493" y="-10"/>
      <point x="620" y="63"/>
      <point x="620" y="198" type="curve" smooth="yes"/>
      <point x="620" y="320"/>
      <point x="545" y="383"/>
      <point x="354" y="417" type="curve" smooth="yes"/>
      <point x="286" y="429"/>
      <point x="247" y="440"/>
      <point x="247" y="465" type="curve" smooth="yes"/>
      <point x="247" y="495"/>
      <point x="282" y="517"/>
      <point x="340" y="517" type="curve" smooth="yes"/>
      <point x="419" y="517"/>
      <point x="476" y="492"/>
      <point x="533" y="430" type="curve"/>
      <point x="629" y="558" type="line"/>
      <point x="544" y="642"/>
      <point x="459" y="670"/>
      <point x="334" y="670" type="curve" smooth="yes"/>
      <point x="143" y="670"/>
      <point x="37" y="578"/>
    </contour>
  </outline>
</glyph>
<glyph name="V" format="2">
  <advance width="696"/>
  <unicode hex="0056"/>
  <anchor x="348" y="660" name="top"/>
  <anchor x="469" y="0" name="ogonek"/>
  <anchor x="348" y="0" name="bottom"/>
  <anchor x="351" y="0" name="bottomC"/>
  <outline>
    <contour>
      <point x="491" y="660" type="line"/>
      <point x="384" y="279" type="line"/>
      <point x="352" y="152" type="line"/>
      <point x="318" y="281" type="line"/>
      <point x="212" y="660" type="line"/>
      <point x="-1" y="660" type="line"/>
      <point x="227" y="0" type="line"/>
      <point x="469" y="0" type="line"/>
      <point x="697" y="660" type="line"/>
    </contour>
  </outline>
</glyph>
<glyph name="X" format="2">
  <advance width="685"/>
  <unicode hex="0058"/>
  <anchor x="338" y="660" name="top"/>
  <anchor x="686" y="0" name="ogonek"/>
  <anchor x="338" y="0" name="bottom"/>
  <anchor x="562" y="0" name="bottomC"/>
  <outline>
    <contour>
      <point x="447" y="660" type="line"/>
      <point x="299" y="367" type="line"/>
      <point x="257" y="373" type="line"/>
      <point x="6" y="0" type="line"/>
      <point x="238" y="0" type="line"/>
      <point x="373" y="265" type="line"/>
      <point x="412" y="263" type="line"/>
      <point x="669" y="660" type="line"/>
    </contour>
    <contour>
      <point x="17" y="660" type="line"/>
      <point x="264" y="274" type="line"/>
      <point x="296" y="267" type="line"/>
      <point x="440" y="0" type="line"/>
      <point x="686" y="0" type="line"/>
      <point x="439" y="366" type="line"/>
      <point x="397" y="382" type="line"/>
      <point x="258" y="660" type="line"/>
    </contour>
  </outline>
</glyph>
<glyph name="Y" format="2">
  <advance width="687"/>
  <unicode hex="0059"/>
  <anchor x="343" y="660" name="top"/>
  <anchor x="446" y="0" name="ogonek"/>
  <anchor x="343" y="0" name="bottom"/>
  <anchor x="344" y="0" name="bottomC"/>
  <outline>
    <contour>
      <point x="474" y="660" type="line"/>
      <point x="393" y="495" type="line"/>
      <point x="345" y="380" type="line"/>
      <point x="296" y="495" type="line"/>
      <point x="216" y="660" type="line"/>
      <point x="9" y="660" type="line"/>
      <point x="241" y="234" type="line"/>
      <point x="241" y="0" type="line"/>
      <point x="446" y="0" type="line"/>
      <point x="446" y="234" type="line"/>
      <point x="677" y="660" type="line"/>
    </contour>
  </outline>
</glyph>
<glyph name="bracketleft" format="2">
  <advance width="407"/>
  <unicode hex="005B"/>
  <outline>
    <contour>
      <point x="85" y="706" type="line"/>
      <point x="85" y="-168" type="line"/>
      <point x="257" y="-168" type="line"/>
      <point x="257" y="706" type="line"/>
    </contour>
    <contour>
      <point x="170" y="-32" type="line"/>
      <point x="170" y="-168" type="line"/>
      <point x="383" y="-168" type="line"/>
      <point x="383" y="-32" type="line"/>
    </contour>
    <contour>
      <point x="170" y="706" type="line"/>
      <point x="170" y="571" type="line"/>
      <point x="383" y="571" type="line"/>
      <point x="383" y="706" type="line"/>
    </contour>
  </outline>
</glyph>
<glyph name="asciicircum" format="2">
  <advance width="631"/>
  <unicode hex="005E"/>
  <outline>
    <contour>
      <point x="198" y="355" type="line"/>
      <point x="377" y="722" type="line"/>
      <point x="231" y="722" type="line"/>
      <point x="24" y="355" type="line"/>
    </contour>
    <contour>
      <point x="399" y="722" type="line"/>
      <point x="254" y="722" type="line"/>
      <point x="432" y="355" type="line"/>
      <point x="607" y="355" type="line"/>
    </contour>
  </outline>
</glyph>
<glyph name="grave" format="2">
  <advance width="500"/>
  <unicode hex="0060"/>
  <anchor x="250" y="500" name="_top"/>
  <outline>
    <contour>
      <point x="79" y="734" type="line"/>
      <point x="181" y="559" type="line"/>
      <point x="325" y="559" type="line"/>
      <point x="262" y="734" type="line"/>
    </contour>
  </outline>
</glyph>
<glyph name="d" format="2">
  <advance width="628"/>
  <unicode hex="0064"/>
  <anchor x="312" y="250" name="center"/>
  <anchor x="310" y="0" name="bottom"/>
  <anchor x="477" y="706" name="top"/>
  <anchor x="239" y="0" name="bottomC"/>
  <anchor x="638" y="706" name="topright"/>
  <anchor x="308" y="11" name="ogonek"/>
  <outline>
    <contour>
      <point x="376" y="706" type="line"/>
      <point x="376" y="201" type="line"/>
      <point x="386" y="154" type="line"/>
      <point x="397" y="0" type="line"/>
      <point x="578" y="0" type="line"/>
      <point x="578" y="200" type="line"/>
      <point x="578" y="706" type="line"/>
    </contour>
    <component base="bowl" xOffset="-48"/>
  </outline>
</glyph>
<glyph name="i" format="2">
  <advance width="300"/>
  <unicode hex="0069"/>
  <anchor x="150" y="713" name="top"/>
  <anchor x="236" y="8" name="ogonek"/>
  <anchor x="150" y="0" name="bottom"/>
  <anchor x="150" y="0" name="bottomC"/>
  <outline>
    <contour>
      <point x="263" y="633" type="curve" smooth="yes"/>
      <point x="263" y="697"/>
      <point x="231" y="723"/>
      <point x="150" y="723" type="curve" smooth="yes"/>
      <point x="69" y="723"/>
      <point x="37" y="697"/>
      <point x="37" y="633" type="curve" smooth="yes"/>
      <point x="37" y="570"/>
      <point x="69" y="544"/>
      <point x="150" y="544" type="curve" smooth="yes"/>
      <point x="231" y="544"/>
      <point x="263" y="570"/>
    </contour>
    <component base="idotless"/>
  </outline>
</glyph>
<glyph name="k" format="2">
  <advance width="641"/>
  <unicode hex="006B"/>
  <anchor x="150" y="706" name="top"/>
  <anchor x="333" y="0" name="bottom"/>
  <outline>
    <contour>
      <point x="418" y="500" type="line"/>
      <point x="215" y="266" type="line"/>
      <point x="218" y="66" type="line"/>
      <point x="353" y="224" type="line"/>
      <point x="389" y="230" type="line"/>
      <point x="638" y="500" type="line"/>
    </contour>
    <contour>
      <point x="49" y="706" type="line"/>
      <point x="49" y="0" type="line"/>
      <point x="251" y="0" type="line"/>
      <point x="251" y="706" type="line"/>
    </contour>
    <contour>
      <point x="296" y="239" type="line"/>
      <point x="427" y="0" type="line"/>
      <point x="649" y="0" type="line"/>
      <point x="422" y="358" type="line"/>
    </contour>
  </outline>
</glyph>
<glyph name="l" format="2">
  <advance width="334"/>
  <unicode hex="006C"/>
  <anchor x="303" y="353" name="center"/>
  <anchor x="181" y="0" name="bottom"/>
  <anchor x="141" y="706" name="top"/>
  <anchor x="217" y="0" name="bottomC"/>
  <anchor x="304" y="706" name="topright"/>
  <anchor x="276" y="0" name="ogonek"/>
  <outline>
    <contour>
      <point x="48" y="706" type="line"/>
      <point x="48" y="157" type="line" smooth="yes"/>
      <point x="48" y="38"/>
      <point x="95" y="-10"/>
      <point x="211" y="-10" type="curve" smooth="yes"/>
      <point x="253" y="-10"/>
      <point x="302" y="2"/>
      <point x="326" y="19" type="curve"/>
      <point x="337" y="134" type="line"/>
      <point x="322" y="129"/>
      <point x="311" y="127"/>
      <point x="294" y="127" type="curve" smooth="yes"/>
      <point x="261" y="127"/>
      <point x="250" y="145"/>
      <point x="250" y="187" type="curve" smooth="yes"/>
      <point x="250" y="706" type="line"/>
    </contour>
  </outline>
</glyph>
<glyph name="m" format="2">
  <advance width="937"/>
  <unicode hex="006D"/>
  <anchor x="469" y="500" name="top"/>
  <anchor x="886" y="0" name="ogonek"/>
  <anchor x="469" y="0" name="bottom"/>
  <anchor x="785" y="0" name="bottomC"/>
  <outline>
    <contour>
      <point x="533" y="278" type="curve"/>
      <point x="570" y="264" type="line"/>
      <point x="570" y="328"/>
      <point x="596" y="359"/>
      <point x="637" y="359" type="curve" smooth="yes"/>
      <point x="669" y="359"/>
      <point x="687" y="341"/>
      <point x="687" y="288" type="curve" smooth="yes"/>
      <point x="687" y="0" type="line"/>
      <point x="886" y="0" type="line"/>
      <point x="889" y="338" type="line" smooth="yes"/>
      <point x="890" y="450"/>
      <point x="824" y="510"/>
      <point x="726" y="510" type="curve" smooth="yes"/>
      <point x="609" y="510"/>
      <point x="533" y="426"/>
    </contour>
    <contour>
      <point x="49" y="500" type="line"/>
      <point x="49" y="300" type="line"/>
      <point x="49" y="0" type="line"/>
      <point x="251" y="0" type="line"/>
      <point x="251" y="299" type="line"/>
      <point x="238" y="346" type="line"/>
      <point x="231" y="500" type="line"/>
    </contour>
    <contour>
      <point x="213" y="268" type="curve"/>
      <point x="251" y="263" type="line"/>
      <point x="251" y="330"/>
      <point x="279" y="359"/>
      <point x="318" y="359" type="curve" smooth="yes"/>
      <point x="350" y="359"/>
      <point x="368" y="341"/>
      <point x="368" y="288" type="curve" smooth="yes"/>
      <point x="368" y="0" type="line"/>
      <point x="570" y="0" type="line"/>
      <point x="570" y="338" type="line" smooth="yes"/>
      <point x="570" y="450"/>
      <point x="505" y="510"/>
      <point x="407" y="510" type="curve" smooth="yes"/>
      <point x="287" y="510"/>
      <point x="213" y="423"/>
    </contour>
  </outline>
</glyph>
<glyph name="q" format="2">
  <advance width="628"/>
  <unicode hex="0071"/>
  <anchor x="310" y="500" name="top"/>
  <anchor x="308" y="11" name="ogonek"/>
  <anchor x="478" y="-210" name="bottom"/>
  <anchor x="234" y="0" name="bottomC"/>
  <outline>
    <contour>
      <point x="401" y="500" type="line"/>
      <point x="393" y="346" type="line"/>
      <point x="377" y="299" type="line"/>
      <point x="377" y="-210" type="line"/>
      <point x="579" y="-210" type="line"/>
      <point x="579" y="300" type="line"/>
      <point x="579" y="500" type="line"/>
    </contour>
    <component base="bowl" yScale="-1.0" xOffset="-48" yOffset="500"/>
  </outline>
</glyph>
<glyph name="s" format="2">
  <advance width="535"/>
  <unicode hex="0073"/>
  <anchor x="279" y="500" name="top"/>
  <anchor x="401" y="11" name="ogonek"/>
  <anchor x="274" y="0" name="bottom"/>
  <anchor x="270" y="0" name="bottomC"/>
  <outline>
    <contour>
      <point x="518" y="164" type="curve" smooth="yes"/>
      <point x="518" y="254"/>
      <point x="454" y="303"/>
      <point x="303" y="325" type="curve" smooth="yes"/>
      <point x="248" y="333"/>
      <point x="228" y="342"/>
      <point x="228" y="356" type="curve" smooth="yes"/>
      <point x="228" y="371"/>
      <point x="247" y="385"/>
      <point x="292" y="385" type="curve" smooth="yes"/>
      <point x="342" y="385"/>
      <point x="392" y="373"/>
      <point x="427" y="330" type="curve"/>
      <point x="516" y="428" type="line"/>
      <point x="480" y="472"/>
      <point x="408" y="510"/>
      <point x="283" y="510" type="curve" smooth="yes"/>
      <point x="105" y="510"/>
      <point x="26" y="422"/>
      <point x="26" y="340" type="curve" smooth="yes"/>
      <point x="26" y="260"/>
      <point x="85" y="210"/>
      <point x="230" y="182" type="curve" smooth="yes"/>
      <point x="294" y="169"/>
      <point x="316" y="158"/>
      <point x="316" y="141" type="curve" smooth="yes"/>
      <point x="316" y="125"/>
      <point x="291" y="115"/>
      <point x="257" y="115" type="curve" smooth="yes"/>
      <point x="196" y="115"/>
      <point x="142" y="141"/>
      <point x="108" y="179" type="curve"/>
      <point x="14" y="71" type="line"/>
      <point x="69" y="14"/>
      <point x="153" y="-10"/>
      <point x="270" y="-10" type="curve" smooth="yes"/>
      <point x="442" y="-10"/>
      <point x="518" y="70"/>
    </contour>
  </outline>
</glyph>
<glyph name="v" format="2">
  <advance width="575"/>
  <unicode hex="0076"/>
  <anchor x="288" y="500" name="top"/>
  <anchor x="411" y="0" name="ogonek"/>
  <anchor x="288" y="0" name="bottom"/>
  <anchor x="291" y="0" name="bottomC"/>
  <outline>
    <contour>
      <point x="372" y="500" type="line"/>
      <point x="260" y="0" type="line"/>
      <point x="411" y="0" type="line"/>
      <point x="581" y="500" type="line"/>
    </contour>
    <contour>
      <point x="-6" y="500" type="line"/>
      <point x="164" y="0" type="line"/>
      <point x="316" y="0" type="line"/>
      <point x="205" y="500" type="line"/>
    </contour>
  </outline>
</glyph>
<glyph name="w" format="2">
  <advance width="926"/>
  <unicode hex="0077"/>
  <anchor x="463" y="500" name="top"/>
  <anchor x="783" y="0" name="ogonek"/>
  <anchor x="463" y="0" name="bottom"/>
  <anchor x="663" y="0" name="bottomC"/>
  <outline>
    <contour>
      <point x="407" y="500" type="line"/>
      <point x="536" y="0" type="line"/>
      <point x="679" y="0" type="line"/>
      <point x="562" y="500" type="line"/>
    </contour>
    <contour>
      <point x="0" y="500" type="line"/>
      <point x="143" y="0" type="line"/>
      <point x="306" y="0" type="line"/>
      <point x="210" y="500" type="line"/>
    </contour>
    <contour>
      <point x="364" y="500" type="line"/>
      <point x="247" y="0" type="line"/>
      <point x="390" y="0" type="line"/>
      <point x="517" y="500" type="line"/>
    </contour>
    <contour>
      <point x="716" y="500" type="line"/>
      <point x="620" y="0" type="line"/>
      <point x="783" y="0" type="line"/>
      <point x="926" y="500" type="line"/>
    </contour>
  </outline>
</glyph>
<glyph name="x" format="2">
  <advance width="609"/>
  <unicode hex="0078"/>
  <anchor x="305" y="500" name="top"/>
  <anchor x="612" y="0" name="ogonek"/>
  <anchor x="305" y="0" name="bottom"/>
  <anchor x="492" y="0" name="bottomC"/>
  <outline>
    <contour>
      <point x="2" y="500" type="line"/>
      <point x="191" y="228" type="line"/>
      <point x="267" y="232" type="line"/>
      <point x="387" y="0" type="line"/>
      <point x="612" y="0" type="line"/>
      <point x="418" y="279" type="line"/>
      <point x="344" y="270" type="line"/>
      <point x="227" y="500" type="line"/>
    </contour>
    <contour>
      <point x="387" y="500" type="line"/>
      <point x="268" y="269" type="line"/>
      <point x="191" y="280" type="line"/>
      <point x="-4" y="0" type="line"/>
      <point x="218" y="0" type="line"/>
      <point x="339" y="235" type="line"/>
      <point x="422" y="229" type="line"/>
      <point x="608" y="500" type="line"/>
    </contour>
  </outline>
</glyph>
<glyph name="y" format="2">
  <advance width="583"/>
  <unicode hex="0079"/>
  <anchor x="314" y="500" name="top"/>
  <anchor x="203" y="-210" name="ogonek"/>
  <anchor x="197" y="-210" name="bottom"/>
  <anchor x="160" y="-210" name="bottomC"/>
  <outline>
    <contour>
      <point x="389" y="500" type="line"/>
      <point x="326" y="232" type="line"/>
      <point x="302" y="118" type="line"/>
      <point x="281" y="229" type="line"/>
      <point x="221" y="500" type="line"/>
      <point x="-1" y="500" type="line"/>
      <point x="145" y="127" type="line"/>
      <point x="206" y="-15" type="line"/>
      <point x="199" y="-34" type="line" smooth="yes"/>
      <point x="188" y="-62"/>
      <point x="167" y="-71"/>
      <point x="126" y="-71" type="curve" smooth="yes"/>
      <point x="81" y="-71"/>
      <point x="59" y="-65"/>
      <point x="38" y="-50" type="curve"/>
      <point x="-1" y="-180" type="line"/>
      <point x="34" y="-202"/>
      <point x="83" y="-215"/>
      <point x="145" y="-215" type="curve" smooth="yes"/>
      <point x="290" y="-215"/>
      <point x="364" y="-150"/>
      <point x="425" y="30" type="curve" smooth="yes"/>
      <point x="588" y="500" type="line"/>
    </contour>
  </outline>
</glyph>
<glyph name="z" format="2">
  <advance width="508"/>
  <unicode hex="007A"/>
  <anchor x="252" y="500" name="top"/>
  <anchor x="487" y="0" name="ogonek"/>
  <anchor x="252" y="0" name="bottom"/>
  <anchor x="252" y="0" name="bottomC"/>
  <outline>
    <contour>
      <point x="487" y="0" type="line"/>
      <point x="487" y="137" type="line"/>
      <point x="338" y="137" type="line"/>
      <point x="253" y="135" type="line"/>
      <point x="304" y="186" type="line"/>
      <point x="478" y="381" type="line"/>
      <point x="478" y="500" type="line"/>
      <point x="29" y="500" type="line"/>
      <point x="29" y="363" type="line"/>
      <point x="178" y="363" type="line"/>
      <point x="254" y="365" type="line"/>
      <point x="204" y="316" type="line"/>
      <point x="29" y="119" type="line"/>
      <point x="29" y="0" type="line"/>
    </contour>
  </outline>
</glyph>
<glyph name="currency" format="2">
  <advance width="640"/>
  <unicode hex="00A4"/>
  <outline>
    <contour>
      <point x="106" y="330" type="curve" smooth="yes"/>
      <point x="106" y="206"/>
      <point x="192" y="122"/>
      <point x="321" y="122" type="curve" smooth="yes"/>
      <point x="448" y="122"/>
      <point x="534" y="206"/>
      <point x="534" y="330" type="curve" smooth="yes"/>
      <point x="534" y="453"/>
      <point x="448" y="537"/>
      <point x="321" y="537" type="curve" smooth="yes"/>
      <point x="192" y="537"/>
      <point x="106" y="453"/>
    </contour>
    <contour>
      <point x="387" y="330" type="curve" smooth="yes"/>
      <point x="387" y="287"/>
      <point x="361" y="260"/>
      <point x="321" y="260" type="curve" smooth="yes"/>
      <point x="280" y="260"/>
      <point x="253" y="287"/>
      <point x="253" y="330" type="curve" smooth="yes"/>
      <point x="253" y="372"/>
      <point x="280" y="399"/>
      <point x="321" y="399" type="curve" smooth="yes"/>
      <point x="361" y="399"/>
      <point x="387" y="372"/>
    </contour>
    <contour>
      <point x="24" y="510" type="line"/>
      <point x="182" y="375" type="line"/>
      <point x="274" y="467" type="line"/>
      <point x="139" y="624" type="line"/>
    </contour>
    <contour>
      <point x="24" y="149" type="line"/>
      <point x="139" y="34" type="line"/>
      <point x="274" y="192" type="line"/>
      <point x="181" y="284" type="line"/>
    </contour>
    <contour>
      <point x="369" y="186" type="line"/>
      <point x="500" y="34" type="line"/>
      <point x="615" y="149" type="line"/>
      <point x="463" y="279" type="line"/>
    </contour>
    <contour>
      <point x="369" y="472" type="line"/>
      <point x="464" y="378" type="line"/>
      <point x="615" y="510" type="line"/>
      <point x="500" y="624" type="line"/>
    </contour>
  </outline>
</glyph>
<glyph name="yen" format="2">
  <advance width="699"/>
  <unicode hex="00A5"/>
  <outline>
    <contour>
      <point x="14" y="660" type="line"/>
      <point x="258" y="273" type="line"/>
      <point x="441" y="273" type="line"/>
      <point x="685" y="660" type="line"/>
      <point x="480" y="660" type="line"/>
      <point x="393" y="468" type="line"/>
      <point x="351" y="364" type="line"/>
      <point x="349" y="364" type="line"/>
      <point x="307" y="467" type="line"/>
      <point x="220" y="660" type="line"/>
    </contour>
    <contour>
      <point x="448" y="0" type="line"/>
      <point x="448" y="264" type="line"/>
      <point x="251" y="264" type="line"/>
      <point x="251" y="0" type="line"/>
    </contour>
    <contour>
      <point x="640" y="127" type="line"/>
      <point x="640" y="185" type="line"/>
      <point x="59" y="185" type="line"/>
      <point x="59" y="127" type="line"/>
    </contour>
    <contour>
      <point x="640" y="248" type="line"/>
      <point x="640" y="308" type="line"/>
      <point x="526" y="308" type="line"/>
      <point x="350" y="298" type="line"/>
      <point x="173" y="308" type="line"/>
      <point x="59" y="308" type="line"/>
      <point x="59" y="248" type="line"/>
    </contour>
  </outline>
</glyph>
<glyph name="brokenbar" format="2">
  <advance width="279"/>
  <unicode hex="00A6"/>
  <outline>
    <contour>
      <point x="50" y="706" type="line"/>
      <point x="50" y="321" type="line"/>
      <point x="229" y="321" type="line"/>
      <point x="229" y="706" type="line"/>
    </contour>
    <contour>
      <point x="50" y="218" type="line"/>
      <point x="50" y="-168" type="line"/>
      <point x="229" y="-168" type="line"/>
      <point x="229" y="218" type="line"/>
    </contour>
  </outline>
</glyph>
<glyph name="section" format="2">
  <advance width="631"/>
  <unicode hex="00A7"/>
  <outline>
    <contour>
      <point x="79" y="481" type="curve" smooth="yes"/>
      <point x="79" y="376"/>
      <point x="153" y="321"/>
      <point x="343" y="303" type="curve" smooth="yes"/>
      <point x="444" y="294"/>
      <point x="475" y="278"/>
      <point x="475" y="249" type="curve" smooth="yes"/>
      <point x="475" y="216"/>
      <point x="437" y="202"/>
      <point x="364" y="185" type="curve"/>
      <point x="429" y="81" type="line"/>
      <point x="527" y="106"/>
      <point x="611" y="161"/>
      <point x="611" y="280" type="curve" smooth="yes"/>
      <point x="611" y="379"/>
      <point x="532" y="435"/>
      <point x="345" y="451" type="curve" smooth="yes"/>
      <point x="251" y="460"/>
      <point x="223" y="474"/>
      <point x="223" y="499" type="curve" smooth="yes"/>
      <point x="223" y="525"/>
      <point x="256" y="545"/>
      <point x="322" y="545" type="curve" smooth="yes"/>
      <point x="392" y="545"/>
      <point x="427" y="525"/>
      <point x="462" y="483" type="curve"/>
      <point x="559" y="576" type="line"/>
      <point x="506" y="637"/>
      <point x="446" y="670"/>
      <point x="321" y="670" type="curve" smooth="yes"/>
      <point x="170" y="670"/>
      <point x="79" y="595"/>
    </contour>
    <contour>
      <point x="552" y="68" type="curve" smooth="yes"/>
      <point x="552" y="173"/>
      <point x="478" y="228"/>
      <point x="289" y="246" type="curve" smooth="yes"/>
      <point x="188" y="255"/>
      <point x="157" y="271"/>
      <point x="157" y="300" type="curve" smooth="yes"/>
      <point x="157" y="332"/>
      <point x="194" y="346"/>
      <point x="267" y="364" type="curve"/>
      <point x="203" y="468" type="line"/>
      <point x="104" y="443"/>
      <point x="21" y="387"/>
      <point x="21" y="269" type="curve" smooth="yes"/>
      <point x="21" y="169"/>
      <point x="99" y="113"/>
      <point x="286" y="98" type="curve" smooth="yes"/>
      <point x="381" y="90"/>
      <point x="409" y="75"/>
      <point x="409" y="49" type="curve" smooth="yes"/>
      <point x="409" y="24"/>
      <point x="375" y="15"/>
      <point x="310" y="15" type="curve" smooth="yes"/>
      <point x="240" y="15"/>
      <point x="204" y="34"/>
      <point x="170" y="77" type="curve"/>
      <point x="72" y="-16" type="line"/>
      <point x="126" y="-78"/>
      <point x="188" y="-110"/>
      <point x="312" y="-110" type="curve" smooth="yes"/>
      <point x="461" y="-110"/>
      <point x="552" y="-46"/>
    </contour>
  </outline>
</glyph>
<glyph name="dieresis" format="2">
  <advance width="500"/>
  <unicode hex="00A8"/>
  <anchor x="251" y="500" name="_top"/>
  <outline>
    <contour>
      <point x="41" y="631" type="curve" smooth="yes"/>
      <point x="41" y="577"/>
      <point x="76" y="546"/>
      <point x="135" y="546" type="curve" smooth="yes"/>
      <point x="196" y="546"/>
      <point x="231" y="577"/>
      <point x="231" y="631" type="curve" smooth="yes"/>
      <point x="231" y="684"/>
      <point x="196" y="716"/>
      <point x="135" y="716" type="curve" smooth="yes"/>
      <point x="76" y="716"/>
      <point x="41" y="684"/>
    </contour>
    <contour>
      <point x="270" y="631" type="curve" smooth="yes"/>
      <point x="270" y="577"/>
      <point x="305" y="546"/>
      <point x="364" y="546" type="curve" smooth="yes"/>
      <point x="425" y="546"/>
      <point x="460" y="577"/>
      <point x="460" y="631" type="curve" smooth="yes"/>
      <point x="460" y="684"/>
      <point x="425" y="716"/>
      <point x="364" y="716" type="curve" smooth="yes"/>
      <point x="305" y="716"/>
      <point x="270" y="684"/>
    </contour>
  </outline>
</glyph>
<glyph name="ordfeminine" format="2">
  <advance width="458"/>
  <unicode hex="00AA"/>
  <outline>
    <contour>
      <point x="150" y="517" type="line"/>
      <point x="154" y="555"/>
      <point x="174" y="565"/>
      <point x="198" y="565" type="curve" smooth="yes"/>
      <point x="224" y="565"/>
      <point x="238" y="549"/>
      <point x="238" y="524" type="curve" smooth="yes"/>
      <point x="238" y="387" type="line"/>
      <point x="259" y="385" type="line"/>
      <point x="259" y="328"/>
      <point x="298" y="299"/>
      <point x="357" y="299" type="curve" smooth="yes"/>
      <point x="384" y="299"/>
      <point x="402" y="303"/>
      <point x="418" y="312" type="curve"/>
      <point x="429" y="387" type="line"/>
      <point x="425" y="385"/>
      <point x="419" y="384"/>
      <point x="410" y="384" type="curve" smooth="yes"/>
      <point x="394" y="384"/>
      <point x="384" y="394"/>
      <point x="384" y="414" type="curve" smooth="yes"/>
      <point x="384" y="519" type="line" smooth="yes"/>
      <point x="384" y="614"/>
      <point x="328" y="661"/>
      <point x="206" y="661" type="curve" smooth="yes"/>
      <point x="96" y="661"/>
      <point x="38" y="615"/>
      <point x="29" y="540" type="curve"/>
    </contour>
    <contour>
      <point x="418" y="133" type="line"/>
      <point x="418" y="234" type="line"/>
      <point x="37" y="234" type="line"/>
      <point x="37" y="133" type="line"/>
    </contour>
    <contour>
      <point x="280" y="418" type="curve"/>
      <point x="238" y="422" type="line"/>
      <point x="238" y="394"/>
      <point x="218" y="381"/>
      <point x="195" y="381" type="curve" smooth="yes"/>
      <point x="177" y="381"/>
      <point x="164" y="389"/>
      <point x="164" y="408" type="curve" smooth="yes"/>
      <point x="164" y="428"/>
      <point x="178" y="441"/>
      <point x="205" y="448" type="curve" smooth="yes"/>
      <point x="272" y="466" type="line"/>
      <point x="260" y="516" type="line"/>
      <point x="163" y="495" type="line" smooth="yes"/>
      <point x="63" y="475"/>
      <point x="25" y="441"/>
      <point x="25" y="382" type="curve" smooth="yes"/>
      <point x="25" y="328"/>
      <point x="61" y="299"/>
      <point x="135" y="299" type="curve" smooth="yes"/>
      <point x="234" y="299"/>
      <point x="280" y="355"/>
    </contour>
  </outline>
</glyph>
<glyph name="degree" format="2">
  <advance width="508"/>
  <unicode hex="00B0"/>
  <outline>
    <contour>
      <point x="468" y="477" type="curve" smooth="yes"/>
      <point x="468" y="595"/>
      <point x="386" y="670"/>
      <point x="254" y="670" type="curve" smooth="yes"/>
      <point x="122" y="670"/>
      <point x="40" y="595"/>
      <point x="40" y="477" type="curve" smooth="yes"/>
      <point x="40" y="357"/>
      <point x="122" y="283"/>
      <point x="254" y="283" type="curve" smooth="yes"/>
      <point x="386" y="283"/>
      <point x="468" y="357"/>
    </contour>
    <contour>
      <point x="183" y="477" type="curve" smooth="yes"/>
      <point x="183" y="518"/>
      <point x="212" y="546"/>
      <point x="254" y="546" type="curve" smooth="yes"/>
      <point x="296" y="546"/>
      <point x="325" y="518"/>
      <point x="325" y="477" type="curve" smooth="yes"/>
      <point x="325" y="436"/>
      <point x="296" y="407"/>
      <point x="254" y="407" type="curve" smooth="yes"/>
      <point x="212" y="407"/>
      <point x="183" y="436"/>
    </contour>
  </outline>
</glyph>
<glyph name="twosuperior" format="2">
  <advance width="402"/>
  <unicode hex="00B2"/>
  <anchor x="202" y="518" name="_indexring"/>
  <outline>
    <contour>
      <point x="382" y="333" type="line"/>
      <point x="382" y="444" type="line"/>
      <point x="314" y="444" type="line" smooth="yes"/>
      <point x="277" y="444"/>
      <point x="236" y="442"/>
      <point x="212" y="440" type="curve"/>
      <point x="212" y="442" type="line"/>
      <point x="244" y="452"/>
      <point x="274" y="465"/>
      <point x="298" y="482" type="curve" smooth="yes"/>
      <point x="350" y="516"/>
      <point x="378" y="556"/>
      <point x="378" y="604" type="curve" smooth="yes"/>
      <point x="378" y="666"/>
      <point x="331" y="735"/>
      <point x="195" y="735" type="curve" smooth="yes"/>
      <point x="83" y="735"/>
      <point x="12" y="685"/>
      <point x="11" y="592" type="curve"/>
      <point x="150" y="557" type="line"/>
      <point x="148" y="603"/>
      <point x="162" y="627"/>
      <point x="192" y="627" type="curve" smooth="yes"/>
      <point x="216" y="627"/>
      <point x="228" y="613"/>
      <point x="228" y="592" type="curve" smooth="yes"/>
      <point x="228" y="559"/>
      <point x="194" y="517"/>
      <point x="113" y="468" type="curve" smooth="yes"/>
      <point x="87" y="452"/>
      <point x="58" y="436"/>
      <point x="25" y="421" type="curve"/>
      <point x="25" y="333" type="line"/>
    </contour>
  </outline>
</glyph>
<glyph name="threesuperior" format="2">
  <advance width="386"/>
  <unicode hex="00B3"/>
  <anchor x="186" y="530" name="_indexring"/>
  <outline>
    <contour>
      <point x="12" y="620" type="curve"/>
      <point x="139" y="580" type="line"/>
      <point x="142" y="615"/>
      <point x="159" y="628"/>
      <point x="184" y="628" type="curve" smooth="yes"/>
      <point x="206" y="628"/>
      <point x="219" y="617"/>
      <point x="219" y="595" type="curve" smooth="yes"/>
      <point x="219" y="573"/>
      <point x="206" y="561"/>
      <point x="181" y="561" type="curve" smooth="yes"/>
      <point x="163" y="561" type="line"/>
      <point x="163" y="491" type="line"/>
      <point x="185" y="491" type="line" smooth="yes"/>
      <point x="213" y="491"/>
      <point x="225" y="482"/>
      <point x="225" y="462" type="curve" smooth="yes"/>
      <point x="225" y="441"/>
      <point x="211" y="427"/>
      <point x="185" y="427" type="curve" smooth="yes"/>
      <point x="156" y="427"/>
      <point x="136" y="440"/>
      <point x="136" y="477" type="curve"/>
      <point x="4" y="430" type="line"/>
      <point x="30" y="354"/>
      <point x="95" y="327"/>
      <point x="198" y="327" type="curve" smooth="yes"/>
      <point x="302" y="327"/>
      <point x="365" y="374"/>
      <point x="365" y="447" type="curve" smooth="yes"/>
      <point x="365" y="499"/>
      <point x="334" y="529"/>
      <point x="272" y="529" type="curve"/>
      <point x="272" y="533" type="line"/>
      <point x="326" y="537"/>
      <point x="357" y="569"/>
      <point x="357" y="620" type="curve" smooth="yes"/>
      <point x="357" y="694"/>
      <point x="298" y="735"/>
      <point x="190" y="735" type="curve" smooth="yes"/>
      <point x="99" y="735"/>
      <point x="25" y="702"/>
    </contour>
  </outline>
</glyph>
<glyph name="uni00B5" format="2">
  <advance width="622"/>
  <unicode hex="00B5"/>
  <anchor x="314" y="500" name="top"/>
  <anchor x="572" y="0" name="ogonek"/>
  <anchor x="314" y="-210" name="bottom"/>
  <anchor x="477" y="0" name="bottomC"/>
  <outline>
    <contour>
      <point x="251" y="214" type="curve"/>
      <point x="105" y="164" type="line"/>
      <point x="105" y="40"/>
      <point x="156" y="-10"/>
      <point x="244" y="-10" type="curve" smooth="yes"/>
      <point x="346" y="-10"/>
      <point x="405" y="69"/>
      <point x="408" y="227" type="curve"/>
      <point x="370" y="229" type="line"/>
      <point x="368" y="170"/>
      <point x="345" y="141"/>
      <point x="303" y="141" type="curve" smooth="yes"/>
      <point x="269" y="141"/>
      <point x="251" y="159"/>
    </contour>
    <contour>
      <point x="49" y="500" type="line"/>
      <point x="49" y="-210" type="line"/>
      <point x="251" y="-210" type="line"/>
      <point x="251" y="500" type="line"/>
    </contour>
    <contour>
      <point x="370" y="500" type="line"/>
      <point x="370" y="204" type="line"/>
      <point x="384" y="154" type="line"/>
      <point x="392" y="0" type="line"/>
      <point x="572" y="0" type="line"/>
      <point x="572" y="145" type="line"/>
      <point x="572" y="500" type="line"/>
    </contour>
  </outline>
</glyph>
<glyph name="onesuperior" format="2">
  <advance width="318"/>
  <unicode hex="00B9"/>
  <anchor x="180" y="527" name="_indexring"/>
  <outline>
    <contour>
      <point x="280" y="730" type="line"/>
      <point x="160" y="730" type="line"/>
      <point x="145" y="658"/>
      <point x="139" y="578"/>
      <point x="139" y="537" type="curve" smooth="yes"/>
      <point x="139" y="333" type="line"/>
      <point x="280" y="333" type="line"/>
      <point x="280" y="637" type="line"/>
    </contour>
    <contour>
      <point x="237" y="704" type="curve"/>
      <point x="160" y="730" type="line"/>
      <point x="139" y="705"/>
      <point x="68" y="674"/>
      <point x="22" y="669" type="curve"/>
      <point x="22" y="553" type="line"/>
      <point x="119" y="557"/>
      <point x="212" y="651"/>
    </contour>
  </outline>
</glyph>
<glyph name="Aring" format="2">
  <advance width="684"/>
  <unicode hex="00C5"/>
  <anchor x="342" y="854" name="top"/>
  <anchor x="687" y="0" name="ogonek"/>
  <anchor x="341" y="0" name="bottom"/>
  <anchor x="581" y="0" name="bottomC"/>
  <outline>
    <contour>
      <point x="184" y="731" type="curve" smooth="yes"/>
      <point x="184" y="650"/>
      <point x="242" y="608"/>
      <point x="342" y="608" type="curve" smooth="yes"/>
      <point x="434" y="608"/>
      <point x="501" y="650"/>
      <point x="501" y="731" type="curve" smooth="yes"/>
      <point x="501" y="811"/>
      <point x="443" y="864"/>
      <point x="342" y="864" type="curve" smooth="yes"/>
      <point x="242" y="864"/>
      <point x="184" y="811"/>
    </contour>
    <contour>
      <point x="396" y="723" type="curve" smooth="yes"/>
      <point x="396" y="692"/>
      <point x="376" y="672"/>
      <point x="342" y="672" type="curve" smooth="yes"/>
      <point x="309" y="672"/>
      <point x="288" y="692"/>
      <point x="288" y="723" type="curve" smooth="yes"/>
      <point x="288" y="755"/>
      <point x="309" y="775"/>
      <point x="342" y="775" type="curve" smooth="yes"/>
      <point x="376" y="775"/>
      <point x="396" y="755"/>
    </contour>
    <contour>
      <point x="201" y="0" type="line"/>
      <point x="312" y="401" type="line"/>
      <point x="338" y="508" type="line"/>
      <point x="342" y="508" type="line"/>
      <point x="369" y="400" type="line"/>
      <point x="477" y="0" type="line"/>
      <point x="687" y="0" type="line"/>
      <point x="456" y="660" type="line"/>
      <point x="227" y="660" type="line"/>
      <point x="-3" y="0" type="line"/>
    </contour>
    <contour>
      <point x="529" y="137" type="line"/>
      <point x="529" y="269" type="line"/>
      <point x="156" y="269" type="line"/>
      <point x="156" y="137" type="line"/>
    </contour>
  </outline>
</glyph>
<glyph name="Idieresis" format="2">
  <advance width="326"/>
  <unicode hex="00CF"/>
  <anchor x="163" y="0" name="bottomC"/>
  <anchor x="163" y="660" name="top"/>
  <anchor x="265" y="0" name="ogonek"/>
  <anchor x="163" y="0" name="bottom"/>
  <outline>
    <contour>
      <point x="-36" y="791" type="curve" smooth="yes"/>
      <point x="-36" y="737"/>
      <point x="-3" y="706"/>
      <point x="54" y="706" type="curve" smooth="yes"/>
      <point x="112" y="706"/>
      <point x="147" y="737"/>
      <point x="147" y="791" type="curve" smooth="yes"/>
      <point x="147" y="844"/>
      <point x="112" y="876"/>
      <point x="54" y="876" type="curve" smooth="yes"/>
      <point x="-3" y="876"/>
      <point x="-36" y="844"/>
    </contour>
    <contour>
      <point x="179" y="791" type="curve" smooth="yes"/>
      <point x="179" y="737"/>
      <point x="212" y="706"/>
      <point x="269" y="706" type="curve" smooth="yes"/>
      <point x="327" y="706"/>
      <point x="363" y="737"/>
      <point x="363" y="791" type="curve" smooth="yes"/>
      <point x="363" y="844"/>
      <point x="327" y="876"/>
      <point x="269" y="876" type="curve" smooth="yes"/>
      <point x="212" y="876"/>
      <point x="179" y="844"/>
    </contour>
    <component base="I"/>
  </outline>
</glyph>
<glyph name="Oslash" format="2">
  <advance width="733"/>
  <unicode hex="00D8"/>
  <anchor x="367" y="660" name="top"/>
  <anchor x="452" y="0" name="ogonek"/>
  <anchor x="367" y="0" name="bottom"/>
  <anchor x="367" y="0" name="bottomC"/>
  <outline>
    <contour>
      <point x="585" y="681" type="line"/>
      <point x="490" y="548" type="line"/>
      <point x="538" y="494" type="line"/>
      <point x="676" y="681" type="line"/>
    </contour>
    <contour>
      <point x="199" y="154" type="line"/>
      <point x="255" y="103" type="line"/>
      <point x="536" y="498" type="line"/>
      <point x="481" y="552" type="line"/>
    </contour>
    <contour>
      <point x="147" y="-24" type="line"/>
      <point x="242" y="108" type="line"/>
      <point x="191" y="162" type="line"/>
      <point x="55" y="-24" type="line"/>
    </contour>
    <component base="O"/>
  </outline>
</glyph>
<glyph name="Thorn" format="2">
  <advance width="680"/>
  <unicode hex="00DE"/>
  <anchor x="163" y="660" name="top"/>
  <anchor x="265" y="0" name="ogonek"/>
  <anchor x="163" y="0" name="bottom"/>
  <anchor x="163" y="0" name="bottomC"/>
  <outline>
    <contour>
      <point x="163" y="566" type="line"/>
      <point x="163" y="417" type="line"/>
      <point x="350" y="417" type="line" smooth="yes"/>
      <point x="409" y="417"/>
      <point x="442" y="392"/>
      <point x="441" y="337" type="curve" smooth="yes"/>
      <point x="442" y="281"/>
      <point x="409" y="256"/>
      <point x="350" y="256" type="curve" smooth="yes"/>
      <point x="163" y="256" type="line"/>
      <point x="163" y="108" type="line"/>
      <point x="380" y="108" type="line" smooth="yes"/>
      <point x="550" y="108"/>
      <point x="647" y="186"/>
      <point x="646" y="337" type="curve" smooth="yes"/>
      <point x="647" y="488"/>
      <point x="550" y="566"/>
      <point x="380" y="566" type="curve" smooth="yes"/>
    </contour>
    <contour>
      <point x="61" y="660" type="line"/>
      <point x="61" y="0" type="line"/>
      <point x="265" y="0" type="line"/>
      <point x="265" y="660" type="line"/>
    </contour>
  </outline>
</glyph>
<glyph name="ae" format="2">
  <advance width="875"/>
  <unicode hex="00E6"/>
  <anchor x="421" y="500" name="top"/>
  <anchor x="711" y="8" name="ogonek"/>
  <anchor x="421" y="0" name="bottom"/>
  <anchor x="612" y="0" name="bottomC"/>
  <outline>
    <contour>
      <point x="839" y="129" type="curve"/>
      <point x="676" y="176" type="line"/>
      <point x="667" y="145"/>
      <point x="652" y="128"/>
      <point x="610" y="128" type="curve" smooth="yes"/>
      <point x="555" y="128"/>
      <point x="516" y="154"/>
      <point x="516" y="247" type="curve" smooth="yes"/>
      <point x="516" y="339"/>
      <point x="541" y="373"/>
      <point x="592" y="373" type="curve" smooth="yes"/>
      <point x="645" y="373"/>
      <point x="659" y="329"/>
      <point x="660" y="250" type="curve"/>
      <point x="755" y="286" type="line"/>
      <point x="450" y="286" type="line"/>
      <point x="450" y="209" type="line"/>
      <point x="843" y="209" type="line"/>
      <point x="846" y="222"/>
      <point x="848" y="246"/>
      <point x="848" y="268" type="curve" smooth="yes"/>
      <point x="848" y="411"/>
      <point x="762" y="510"/>
      <point x="600" y="510" type="curve" smooth="yes"/>
      <point x="464" y="510"/>
      <point x="377" y="413"/>
      <point x="377" y="250" type="curve" smooth="yes"/>
      <point x="377" y="81"/>
      <point x="455" y="-10"/>
      <point x="602" y="-10" type="curve" smooth="yes"/>
      <point x="722" y="-10"/>
      <point x="813" y="36"/>
    </contour>
    <contour>
      <point x="439" y="179" type="curve"/>
      <point x="326" y="168" type="line"/>
      <point x="326" y="117"/>
      <point x="292" y="97"/>
      <point x="258" y="97" type="curve" smooth="yes"/>
      <point x="227" y="97"/>
      <point x="211" y="114"/>
      <point x="211" y="142" type="curve" smooth="yes"/>
      <point x="211" y="175"/>
      <point x="230" y="191"/>
      <point x="275" y="201" type="curve" smooth="yes"/>
      <point x="375" y="223" type="line"/>
      <point x="358" y="294" type="line"/>
      <point x="210" y="266" type="line" smooth="yes"/>
      <point x="79" y="240"/>
      <point x="24" y="198"/>
      <point x="24" y="110" type="curve" smooth="yes"/>
      <point x="24" y="40"/>
      <point x="73" y="-10"/>
      <point x="187" y="-10" type="curve" smooth="yes"/>
      <point x="357" y="-10"/>
      <point x="439" y="78"/>
    </contour>
    <contour>
      <point x="492" y="155" type="line"/>
      <point x="492" y="301" type="line" smooth="yes"/>
      <point x="492" y="432"/>
      <point x="397" y="510"/>
      <point x="260" y="510" type="curve" smooth="yes"/>
      <point x="114" y="510"/>
      <point x="43" y="441"/>
      <point x="30" y="341" type="curve"/>
      <point x="196" y="308" type="line"/>
      <point x="204" y="359"/>
      <point x="226" y="377"/>
      <point x="266" y="377" type="curve" smooth="yes"/>
      <point x="307" y="377"/>
      <point x="326" y="355"/>
      <point x="326" y="315" type="curve" smooth="yes"/>
      <point x="326" y="125" type="line"/>
    </contour>
  </outline>
</glyph>
<glyph name="idieresis" format="2">
  <advance width="300"/>
  <unicode hex="00EF"/>
  <anchor x="150" y="0" name="bottomC"/>
  <anchor x="150" y="500" name="top"/>
  <anchor x="236" y="8" name="ogonek"/>
  <anchor x="150" y="0" name="bottom"/>
  <outline>
    <contour>
      <point x="341" y="631" type="curve" smooth="yes"/>
      <point x="341" y="688"/>
      <point x="310" y="718"/>
      <point x="252" y="718" type="curve" smooth="yes"/>
      <point x="193" y="718"/>
      <point x="163" y="688"/>
      <point x="163" y="631" type="curve" smooth="yes"/>
      <point x="163" y="573"/>
      <point x="193" y="544"/>
      <point x="252" y="544" type="curve" smooth="yes"/>
      <point x="310" y="544"/>
      <point x="341" y="573"/>
    </contour>
    <contour>
      <point x="137" y="631" type="curve" smooth="yes"/>
      <point x="137" y="688"/>
      <point x="107" y="718"/>
      <point x="48" y="718" type="curve" smooth="yes"/>
      <point x="-10" y="718"/>
      <point x="-41" y="688"/>
      <point x="-41" y="631" type="curve" smooth="yes"/>
      <point x="-41" y="573"/>
      <point x="-10" y="544"/>
      <point x="48" y="544" type="curve" smooth="yes"/>
      <point x="107" y="544"/>
      <point x="137" y="573"/>
    </contour>
    <component base="idotless"/>
  </outline>
</glyph>
<glyph name="divide" format="2">
  <advance width="604"/>
  <unicode hex="00F7"/>
  <outline>
    <contour>
      <point x="47" y="397" type="line"/>
      <point x="47" y="259" type="line"/>
      <point x="557" y="259" type="line"/>
      <point x="557" y="397" type="line"/>
    </contour>
    <component base="period" xScale="0.8186266666666666" yScale="0.8885733333333333" xOffset="180" yOffset="26"/>
    <component base="period" xScale="0.8186266666666666" yScale="0.8885733333333333" xOffset="180" yOffset="470"/>
  </outline>
</glyph>
<glyph name="oslash" format="2">
  <advance width="600"/>
  <unicode hex="00F8"/>
  <anchor x="300" y="500" name="top"/>
  <anchor x="422" y="11" name="ogonek"/>
  <anchor x="300" y="0" name="bottom"/>
  <anchor x="300" y="0" name="bottomC"/>
  <outline>
    <contour>
      <point x="28" y="250" type="curve" smooth="yes"/>
      <point x="28" y="164"/>
      <point x="55" y="97"/>
      <point x="106" y="53" type="curve"/>
      <point x="47" y="-24" type="line"/>
      <point x="114" y="-24" type="line"/>
      <point x="149" y="23" type="line"/>
      <point x="190" y="1"/>
      <point x="241" y="-10"/>
      <point x="300" y="-10" type="curve" smooth="yes"/>
      <point x="472" y="-10"/>
      <point x="572" y="86"/>
      <point x="572" y="250" type="curve" smooth="yes"/>
      <point x="572" y="332"/>
      <point x="547" y="398"/>
      <point x="500" y="442" type="curve"/>
      <point x="563" y="521" type="line"/>
      <point x="496" y="521" type="line"/>
      <point x="459" y="473" type="line"/>
      <point x="416" y="497"/>
      <point x="363" y="510"/>
      <point x="300" y="510" type="curve" smooth="yes"/>
      <point x="128" y="510"/>
      <point x="28" y="414"/>
    </contour>
    <contour>
      <point x="231" y="250" type="curve" smooth="yes"/>
      <point x="231" y="341"/>
      <point x="250" y="371"/>
      <point x="300" y="371" type="curve" smooth="yes"/>
      <point x="322" y="371"/>
      <point x="337" y="365"/>
      <point x="348" y="350" type="curve"/>
      <point x="257" y="229" type="line"/>
      <point x="238" y="199" type="line"/>
      <point x="237" y="199" type="line"/>
      <point x="233" y="214"/>
      <point x="231" y="231"/>
    </contour>
    <contour>
      <point x="257" y="144" type="curve"/>
      <point x="344" y="260" type="line"/>
      <point x="363" y="288" type="line"/>
      <point x="364" y="288" type="line"/>
      <point x="367" y="277"/>
      <point x="369" y="264"/>
      <point x="369" y="250" type="curve" smooth="yes"/>
      <point x="369" y="159"/>
      <point x="350" y="129"/>
      <point x="300" y="129" type="curve" smooth="yes"/>
      <point x="282" y="129"/>
      <point x="267" y="133"/>
    </contour>
  </outline>
</glyph>
<glyph name="aogonek" format="2">
  <advance width="584"/>
  <unicode hex="0105"/>
  <anchor x="277" y="500" name="top"/>
  <anchor x="523" y="-210" name="ogonek"/>
  <anchor x="277" y="-210" name="bottom"/>
  <anchor x="502" y="-210" name="bottomC"/>
  <outline>
    <contour>
      <point x="30" y="340" type="curve"/>
      <point x="196" y="308" type="line"/>
      <point x="202" y="360"/>
      <point x="230" y="376"/>
      <point x="266" y="376" type="curve" smooth="yes"/>
      <point x="303" y="376"/>
      <point x="324" y="353"/>
      <point x="324" y="315" type="curve" smooth="yes"/>
      <point x="324" y="115" type="line"/>
      <point x="361" y="123" type="line" smooth="yes"/>
      <point x="361" y="49"/>
      <point x="410" y="5"/>
      <point x="502" y="5" type="curve" smooth="yes"/>
      <point x="525" y="5"/>
      <point x="549" y="3"/>
      <point x="571" y="4" type="curve"/>
      <point x="587" y="115" type="line"/>
      <point x="580" y="112"/>
      <point x="570" y="111"/>
      <point x="559" y="111" type="curve" smooth="yes"/>
      <point x="536" y="111"/>
      <point x="524" y="124"/>
      <point x="524" y="151" type="curve" smooth="yes"/>
      <point x="524" y="311" type="line" smooth="yes"/>
      <point x="524" y="444"/>
      <point x="443" y="510"/>
      <point x="276" y="510" type="curve" smooth="yes"/>
      <point x="125" y="510"/>
      <point x="43" y="445"/>
    </contour>
    <contour>
      <point x="326" y="-95" type="curve" smooth="yes"/>
      <point x="326" y="-179"/>
      <point x="391" y="-215"/>
      <point x="472" y="-215" type="curve" smooth="yes"/>
      <point x="518" y="-215"/>
      <point x="552" y="-209"/>
      <point x="582" y="-190" type="curve"/>
      <point x="557" y="-97" type="line"/>
      <point x="546" y="-104"/>
      <point x="530" y="-106"/>
      <point x="514" y="-106" type="curve" smooth="yes"/>
      <point x="482" y="-106"/>
      <point x="464" y="-91"/>
      <point x="464" y="-65" type="curve" smooth="yes"/>
      <point x="464" y="-27"/>
      <point x="498" y="-6"/>
      <point x="571" y="4" type="curve"/>
      <point x="483" y="27" type="line"/>
      <point x="383" y="21"/>
      <point x="326" y="-23"/>
    </contour>
    <contour>
      <point x="219" y="272" type="line" smooth="yes"/>
      <point x="79" y="243"/>
      <point x="24" y="193"/>
      <point x="24" y="112" type="curve" smooth="yes"/>
      <point x="24" y="33"/>
      <point x="78" y="-10"/>
      <point x="181" y="-10" type="curve" smooth="yes"/>
      <point x="313" y="-10"/>
      <point x="379" y="68"/>
      <point x="379" y="157" type="curve"/>
      <point x="324" y="165" type="line"/>
      <point x="324" y="126"/>
      <point x="295" y="105"/>
      <point x="260" y="105" type="curve" smooth="yes"/>
      <point x="234" y="105"/>
      <point x="215" y="118"/>
      <point x="215" y="145" type="curve" smooth="yes"/>
      <point x="215" y="174"/>
      <point x="237" y="195"/>
      <point x="276" y="205" type="curve" smooth="yes"/>
      <point x="373" y="230" type="line"/>
      <point x="357" y="301" type="line"/>
    </contour>
  </outline>
</glyph>
<glyph name="Dcroat" format="2">
  <advance width="743"/>
  <unicode hex="0110"/>
  <anchor x="356" y="0" name="bottom"/>
  <anchor x="356" y="660" name="top"/>
  <anchor x="390" y="0" name="ogonek"/>
  <anchor x="106" y="73" name="center"/>
  <anchor x="367" y="0" name="bottomC"/>
  <outline>
    <contour>
      <point x="8" y="396" type="line"/>
      <point x="8" y="262" type="line"/>
      <point x="398" y="262" type="line"/>
      <point x="398" y="396" type="line"/>
    </contour>
    <component base="D" xOffset="26"/>
  </outline>
</glyph>
<glyph name="gbreve" format="2">
  <advance width="569"/>
  <unicode hex="011F"/>
  <outline>
    <contour>
      <point x="425" y="455" type="curve"/>
      <point x="481" y="435" type="line"/>
      <point x="481" y="499"/>
      <point x="526" y="526"/>
      <point x="585" y="520" type="curve"/>
      <point x="566" y="649" type="line"/>
      <point x="474" y="649"/>
      <point x="409" y="556"/>
    </contour>
    <component base="gbase" xOffset="-7"/>
    <component base="breve" xOffset="37"/>
  </outline>
</glyph>
<glyph name="lslash" format="2">
  <advance width="402"/>
  <unicode hex="0142"/>
  <anchor x="343" y="353" name="center"/>
  <anchor x="222" y="0" name="bottom"/>
  <anchor x="182" y="706" name="top"/>
  <anchor x="257" y="0" name="bottomC"/>
  <anchor x="335" y="706" name="topright"/>
  <anchor x="316" y="0" name="ogonek"/>
  <outline>
    <contour>
      <point x="183" y="379" type="line"/>
      <point x="6" y="300" type="line"/>
      <point x="6" y="161" type="line"/>
      <point x="227" y="304" type="line"/>
      <point x="389" y="375" type="line"/>
      <point x="389" y="515" type="line"/>
    </contour>
    <component base="l" xOffset="40"/>
  </outline>
</glyph>
<glyph name="uni0163" format="2">
  <advance width="444"/>
  <unicode hex="0163"/>
  <anchor x="157" y="250" name="center"/>
  <anchor x="252" y="-210" name="bottom"/>
  <anchor x="189" y="730" name="top"/>
  <anchor x="262" y="-210" name="bottomC"/>
  <anchor x="353" y="767" name="topright"/>
  <anchor x="283" y="-210" name="ogonek"/>
  <outline>
    <contour>
      <point x="279" y="-66" type="curve" smooth="yes"/>
      <point x="279" y="-97"/>
      <point x="257" y="-114"/>
      <point x="221" y="-114" type="curve" smooth="yes"/>
      <point x="191" y="-114"/>
      <point x="167" y="-101"/>
      <point x="152" y="-85" type="curve"/>
      <point x="109" y="-173" type="line"/>
      <point x="134" y="-197"/>
      <point x="170" y="-215"/>
      <point x="239" y="-215" type="curve" smooth="yes"/>
      <point x="324" y="-215"/>
      <point x="391" y="-180"/>
      <point x="391" y="-93" type="curve" smooth="yes"/>
      <point x="391" y="-26"/>
      <point x="329" y="21"/>
      <point x="216" y="48" type="curve"/>
      <point x="182" y="5" type="line"/>
      <point x="256" y="-12"/>
      <point x="279" y="-31"/>
    </contour>
    <component base="t"/>
  </outline>
</glyph>
<glyph name="longs" format="2">
  <advance width="349"/>
  <unicode hex="017F"/>
  <anchor x="206" y="706" name="top"/>
  <anchor x="244" y="0" name="ogonek"/>
  <anchor x="150" y="0" name="bottom"/>
  <anchor x="143" y="0" name="bottomC"/>
  <outline>
    <contour>
      <point x="244" y="0" type="line"/>
      <point x="244" y="518" type="line" smooth="yes"/>
      <point x="244" y="568"/>
      <point x="273" y="587"/>
      <point x="313" y="587" type="curve" smooth="yes"/>
      <point x="331" y="587"/>
      <point x="343" y="585"/>
      <point x="355" y="576" type="curve"/>
      <point x="363" y="697" type="line"/>
      <point x="338" y="716"/>
      <point x="308" y="723"/>
      <point x="259" y="723" type="curve" smooth="yes"/>
      <point x="147" y="723"/>
      <point x="48" y="672"/>
      <point x="48" y="532" type="curve" smooth="yes"/>
      <point x="48" y="0" type="line"/>
    </contour>
  </outline>
</glyph>
<glyph name="caron" format="2">
  <advance width="500"/>
  <unicode hex="02C7"/>
  <anchor x="255" y="500" name="_top"/>
  <outline>
    <contour>
      <point x="312" y="734" type="line"/>
      <point x="250" y="655" type="line"/>
      <point x="188" y="734" type="line"/>
      <point x="47" y="734" type="line"/>
      <point x="155" y="559" type="line"/>
      <point x="345" y="559" type="line"/>
      <point x="453" y="734" type="line"/>
    </contour>
  </outline>
</glyph>
<glyph name="uni02C9" format="2">
  <advance width="500"/>
  <unicode hex="02C9"/>
  <outline>
    <contour>
      <point x="60" y="678" type="line"/>
      <point x="60" y="559" type="line"/>
      <point x="440" y="559" type="line"/>
      <point x="440" y="678" type="line"/>
    </contour>
  </outline>
</glyph>
<glyph name="dotaccent" format="2">
  <advance width="500"/>
  <unicode hex="02D9"/>
  <anchor x="250" y="500" name="_top"/>
  <outline>
    <contour>
      <point x="148" y="636" type="curve" smooth="yes"/>
      <point x="148" y="579"/>
      <point x="182" y="549"/>
      <point x="250" y="549" type="curve" smooth="yes"/>
      <point x="319" y="549"/>
      <point x="355" y="579"/>
      <point x="355" y="636" type="curve" smooth="yes"/>
      <point x="355" y="694"/>
      <point x="319" y="724"/>
      <point x="250" y="724" type="curve" smooth="yes"/>
      <point x="182" y="724"/>
      <point x="148" y="694"/>
    </contour>
  </outline>
</glyph>
<glyph name="hungarumlaut" format="2">
  <advance width="500"/>
  <unicode hex="02DD"/>
  <anchor x="245" y="500" name="_top"/>
  <outline>
    <contour>
      <point x="345" y="734" type="line"/>
      <point x="278" y="559" type="line"/>
      <point x="415" y="559" type="line"/>
      <point x="509" y="734" type="line"/>
    </contour>
    <contour>
      <point x="121" y="734" type="line"/>
      <point x="54" y="559" type="line"/>
      <point x="190" y="559" type="line"/>
      <point x="284" y="734" type="line"/>
    </contour>
  </outline>
</glyph>
<glyph name="emdash" format="2">
  <advance width="1003"/>
  <unicode hex="2014"/>
  <outline>
    <contour>
      <point x="76" y="348" type="line"/>
      <point x="76" y="191" type="line"/>
      <point x="926" y="191" type="line"/>
      <point x="926" y="348" type="line"/>
    </contour>
  </outline>
</glyph>
<glyph name="dagger" format="2">
  <advance width="624"/>
  <unicode hex="2020"/>
  <outline>
    <contour>
      <point x="219" y="660" type="line"/>
      <point x="219" y="-100" type="line"/>
      <point x="404" y="-100" type="line"/>
      <point x="404" y="660" type="line"/>
    </contour>
    <contour>
      <point x="32" y="466" type="line"/>
      <point x="32" y="314" type="line"/>
      <point x="592" y="314" type="line"/>
      <point x="592" y="466" type="line"/>
    </contour>
  </outline>
</glyph>
<glyph name="daggerdbl" format="2">
  <advance width="624"/>
  <unicode hex="2021"/>
  <outline>
    <contour>
      <point x="227" y="660" type="line"/>
      <point x="227" y="-100" type="line"/>
      <point x="396" y="-100" type="line"/>
      <point x="396" y="660" type="line"/>
    </contour>
    <contour>
      <point x="41" y="483" type="line"/>
      <point x="41" y="339" type="line"/>
      <point x="584" y="339" type="line"/>
      <point x="584" y="483" type="line"/>
    </contour>
    <contour>
      <point x="41" y="213" type="line"/>
      <point x="41" y="69" type="line"/>
      <point x="584" y="69" type="line"/>
      <point x="584" y="213" type="line"/>
    </contour>
  </outline>
</glyph>
<glyph name="guilsinglleft" format="2">
  <advance width="353"/>
  <unicode hex="2039"/>
  <outline>
    <contour>
      <point x="154" y="461" type="line"/>
      <point x="29" y="265" type="line"/>
      <point x="154" y="69" type="line"/>
      <point x="323" y="69" type="line"/>
      <point x="205" y="265" type="line"/>
      <point x="323" y="461" type="line"/>
    </contour>
  </outline>
</glyph>
<glyph name="fivesuperior" format="2">
  <advance width="394"/>
  <unicode hex="2075"/>
  <anchor x="193" y="537" name="_indexring"/>
  <outline>
    <contour>
      <point x="149" y="569" type="curve"/>
      <point x="148" y="569" type="line"/>
      <point x="152" y="576"/>
      <point x="154" y="583"/>
      <point x="155" y="593" type="curve" smooth="yes"/>
      <point x="158" y="626" type="line"/>
      <point x="351" y="626" type="line"/>
      <point x="351" y="730" type="line"/>
      <point x="52" y="730" type="line"/>
      <point x="26" y="496" type="line"/>
      <point x="142" y="483" type="line"/>
      <point x="153" y="495"/>
      <point x="165" y="500"/>
      <point x="189" y="500" type="curve" smooth="yes"/>
      <point x="216" y="500"/>
      <point x="232" y="487"/>
      <point x="232" y="465" type="curve" smooth="yes"/>
      <point x="232" y="440"/>
      <point x="215" y="426"/>
      <point x="188" y="426" type="curve" smooth="yes"/>
      <point x="158" y="426"/>
      <point x="145" y="439"/>
      <point x="138" y="460" type="curve"/>
      <point x="10" y="406" type="line"/>
      <point x="46" y="343"/>
      <point x="108" y="327"/>
      <point x="191" y="327" type="curve" smooth="yes"/>
      <point x="289" y="327"/>
      <point x="366" y="368"/>
      <point x="366" y="467" type="curve" smooth="yes"/>
      <point x="366" y="542"/>
      <point x="326" y="587"/>
      <point x="236" y="587" type="curve" smooth="yes"/>
      <point x="189" y="587"/>
      <point x="163" y="581"/>
    </contour>
  </outline>
</glyph>
<glyph name="sixsuperior" format="2">
  <advance width="409"/>
  <unicode hex="2076"/>
  <anchor x="215" y="532" name="_indexring"/>
  <outline>
    <contour>
      <point x="392" y="455" type="curve" smooth="yes"/>
      <point x="392" y="541"/>
      <point x="332" y="573"/>
      <point x="261" y="573" type="curve" smooth="yes"/>
      <point x="212" y="573"/>
      <point x="179" y="561"/>
      <point x="158" y="536" type="curve"/>
      <point x="157" y="536" type="line"/>
      <point x="157" y="539"/>
      <point x="157" y="543"/>
      <point x="157" y="547" type="curve" smooth="yes"/>
      <point x="157" y="602"/>
      <point x="184" y="637"/>
      <point x="227" y="637" type="curve" smooth="yes"/>
      <point x="256" y="637"/>
      <point x="275" y="622"/>
      <point x="281" y="596" type="curve"/>
      <point x="389" y="647" type="line"/>
      <point x="359" y="714"/>
      <point x="301" y="735"/>
      <point x="224" y="735" type="curve" smooth="yes"/>
      <point x="110" y="735"/>
      <point x="24" y="670"/>
      <point x="24" y="531" type="curve" smooth="yes"/>
      <point x="24" y="391"/>
      <point x="93" y="327"/>
      <point x="212" y="327" type="curve" smooth="yes"/>
      <point x="329" y="327"/>
      <point x="392" y="374"/>
    </contour>
    <contour>
      <point x="173" y="460" type="curve" smooth="yes"/>
      <point x="173" y="483"/>
      <point x="189" y="497"/>
      <point x="217" y="497" type="curve" smooth="yes"/>
      <point x="245" y="497"/>
      <point x="259" y="484"/>
      <point x="259" y="460" type="curve" smooth="yes"/>
      <point x="259" y="435"/>
      <point x="244" y="422"/>
      <point x="216" y="422" type="curve" smooth="yes"/>
      <point x="188" y="422"/>
      <point x="173" y="435"/>
    </contour>
  </outline>
</glyph>
<glyph name="sevensuperior" format="2">
  <advance width="370"/>
  <unicode hex="2077"/>
  <anchor x="183" y="544" name="_indexring"/>
  <outline>
    <contour>
      <point x="245" y="333" type="line"/>
      <point x="245" y="443"/>
      <point x="267" y="556"/>
      <point x="361" y="643" type="curve"/>
      <point x="361" y="730" type="line"/>
      <point x="12" y="730" type="line"/>
      <point x="12" y="618" type="line"/>
      <point x="315" y="618" type="line"/>
      <point x="272" y="672" type="line"/>
      <point x="164" y="595"/>
      <point x="101" y="461"/>
      <point x="101" y="333" type="curve"/>
    </contour>
  </outline>
</glyph>
<glyph name="eightsuperior" format="2">
  <advance width="428"/>
  <unicode hex="2078"/>
  <anchor x="213" y="529" name="_indexring"/>
  <outline>
    <contour>
      <point x="38" y="617" type="curve" smooth="yes"/>
      <point x="38" y="577"/>
      <point x="62" y="544"/>
      <point x="107" y="531" type="curve"/>
      <point x="107" y="530" type="line"/>
      <point x="55" y="517"/>
      <point x="29" y="486"/>
      <point x="29" y="443" type="curve" smooth="yes"/>
      <point x="29" y="369"/>
      <point x="98" y="327"/>
      <point x="213" y="327" type="curve" smooth="yes"/>
      <point x="330" y="327"/>
      <point x="399" y="369"/>
      <point x="399" y="443" type="curve" smooth="yes"/>
      <point x="399" y="488"/>
      <point x="372" y="517"/>
      <point x="319" y="530" type="curve"/>
      <point x="319" y="531" type="line"/>
      <point x="367" y="546"/>
      <point x="389" y="578"/>
      <point x="389" y="617" type="curve" smooth="yes"/>
      <point x="389" y="689"/>
      <point x="322" y="735"/>
      <point x="213" y="735" type="curve" smooth="yes"/>
      <point x="106" y="735"/>
      <point x="38" y="689"/>
    </contour>
    <contour>
      <point x="257" y="612" type="curve" smooth="yes"/>
      <point x="257" y="589"/>
      <point x="242" y="577"/>
      <point x="214" y="577" type="curve" smooth="yes"/>
      <point x="186" y="577"/>
      <point x="171" y="589"/>
      <point x="171" y="612" type="curve" smooth="yes"/>
      <point x="171" y="635"/>
      <point x="186" y="648"/>
      <point x="214" y="648" type="curve" smooth="yes"/>
      <point x="242" y="648"/>
      <point x="257" y="635"/>
    </contour>
    <contour>
      <point x="168" y="451" type="curve" smooth="yes"/>
      <point x="168" y="474"/>
      <point x="185" y="487"/>
      <point x="214" y="487" type="curve" smooth="yes"/>
      <point x="243" y="487"/>
      <point x="259" y="474"/>
      <point x="259" y="451" type="curve" smooth="yes"/>
      <point x="259" y="427"/>
      <point x="243" y="414"/>
      <point x="214" y="414" type="curve" smooth="yes"/>
      <point x="185" y="414"/>
      <point x="168" y="427"/>
    </contour>
  </outline>
</glyph>
<glyph name="minussuperior" format="2">
  <advance width="357"/>
  <unicode hex="207B"/>
  <outline>
    <contour>
      <point x="323" y="478" type="line"/>
      <point x="323" y="585" type="line"/>
      <point x="34" y="585" type="line"/>
      <point x="34" y="478" type="line"/>
    </contour>
  </outline>
</glyph>
<glyph name="parenleftsuperior" format="2">
  <advance width="267"/>
  <unicode hex="207D"/>
  <outline>
    <contour>
      <point x="54" y="531" type="curve" smooth="yes"/>
      <point x="54" y="403"/>
      <point x="102" y="312"/>
      <point x="194" y="252" type="curve"/>
      <point x="267" y="314" type="line"/>
      <point x="208" y="368"/>
      <point x="186" y="424"/>
      <point x="186" y="531" type="curve" smooth="yes"/>
      <point x="186" y="638"/>
      <point x="208" y="694"/>
      <point x="267" y="748" type="curve"/>
      <point x="194" y="810" type="line"/>
      <point x="102" y="750"/>
      <point x="54" y="659"/>
    </contour>
  </outline>
</glyph>
<glyph name="uni20BD" format="2">
  <advance width="702"/>
  <unicode hex="20BD"/>
  <outline>
    <contour>
      <point x="251" y="660" type="line"/>
      <point x="251" y="511" type="line"/>
      <point x="370" y="511" type="line" smooth="yes"/>
      <point x="436" y="511"/>
      <point x="465" y="488"/>
      <point x="465" y="437" type="curve" smooth="yes"/>
      <point x="465" y="386"/>
      <point x="436" y="363"/>
      <point x="370" y="363" type="curve" smooth="yes"/>
      <point x="23" y="363" type="line"/>
      <point x="23" y="274" type="line"/>
      <point x="403" y="274" type="line" smooth="yes"/>
      <point x="578" y="274"/>
      <point x="670" y="333"/>
      <point x="670" y="466" type="curve" smooth="yes"/>
      <point x="670" y="583"/>
      <point x="578" y="660"/>
      <point x="403" y="660" type="curve" smooth="yes"/>
    </contour>
    <contour>
      <point x="108" y="660" type="line"/>
      <point x="108" y="0" type="line"/>
      <point x="312" y="0" type="line"/>
      <point x="312" y="660" type="line"/>
    </contour>
    <contour>
      <point x="494" y="212" type="line"/>
      <point x="23" y="212" type="line"/>
      <point x="23" y="129" type="line"/>
      <point x="494" y="129" type="line"/>
    </contour>
  </outline>
</glyph>
<glyph name="uni2126" format="2">
  <advance width="779"/>
  <unicode hex="2126"/>
  <outline>
    <contour>
      <point x="59" y="360" type="curve" smooth="yes"/>
      <point x="59" y="204"/>
      <point x="162" y="112"/>
      <point x="334" y="103" type="curve"/>
      <point x="355" y="133" type="line"/>
      <point x="294" y="140"/>
      <point x="268" y="200"/>
      <point x="268" y="325" type="curve" smooth="yes"/>
      <point x="268" y="450"/>
      <point x="308" y="514"/>
      <point x="389" y="514" type="curve" smooth="yes"/>
      <point x="470" y="514"/>
      <point x="511" y="450"/>
      <point x="511" y="325" type="curve" smooth="yes"/>
      <point x="511" y="200"/>
      <point x="484" y="140"/>
      <point x="423" y="133" type="curve"/>
      <point x="444" y="103" type="line"/>
      <point x="616" y="112"/>
      <point x="719" y="204"/>
      <point x="719" y="360" type="curve" smooth="yes"/>
      <point x="719" y="551"/>
      <point x="595" y="670"/>
      <point x="389" y="670" type="curve" smooth="yes"/>
      <point x="184" y="670"/>
      <point x="59" y="551"/>
    </contour>
    <contour>
      <point x="55" y="0" type="line"/>
      <point x="356" y="0" type="line"/>
      <point x="356" y="133" type="line"/>
      <point x="55" y="133" type="line"/>
    </contour>
    <contour>
      <point x="423" y="133" type="line"/>
      <point x="423" y="0" type="line"/>
      <point x="724" y="0" type="line"/>
      <point x="724" y="133" type="line"/>
    </contour>
  </outline>
</glyph>
<glyph name="estimated" format="2">
  <advance width="764"/>
  <unicode hex="212E"/>
  <outline>
    <contour>
      <point x="44" y="330" type="curve" smooth="yes"/>
      <point x="44" y="124"/>
      <point x="178" y="-10"/>
      <point x="404" y="-10" type="curve" smooth="yes"/>
      <point x="530" y="-10"/>
      <point x="639" y="35"/>
      <point x="691" y="131" type="curve"/>
      <point x="691" y="229" type="line"/>
      <point x="619" y="105"/>
      <point x="521" y="61"/>
      <point x="403" y="61" type="curve" smooth="yes"/>
      <point x="314" y="61"/>
      <point x="239" y="89"/>
      <point x="193" y="143" type="curve"/>
      <point x="193" y="295" type="line"/>
      <point x="717" y="295" type="line"/>
      <point x="722" y="542"/>
      <point x="596" y="670"/>
      <point x="384" y="670" type="curve" smooth="yes"/>
      <point x="178" y="670"/>
      <point x="44" y="536"/>
    </contour>
    <contour>
      <point x="574" y="524" type="curve"/>
      <point x="574" y="367" type="line"/>
      <point x="193" y="367" type="line"/>
      <point x="193" y="518" type="line"/>
      <point x="232" y="569"/>
      <point x="291" y="599"/>
      <point x="384" y="599" type="curve" smooth="yes"/>
      <point x="476" y="599"/>
      <point x="535" y="571"/>
    </contour>
  </outline>
</glyph>
<glyph name="uparrow" format="2">
  <advance width="750"/>
  <unicode hex="2191"/>
  <outline>
    <contour>
      <point x="391" y="595" type="curve"/>
      <point x="357" y="595" type="line"/>
      <point x="381" y="490"/>
      <point x="449" y="337"/>
      <point x="624" y="221" type="curve"/>
      <point x="725" y="371" type="line"/>
      <point x="567" y="465"/>
      <point x="459" y="554"/>
      <point x="377" y="666" type="curve"/>
      <point x="371" y="666" type="line"/>
      <point x="289" y="554"/>
      <point x="181" y="465"/>
      <point x="23" y="371" type="curve"/>
      <point x="124" y="221" type="line"/>
      <point x="299" y="337"/>
      <point x="367" y="490"/>
    </contour>
    <contour>
      <point x="475" y="0" type="line"/>
      <point x="475" y="192" type="line" smooth="yes"/>
      <point x="475" y="310"/>
      <point x="458" y="423"/>
      <point x="432" y="517" type="curve"/>
      <point x="374" y="610" type="line"/>
      <point x="316" y="517" type="line"/>
      <point x="290" y="423"/>
      <point x="273" y="310"/>
      <point x="273" y="192" type="curve" smooth="yes"/>
      <point x="273" y="0" type="line"/>
    </contour>
  </outline>
</glyph>
<glyph name="updownarrow" format="2">
  <advance width="750"/>
  <unicode hex="2195"/>
  <outline>
    <contour>
      <point x="433" y="-50" type="line"/>
      <point x="459" y="43"/>
      <point x="476" y="153"/>
      <point x="476" y="268" type="curve" smooth="yes"/>
      <point x="476" y="392" type="line" smooth="yes"/>
      <point x="476" y="507"/>
      <point x="459" y="617"/>
      <point x="433" y="710" type="curve"/>
      <point x="375" y="803" type="line"/>
      <point x="316" y="710" type="line"/>
      <point x="291" y="617"/>
      <point x="274" y="507"/>
      <point x="274" y="392" type="curve" smooth="yes"/>
      <point x="274" y="268" type="line" smooth="yes"/>
      <point x="274" y="153"/>
      <point x="291" y="43"/>
      <point x="316" y="-50" type="curve"/>
      <point x="375" y="-143" type="line"/>
    </contour>
    <contour>
      <point x="392" y="788" type="curve"/>
      <point x="358" y="788" type="line"/>
      <point x="382" y="683"/>
      <point x="450" y="529"/>
      <point x="627" y="412" type="curve"/>
      <point x="726" y="564" type="line"/>
      <point x="568" y="657"/>
      <point x="460" y="747"/>
      <point x="378" y="859" type="curve"/>
      <point x="372" y="859" type="line"/>
      <point x="290" y="747"/>
      <point x="181" y="657"/>
      <point x="24" y="564" type="curve"/>
      <point x="123" y="412" type="line"/>
      <point x="300" y="529"/>
      <point x="368" y="683"/>
    </contour>
    <contour>
      <point x="24" y="96" type="line"/>
      <point x="181" y="3"/>
      <point x="290" y="-87"/>
      <point x="372" y="-199" type="curve"/>
      <point x="378" y="-199" type="line"/>
      <point x="460" y="-87"/>
      <point x="568" y="3"/>
      <point x="726" y="96" type="curve"/>
      <point x="627" y="248" type="line"/>
      <point x="450" y="131"/>
      <point x="382" y="-23"/>
      <point x="358" y="-128" type="curve"/>
      <point x="392" y="-128" type="line"/>
      <point x="368" y="-23"/>
      <point x="300" y="131"/>
      <point x="123" y="248" type="curve"/>
    </contour>
  </outline>
</glyph>
<glyph name="nearrow" format="2">
  <advance width="750"/>
  <unicode hex="2197"/>
  <outline>
    <contour>
      <point x="351" y="198" type="line" smooth="yes"/>
      <point x="434" y="279"/>
      <point x="535" y="389"/>
      <point x="584" y="474" type="curve"/>
      <point x="607" y="581" type="line"/>
      <point x="501" y="557" type="line"/>
      <point x="416" y="508"/>
      <point x="308" y="408"/>
      <point x="225" y="324" type="curve" smooth="yes"/>
      <point x="87" y="186" type="line"/>
      <point x="213" y="61" type="line"/>
    </contour>
    <contour>
      <point x="656" y="124" type="line"/>
      <point x="629" y="273"/>
      <point x="633" y="470"/>
      <point x="649" y="618" type="curve"/>
      <point x="645" y="623" type="line"/>
      <point x="496" y="606"/>
      <point x="300" y="603"/>
      <point x="151" y="630" type="curve"/>
      <point x="144" y="453" type="line"/>
      <point x="369" y="440"/>
      <point x="515" y="501"/>
      <point x="608" y="557" type="curve"/>
      <point x="584" y="581" type="line"/>
      <point x="528" y="488"/>
      <point x="467" y="343"/>
      <point x="480" y="118" type="curve"/>
    </contour>
  </outline>
</glyph>
<glyph name="partialdiff" format="2">
  <advance width="674"/>
  <unicode hex="2202"/>
  <outline>
    <contour>
      <point x="69" y="580" type="curve"/>
      <point x="152" y="456" type="line"/>
      <point x="195" y="497"/>
      <point x="238" y="508"/>
      <point x="291" y="508" type="curve" smooth="yes"/>
      <point x="369" y="508"/>
      <point x="435" y="465"/>
      <point x="435" y="303" type="curve" smooth="yes"/>
      <point x="435" y="178"/>
      <point x="394" y="142"/>
      <point x="342" y="142" type="curve" smooth="yes"/>
      <point x="295" y="142"/>
      <point x="271" y="168"/>
      <point x="271" y="209" type="curve" smooth="yes"/>
      <point x="271" y="252"/>
      <point x="298" y="278"/>
      <point x="345" y="278" type="curve" smooth="yes"/>
      <point x="402" y="278"/>
      <point x="426" y="230"/>
      <point x="430" y="198" type="curve"/>
      <point x="460" y="211" type="line"/>
      <point x="458" y="340"/>
      <point x="404" y="415"/>
      <point x="296" y="415" type="curve" smooth="yes"/>
      <point x="174" y="415"/>
      <point x="63" y="341"/>
      <point x="63" y="203" type="curve" smooth="yes"/>
      <point x="63" y="58"/>
      <point x="186" y="-10"/>
      <point x="307" y="-10" type="curve" smooth="yes"/>
      <point x="509" y="-10"/>
      <point x="620" y="89"/>
      <point x="620" y="345" type="curve" smooth="yes"/>
      <point x="620" y="556"/>
      <point x="511" y="670"/>
      <point x="323" y="670" type="curve" smooth="yes"/>
      <point x="209" y="670"/>
      <point x="146" y="643"/>
    </contour>
  </outline>
</glyph>
<glyph name="uni2206" format="2">
  <advance width="745"/>
  <unicode hex="2206"/>
  <outline>
    <contour>
      <point x="271" y="660" type="line"/>
      <point x="40" y="117" type="line"/>
      <point x="40" y="0" type="line"/>
      <point x="705" y="0" type="line"/>
      <point x="705" y="117" type="line"/>
      <point x="474" y="660" type="line"/>
    </contour>
    <contour>
      <point x="546" y="139" type="line"/>
      <point x="199" y="139" type="line"/>
      <point x="373" y="547" type="line"/>
    </contour>
  </outline>
</glyph>
<glyph name="minus" format="2">
  <advance width="604"/>
  <unicode hex="2212"/>
  <outline>
    <contour>
      <point x="60" y="402" type="line"/>
      <point x="60" y="254" type="line"/>
      <point x="544" y="254" type="line"/>
      <point x="544" y="402" type="line"/>
    </contour>
  </outline>
</glyph>
<glyph name="infinity" format="2">
  <advance width="962"/>
  <unicode hex="221E"/>
  <outline>
    <contour>
      <point x="439" y="340" type="curve" smooth="yes"/>
      <point x="296" y="185"/>
      <point x="269" y="176"/>
      <point x="232" y="176" type="curve" smooth="yes"/>
      <point x="193" y="176"/>
      <point x="166" y="198"/>
      <point x="166" y="253" type="curve" smooth="yes"/>
      <point x="166" y="310"/>
      <point x="196" y="331"/>
      <point x="240" y="331" type="curve" smooth="yes"/>
      <point x="296" y="331"/>
      <point x="330" y="316"/>
      <point x="415" y="227" type="curve" smooth="yes"/>
      <point x="539" y="98"/>
      <point x="611" y="58"/>
      <point x="712" y="58" type="curve" smooth="yes"/>
      <point x="839" y="58"/>
      <point x="934" y="109"/>
      <point x="934" y="296" type="curve" smooth="yes"/>
      <point x="934" y="483"/>
      <point x="836" y="534"/>
      <point x="734" y="534" type="curve" smooth="yes"/>
      <point x="662" y="533"/>
      <point x="608" y="523"/>
    </contour>
    <contour>
      <point x="28" y="296" type="curve" smooth="yes"/>
      <point x="28" y="109"/>
      <point x="124" y="58"/>
      <point x="226" y="58" type="curve" smooth="yes"/>
      <point x="327" y="58"/>
      <point x="363" y="82"/>
      <point x="531" y="262" type="curve" smooth="yes"/>
      <point x="666" y="408"/>
      <point x="697" y="416"/>
      <point x="733" y="416" type="curve" smooth="yes"/>
      <point x="777" y="416"/>
      <point x="796" y="390"/>
      <point x="796" y="339" type="curve" smooth="yes"/>
      <point x="796" y="289"/>
      <point x="775" y="261"/>
      <point x="720" y="261" type="curve" smooth="yes"/>
      <point x="666" y="262"/>
      <point x="622" y="283"/>
      <point x="555" y="358" type="curve" smooth="yes"/>
      <point x="407" y="521"/>
      <point x="318" y="534"/>
      <point x="228" y="534" type="curve" smooth="yes"/>
      <point x="126" y="534"/>
      <point x="28" y="483"/>
    </contour>
  </outline>
</glyph>
<glyph name="lozenge" format="2">
  <advance width="676"/>
  <unicode hex="25CA"/>
  <outline>
    <contour>
      <point x="285" y="660" type="line"/>
      <point x="447" y="330" type="line"/>
      <point x="629" y="330" type="line"/>
      <point x="439" y="660" type="line"/>
    </contour>
    <contour>
      <point x="46" y="330" type="line"/>
      <point x="237" y="0" type="line"/>
      <point x="391" y="0" type="line"/>
      <point x="229" y="330" type="line"/>
    </contour>
    <contour>
      <point x="447" y="330" type="line"/>
      <point x="285" y="0" type="line"/>
      <point x="439" y="0" type="line"/>
      <point x="629" y="330" type="line"/>
    </contour>
    <contour>
      <point x="237" y="660" type="line"/>
      <point x="46" y="330" type="line"/>
      <point x="229" y="330" type="line"/>
      <point x="391" y="660" type="line"/>
    </contour>
  </outline>
</glyph>
<glyph name="whiteCircle" format="2">
  <advance width="600"/>
  <unicode hex="25CB"/>
  <outline>
    <contour>
      <point x="571" y="250" type="curve" smooth="yes"/>
      <point x="571" y="398"/>
      <point x="455" y="510"/>
      <point x="300" y="510" type="curve" smooth="yes"/>
      <point x="145" y="510"/>
      <point x="29" y="398"/>
      <point x="29" y="250" type="curve" smooth="yes"/>
      <point x="29" y="102"/>
      <point x="145" y="-10"/>
      <point x="300" y="-10" type="curve" smooth="yes"/>
      <point x="455" y="-10"/>
      <point x="571" y="102"/>
    </contour>
    <contour>
      <point x="170" y="250" type="curve" smooth="yes"/>
      <point x="170" y="325"/>
      <point x="225" y="382"/>
      <point x="300" y="382" type="curve" smooth="yes"/>
      <point x="375" y="382"/>
      <point x="430" y="325"/>
      <point x="430" y="250" type="curve" smooth="yes"/>
      <point x="430" y="175"/>
      <point x="375" y="118"/>
      <point x="300" y="118" type="curve" smooth="yes"/>
      <point x="225" y="118"/>
      <point x="170" y="175"/>
    </contour>
  </outline>
</glyph>
<glyph name="heavyquoteleft" format="2">
  <advance width="689"/>
  <unicode hex="275B"/>
  <outline>
    <contour>
      <point x="56" y="277" type="curve" smooth="yes"/>
      <point x="56" y="113"/>
      <point x="148" y="-10"/>
      <point x="359" y="-10" type="curve" smooth="yes"/>
      <point x="532" y="-10"/>
      <point x="639" y="66"/>
      <point x="639" y="232" type="curve" smooth="yes"/>
      <point x="639" y="386"/>
      <point x="523" y="459"/>
      <point x="387" y="459" type="curve" smooth="yes"/>
      <point x="302" y="459"/>
      <point x="263" y="439"/>
      <point x="232" y="413" type="curve"/>
      <point x="225" y="417" type="line"/>
      <point x="267" y="496"/>
      <point x="361" y="547"/>
      <point x="622" y="547" type="curve"/>
      <point x="567" y="665" type="line"/>
      <point x="184" y="665"/>
      <point x="56" y="506"/>
    </contour>
  </outline>
</glyph>
<glyph name="Adieresis.titl" format="2">
  <advance width="684"/>
  <outline>
    <contour>
      <point x="708" y="578" type="curve" smooth="yes"/>
      <point x="708" y="631"/>
      <point x="673" y="662"/>
      <point x="612" y="662" type="curve" smooth="yes"/>
      <point x="553" y="662"/>
      <point x="519" y="631"/>
      <point x="519" y="578" type="curve" smooth="yes"/>
      <point x="519" y="525"/>
      <point x="553" y="494"/>
      <point x="612" y="494" type="curve" smooth="yes"/>
      <point x="673" y="494"/>
      <point x="708" y="525"/>
    </contour>
    <contour>
      <point x="164" y="578" type="curve" smooth="yes"/>
      <point x="164" y="631"/>
      <point x="129" y="662"/>
      <point x="68" y="662" type="curve" smooth="yes"/>
      <point x="9" y="662"/>
      <point x="-25" y="631"/>
      <point x="-25" y="578" type="curve" smooth="yes"/>
      <point x="-25" y="525"/>
      <point x="9" y="494"/>
      <point x="68" y="494" type="curve" smooth="yes"/>
      <point x="129" y="494"/>
      <point x="164" y="525"/>
    </contour>
    <contour>
      <point x="201" y="0" type="line"/>
      <point x="312" y="401" type="line"/>
      <point x="339" y="508" type="line"/>
      <point x="341" y="508" type="line"/>
      <point x="369" y="400" type="line"/>
      <point x="477" y="0" type="line"/>
      <point x="687" y="0" type="line"/>
      <point x="464" y="660" type="line"/>
      <point x="219" y="660" type="line"/>
      <point x="-3" y="0" type="line"/>
    </contour>
    <contour>
      <point x="529" y="137" type="line"/>
      <point x="529" y="269" type="line"/>
      <point x="156" y="269" type="line"/>
      <point x="156" y="137" type="line"/>
    </contour>
  </outline>
</glyph>
<glyph name="Aogonek_j" format="2">
  <advance width="982"/>
  <anchor x="581" y="0" name="bottomC"/>
  <anchor x="341" y="660" name="top"/>
  <anchor x="687" y="0" name="ogonek"/>
  <anchor x="341" y="0" name="bottom"/>
  <outline>
    <contour>
      <point x="935" y="-28" type="curve" smooth="yes"/>
      <point x="935" y="500" type="line"/>
      <point x="733" y="500" type="line"/>
      <point x="733" y="-23" type="line" smooth="yes"/>
      <point x="733" y="-63"/>
      <point x="723" y="-74"/>
      <point x="705" y="-74" type="curve" smooth="yes"/>
      <point x="693" y="-74"/>
      <point x="683" y="-72"/>
      <point x="676" y="-66" type="curve"/>
      <point x="649" y="-201" type="line"/>
      <point x="675" y="-212"/>
      <point x="695" y="-215"/>
      <point x="726" y="-215" type="curve" smooth="yes"/>
      <point x="831" y="-215"/>
      <point x="935" y="-185"/>
    </contour>
    <contour>
      <point x="612" y="-194" type="curve"/>
      <point x="628" y="-96" type="line"/>
      <point x="617" y="-104"/>
      <point x="606" y="-106"/>
      <point x="591" y="-106" type="curve" smooth="yes"/>
      <point x="564" y="-106"/>
      <point x="547" y="-92"/>
      <point x="547" y="-68" type="curve" smooth="yes"/>
      <point x="547" y="-33"/>
      <point x="589" y="-6"/>
      <point x="687" y="0" type="curve"/>
      <point x="589" y="31" type="line"/>
      <point x="489" y="22"/>
      <point x="412" y="-29"/>
      <point x="412" y="-117" type="curve" smooth="yes"/>
      <point x="412" y="-172"/>
      <point x="452" y="-215"/>
      <point x="531" y="-215" type="curve" smooth="yes"/>
      <point x="562" y="-215"/>
      <point x="593" y="-209"/>
    </contour>
    <contour>
      <point x="947" y="633" type="curve" smooth="yes"/>
      <point x="947" y="696"/>
      <point x="915" y="723"/>
      <point x="833" y="723" type="curve" smooth="yes"/>
      <point x="753" y="723"/>
      <point x="721" y="696"/>
      <point x="721" y="633" type="curve" smooth="yes"/>
      <point x="721" y="570"/>
      <point x="753" y="544"/>
      <point x="833" y="544" type="curve" smooth="yes"/>
      <point x="915" y="544"/>
      <point x="947" y="570"/>
    </contour>
    <component base="A"/>
  </outline>
</glyph>
<glyph name="E.swsh.001" format="2">
  <advance width="861"/>
  <anchor x="323" y="660" name="top"/>
  <anchor x="607" y="0" name="ogonek"/>
  <anchor x="331" y="0" name="bottom"/>
  <anchor x="331" y="0" name="bottomC"/>
  <outline>
    <contour>
      <point x="603" y="269" type="line"/>
      <point x="657" y="263"/>
      <point x="678" y="241"/>
      <point x="678" y="208" type="curve" smooth="yes"/>
      <point x="678" y="170"/>
      <point x="654" y="153"/>
      <point x="600" y="153" type="curve" smooth="yes"/>
      <point x="448" y="153" type="line"/>
      <point x="448" y="0" type="line"/>
      <point x="627" y="0" type="line" smooth="yes"/>
      <point x="763" y="0"/>
      <point x="851" y="56"/>
      <point x="851" y="201" type="curve" smooth="yes"/>
      <point x="851" y="299"/>
      <point x="794" y="371"/>
      <point x="668" y="390" type="curve"/>
    </contour>
    <contour>
      <point x="61" y="0" type="line"/>
      <point x="265" y="0" type="line"/>
      <point x="265" y="660" type="line"/>
      <point x="61" y="660" type="line"/>
    </contour>
    <contour>
      <point x="160" y="256" type="line"/>
      <point x="464" y="256" type="line"/>
      <point x="464" y="399" type="line"/>
      <point x="160" y="399" type="line"/>
    </contour>
    <contour>
      <point x="160" y="507" type="line"/>
      <point x="632" y="507" type="line"/>
      <point x="632" y="660" type="line"/>
      <point x="160" y="660" type="line"/>
    </contour>
    <contour>
      <point x="160" y="0" type="line"/>
      <point x="555" y="0" type="line"/>
      <point x="555" y="153" type="line"/>
      <point x="160" y="153" type="line"/>
    </contour>
  </outline>
</glyph>
<glyph name="Euro.tf" format="2">
  <advance width="604"/>
  <outline>
    <contour>
      <point x="12" y="290" type="line"/>
      <point x="12" y="207" type="line"/>
      <point x="355" y="207" type="line"/>
      <point x="373" y="290" type="line"/>
    </contour>
    <contour>
      <point x="12" y="423" type="line"/>
      <point x="12" y="341" type="line"/>
      <point x="385" y="341" type="line"/>
      <point x="403" y="423" type="line"/>
    </contour>
    <component base="euro.part.tf" xOffset="-8"/>
  </outline>
</glyph>
<glyph name="IJ.ss05" format="2">
  <advance width="673"/>
  <outline>
    <contour>
      <point x="61" y="660" type="line"/>
      <point x="61" y="291" type="line"/>
      <point x="265" y="291" type="line"/>
      <point x="265" y="660" type="line"/>
    </contour>
    <contour>
      <point x="421" y="660" type="line"/>
      <point x="421" y="261" type="line" smooth="yes"/>
      <point x="421" y="181"/>
      <point x="395" y="146"/>
      <point x="341" y="146" type="curve" smooth="yes"/>
      <point x="284" y="146"/>
      <point x="259" y="175"/>
      <point x="266" y="237" type="curve"/>
      <point x="62" y="237" type="line"/>
      <point x="42" y="73"/>
      <point x="149" y="-10"/>
      <point x="336" y="-10" type="curve" smooth="yes"/>
      <point x="515" y="-10"/>
      <point x="626" y="92"/>
      <point x="626" y="263" type="curve" smooth="yes"/>
      <point x="626" y="660" type="line"/>
    </contour>
  </outline>
</glyph>
<glyph name="L.swsh" format="2">
  <advance width="719"/>
  <anchor x="416" y="360" name="center"/>
  <anchor x="367" y="0" name="bottom"/>
  <anchor x="163" y="660" name="top"/>
  <anchor x="323" y="0" name="bottomC"/>
  <anchor x="372" y="701" name="topright"/>
  <anchor x="453" y="0" name="ogonek"/>
  <outline>
    <contour>
      <point x="453" y="0" type="line" smooth="yes"/>
      <point x="621" y="0"/>
      <point x="709" y="77"/>
      <point x="709" y="216" type="curve" smooth="yes"/>
      <point x="709" y="301"/>
      <point x="673" y="417"/>
      <point x="511" y="421" type="curve"/>
      <point x="454" y="295" type="line"/>
      <point x="512" y="293"/>
      <point x="536" y="262"/>
      <point x="536" y="219" type="curve" smooth="yes"/>
      <point x="536" y="180"/>
      <point x="510" y="153"/>
      <point x="450" y="153" type="curve" smooth="yes"/>
      <point x="320" y="153" type="line"/>
      <point x="320" y="0" type="line"/>
    </contour>
    <contour>
      <point x="361" y="0" type="line"/>
      <point x="395" y="153" type="line"/>
      <point x="160" y="153" type="line"/>
      <point x="160" y="0" type="line"/>
    </contour>
    <contour>
      <point x="265" y="0" type="line"/>
      <point x="265" y="660" type="line"/>
      <point x="61" y="660" type="line"/>
      <point x="61" y="0" type="line"/>
    </contour>
  </outline>
</glyph>
<glyph name="Lslash.swsh" format="2">
  <advance width="765"/>
  <anchor x="462" y="360" name="center"/>
  <anchor x="414" y="0" name="bottom"/>
  <anchor x="209" y="660" name="top"/>
  <anchor x="414" y="0" name="bottomC"/>
  <anchor x="418" y="701" name="topright"/>
  <anchor x="499" y="0" name="ogonek"/>
  <outline>
    <contour>
      <point x="-5" y="295" type="line"/>
      <point x="-5" y="155" type="line"/>
      <point x="480" y="377" type="line"/>
      <point x="480" y="517" type="line"/>
    </contour>
    <component base="L.swsh" xOffset="46"/>
  </outline>
</glyph>
<glyph name="M.swsh" format="2">
  <advance width="1188"/>
  <anchor x="723" y="660" name="top"/>
  <anchor x="1128" y="0" name="ogonek"/>
  <anchor x="723" y="0" name="bottom"/>
  <anchor x="742" y="0" name="bottomC"/>
  <outline>
    <contour>
      <point x="805" y="0" type="line"/>
      <point x="950" y="477" type="line"/>
      <point x="952" y="477" type="line"/>
      <point x="948" y="264" type="line"/>
      <point x="948" y="0" type="line"/>
      <point x="1128" y="0" type="line"/>
      <point x="1128" y="660" type="line"/>
      <point x="853" y="660" type="line"/>
      <point x="764" y="347" type="line"/>
      <point x="731" y="216" type="line"/>
      <point x="729" y="216" type="line"/>
      <point x="696" y="347" type="line"/>
      <point x="607" y="660" type="line"/>
      <point x="319" y="660" type="line"/>
      <point x="319" y="193" type="line"/>
      <point x="499" y="193" type="line"/>
      <point x="499" y="264" type="line"/>
      <point x="495" y="477" type="line"/>
      <point x="498" y="477" type="line"/>
      <point x="641" y="0" type="line"/>
    </contour>
    <contour>
      <point x="273" y="363" type="line"/>
      <point x="221" y="367"/>
      <point x="191" y="400"/>
      <point x="191" y="441" type="curve" smooth="yes"/>
      <point x="191" y="482"/>
      <point x="215" y="513"/>
      <point x="269" y="513" type="curve" smooth="yes"/>
      <point x="509" y="513" type="line"/>
      <point x="509" y="660" type="line"/>
      <point x="266" y="660" type="line" smooth="yes"/>
      <point x="98" y="660"/>
      <point x="10" y="581"/>
      <point x="10" y="444" type="curve" smooth="yes"/>
      <point x="10" y="314"/>
      <point x="95" y="234"/>
      <point x="216" y="229" type="curve"/>
    </contour>
    <component base="swash_bttmleft" xOffset="75"/>
  </outline>
</glyph>
<glyph name="Odieresis.titl.001" format="2">
  <advance width="733"/>
  <outline>
    <contour>
      <point x="36" y="330" type="curve" smooth="yes"/>
      <point x="36" y="115"/>
      <point x="162" y="-10"/>
      <point x="367" y="-10" type="curve" smooth="yes"/>
      <point x="573" y="-10"/>
      <point x="696" y="115"/>
      <point x="696" y="330" type="curve" smooth="yes"/>
      <point x="696" y="545"/>
      <point x="573" y="670"/>
      <point x="367" y="670" type="curve" smooth="yes"/>
      <point x="162" y="670"/>
      <point x="36" y="545"/>
    </contour>
    <contour>
      <point x="487" y="330" type="curve" smooth="yes"/>
      <point x="487" y="205"/>
      <point x="448" y="146"/>
      <point x="367" y="146" type="curve" smooth="yes"/>
      <point x="286" y="146"/>
      <point x="246" y="205"/>
      <point x="246" y="330" type="curve" smooth="yes"/>
      <point x="246" y="455"/>
      <point x="286" y="514"/>
      <point x="367" y="514" type="curve" smooth="yes"/>
      <point x="448" y="514"/>
      <point x="487" y="455"/>
    </contour>
    <contour>
      <point x="683" y="601" type="curve" smooth="yes"/>
      <point x="683" y="644"/>
      <point x="654" y="670"/>
      <point x="604" y="670" type="curve" smooth="yes"/>
      <point x="578" y="670"/>
      <point x="558" y="662"/>
      <point x="546" y="648" type="curve"/>
      <point x="588" y="625"/>
      <point x="631" y="590"/>
      <point x="657" y="546" type="curve"/>
      <point x="674" y="559"/>
      <point x="683" y="578"/>
    </contour>
    <contour>
      <point x="128" y="670" type="curve" smooth="yes"/>
      <point x="81" y="670"/>
      <point x="53" y="644"/>
      <point x="53" y="601" type="curve" smooth="yes"/>
      <point x="53" y="578"/>
      <point x="61" y="560"/>
      <point x="77" y="548" type="curve"/>
      <point x="103" y="589"/>
      <point x="142" y="624"/>
      <point x="188" y="648" type="curve"/>
      <point x="175" y="662"/>
      <point x="154" y="670"/>
    </contour>
  </outline>
</glyph>
<glyph name="Odieresis.titl" format="2">
  <advance width="733"/>
  <outline>
    <contour>
      <point x="124" y="587" type="curve" smooth="yes"/>
      <point x="124" y="550"/>
      <point x="150" y="527"/>
      <point x="192" y="527" type="curve" smooth="yes"/>
      <point x="235" y="527"/>
      <point x="261" y="550"/>
      <point x="261" y="587" type="curve" smooth="yes"/>
      <point x="261" y="626"/>
      <point x="235" y="649"/>
      <point x="192" y="649" type="curve" smooth="yes"/>
      <point x="150" y="649"/>
      <point x="124" y="626"/>
    </contour>
    <contour>
      <point x="475" y="589" type="curve" smooth="yes"/>
      <point x="475" y="550"/>
      <point x="500" y="527"/>
      <point x="542" y="527" type="curve" smooth="yes"/>
      <point x="585" y="527"/>
      <point x="611" y="550"/>
      <point x="611" y="589" type="curve" smooth="yes"/>
      <point x="611" y="627"/>
      <point x="585" y="649"/>
      <point x="542" y="649" type="curve" smooth="yes"/>
      <point x="500" y="649"/>
      <point x="475" y="627"/>
    </contour>
    <contour>
      <point x="36" y="330" type="curve" smooth="yes"/>
      <point x="36" y="115"/>
      <point x="162" y="-10"/>
      <point x="367" y="-10" type="curve" smooth="yes"/>
      <point x="573" y="-10"/>
      <point x="696" y="115"/>
      <point x="696" y="330" type="curve" smooth="yes"/>
      <point x="696" y="545"/>
      <point x="573" y="670"/>
      <point x="367" y="670" type="curve" smooth="yes"/>
      <point x="162" y="670"/>
      <point x="36" y="545"/>
    </contour>
    <contour>
      <point x="487" y="330" type="curve" smooth="yes"/>
      <point x="487" y="205"/>
      <point x="448" y="146"/>
      <point x="367" y="146" type="curve" smooth="yes"/>
      <point x="286" y="146"/>
      <point x="246" y="205"/>
      <point x="246" y="330" type="curve" smooth="yes"/>
      <point x="246" y="455"/>
      <point x="286" y="514"/>
      <point x="367" y="514" type="curve" smooth="yes"/>
      <point x="448" y="514"/>
      <point x="487" y="455"/>
    </contour>
  </outline>
</glyph>
<glyph name="Osuperior" format="2">
  <advance width="473"/>
  <outline>
    <contour>
      <point x="24" y="531" type="curve" smooth="yes"/>
      <point x="24" y="402"/>
      <point x="107" y="327"/>
      <point x="237" y="327" type="curve" smooth="yes"/>
      <point x="366" y="327"/>
      <point x="450" y="402"/>
      <point x="450" y="531" type="curve" smooth="yes"/>
      <point x="450" y="660"/>
      <point x="366" y="735"/>
      <point x="237" y="735" type="curve" smooth="yes"/>
      <point x="107" y="735"/>
      <point x="24" y="660"/>
    </contour>
    <contour>
      <point x="307" y="531" type="curve" smooth="yes"/>
      <point x="307" y="458"/>
      <point x="284" y="426"/>
      <point x="237" y="426" type="curve" smooth="yes"/>
      <point x="190" y="426"/>
      <point x="167" y="458"/>
      <point x="167" y="531" type="curve" smooth="yes"/>
      <point x="167" y="604"/>
      <point x="190" y="636"/>
      <point x="237" y="636" type="curve" smooth="yes"/>
      <point x="284" y="636"/>
      <point x="307" y="604"/>
    </contour>
  </outline>
</glyph>
<glyph name="R.ss03" format="2">
  <advance width="696"/>
  <anchor x="332" y="660" name="top"/>
  <anchor x="667" y="0" name="ogonek"/>
  <anchor x="363" y="0" name="bottom"/>
  <anchor x="568" y="0" name="bottomC"/>
  <outline>
    <contour>
      <point x="261" y="0" type="line"/>
      <point x="261" y="229" type="line"/>
      <point x="330" y="229" type="line" smooth="yes"/>
      <point x="389" y="229"/>
      <point x="418" y="209"/>
      <point x="427" y="154" type="curve" smooth="yes"/>
      <point x="440" y="83"/>
      <point x="438" y="39"/>
      <point x="454" y="0" type="curve"/>
      <point x="667" y="0" type="line"/>
      <point x="667" y="5" type="line"/>
      <point x="646" y="43"/>
      <point x="640" y="89"/>
      <point x="628" y="173" type="curve" smooth="yes"/>
      <point x="620" y="221"/>
      <point x="598" y="264"/>
      <point x="531" y="281" type="curve"/>
      <point x="531" y="283" type="line"/>
      <point x="603" y="304"/>
      <point x="657" y="350"/>
      <point x="657" y="452" type="curve" smooth="yes"/>
      <point x="657" y="586"/>
      <point x="567" y="660"/>
      <point x="399" y="660" type="curve" smooth="yes"/>
      <point x="61" y="660" type="line"/>
      <point x="61" y="0" type="line"/>
    </contour>
    <contour>
      <point x="261" y="511" type="line"/>
      <point x="360" y="511" type="line" smooth="yes"/>
      <point x="426" y="511"/>
      <point x="452" y="490"/>
      <point x="452" y="439" type="curve" smooth="yes"/>
      <point x="452" y="388"/>
      <point x="426" y="368"/>
      <point x="360" y="368" type="curve" smooth="yes"/>
      <point x="261" y="368" type="line"/>
    </contour>
  </outline>
</glyph>
<glyph name="R.swsh.001" format="2">
  <advance width="763"/>
  <anchor x="332" y="660" name="top"/>
  <anchor x="651" y="-99" name="ogonek"/>
  <anchor x="363" y="0" name="bottom"/>
  <anchor x="664" y="-79" name="bottomC"/>
  <outline>
    <contour>
      <point x="399" y="229" type="line" smooth="yes"/>
      <point x="567" y="229"/>
      <point x="657" y="303"/>
      <point x="657" y="444" type="curve" smooth="yes"/>
      <point x="657" y="586"/>
      <point x="567" y="660"/>
      <point x="399" y="660" type="curve" smooth="yes"/>
      <point x="197" y="660" type="line"/>
      <point x="197" y="511" type="line"/>
      <point x="360" y="511" type="line" smooth="yes"/>
      <point x="426" y="511"/>
      <point x="452" y="490"/>
      <point x="452" y="439" type="curve" smooth="yes"/>
      <point x="452" y="388"/>
      <point x="426" y="368"/>
      <point x="360" y="368" type="curve" smooth="yes"/>
      <point x="197" y="368" type="line"/>
      <point x="197" y="229" type="line"/>
    </contour>
    <contour>
      <point x="261" y="0" type="line"/>
      <point x="261" y="660" type="line"/>
      <point x="61" y="660" type="line"/>
      <point x="61" y="0" type="line"/>
    </contour>
    <contour>
      <point x="763" y="14" type="line"/>
      <point x="706" y="23"/>
      <point x="656" y="59"/>
      <point x="604" y="127" type="curve" smooth="yes"/>
      <point x="455" y="325" type="line"/>
      <point x="282" y="289" type="line"/>
      <point x="477" y="9" type="line" smooth="yes"/>
      <point x="516" y="-46"/>
      <point x="567" y="-88"/>
      <point x="651" y="-99" type="curve"/>
    </contour>
  </outline>
</glyph>
<glyph name="R.swsh" format="2">
  <advance width="956"/>
  <anchor x="590" y="660" name="top"/>
  <anchor x="953" y="0" name="ogonek"/>
  <anchor x="621" y="0" name="bottom"/>
  <anchor x="851" y="0" name="bottomC"/>
  <outline>
    <contour>
      <point x="657" y="229" type="line" smooth="yes"/>
      <point x="825" y="229"/>
      <point x="915" y="303"/>
      <point x="915" y="444" type="curve" smooth="yes"/>
      <point x="915" y="586"/>
      <point x="825" y="660"/>
      <point x="657" y="660" type="curve" smooth="yes"/>
      <point x="455" y="660" type="line"/>
      <point x="455" y="511" type="line"/>
      <point x="618" y="511" type="line" smooth="yes"/>
      <point x="684" y="511"/>
      <point x="710" y="490"/>
      <point x="710" y="439" type="curve" smooth="yes"/>
      <point x="710" y="388"/>
      <point x="684" y="368"/>
      <point x="618" y="368" type="curve" smooth="yes"/>
      <point x="455" y="368" type="line"/>
      <point x="455" y="229" type="line"/>
    </contour>
    <contour>
      <point x="519" y="134" type="curve" smooth="yes"/>
      <point x="519" y="210" type="line"/>
      <point x="319" y="210" type="line"/>
      <point x="319" y="127" type="line" smooth="yes"/>
      <point x="319" y="73"/>
      <point x="286" y="38"/>
      <point x="236" y="38" type="curve" smooth="yes"/>
      <point x="184" y="38"/>
      <point x="152" y="58"/>
      <point x="127" y="108" type="curve"/>
      <point x="54" y="-10" type="line"/>
      <point x="94" y="-78"/>
      <point x="164" y="-110"/>
      <point x="265" y="-110" type="curve" smooth="yes"/>
      <point x="416" y="-110"/>
      <point x="519" y="-44"/>
    </contour>
    <contour>
      <point x="519" y="200" type="line"/>
      <point x="519" y="660" type="line"/>
      <point x="319" y="660" type="line"/>
      <point x="319" y="200" type="line"/>
    </contour>
    <contour>
      <point x="953" y="0" type="line"/>
      <point x="745" y="325" type="line"/>
      <point x="569" y="289" type="line"/>
      <point x="730" y="0" type="line"/>
    </contour>
    <component base="__swash_topleft" xOffset="-8"/>
  </outline>
</glyph>
<glyph name="W.swsh" format="2">
  <advance width="1319"/>
  <anchor x="814" y="660" name="top"/>
  <anchor x="1129" y="0" name="ogonek"/>
  <anchor x="814" y="0" name="bottom"/>
  <anchor x="1020" y="0" name="bottomC"/>
  <outline>
    <contour>
      <point x="276" y="363" type="line"/>
      <point x="218" y="367"/>
      <point x="191" y="400"/>
      <point x="191" y="441" type="curve" smooth="yes"/>
      <point x="191" y="482"/>
      <point x="213" y="513"/>
      <point x="273" y="513" type="curve" smooth="yes"/>
      <point x="438" y="513" type="line"/>
      <point x="438" y="660" type="line"/>
      <point x="266" y="660" type="line" smooth="yes"/>
      <point x="98" y="660"/>
      <point x="10" y="581"/>
      <point x="10" y="444" type="curve" smooth="yes"/>
      <point x="10" y="316"/>
      <point x="95" y="231"/>
      <point x="216" y="229" type="curve"/>
    </contour>
    <component base="W" xOffset="309"/>
  </outline>
</glyph>
<glyph name="Ydieresis.titl" format="2">
  <advance width="687"/>
  <outline>
    <contour>
      <point x="546" y="757" type="curve" smooth="yes"/>
      <point x="546" y="810"/>
      <point x="511" y="841"/>
      <point x="450" y="841" type="curve" smooth="yes"/>
      <point x="391" y="841"/>
      <point x="357" y="810"/>
      <point x="357" y="757" type="curve" smooth="yes"/>
      <point x="357" y="703"/>
      <point x="391" y="672"/>
      <point x="450" y="672" type="curve" smooth="yes"/>
      <point x="511" y="672"/>
      <point x="546" y="703"/>
    </contour>
    <contour>
      <point x="329" y="757" type="curve" smooth="yes"/>
      <point x="329" y="810"/>
      <point x="294" y="841"/>
      <point x="233" y="841" type="curve" smooth="yes"/>
      <point x="174" y="841"/>
      <point x="140" y="810"/>
      <point x="140" y="757" type="curve" smooth="yes"/>
      <point x="140" y="703"/>
      <point x="174" y="672"/>
      <point x="233" y="672" type="curve" smooth="yes"/>
      <point x="294" y="672"/>
      <point x="329" y="703"/>
    </contour>
    <contour>
      <point x="474" y="660" type="line"/>
      <point x="393" y="495" type="line"/>
      <point x="345" y="380" type="line"/>
      <point x="296" y="495" type="line"/>
      <point x="216" y="660" type="line"/>
      <point x="9" y="660" type="line"/>
      <point x="241" y="234" type="line"/>
      <point x="241" y="0" type="line"/>
      <point x="446" y="0" type="line"/>
      <point x="446" y="234" type="line"/>
      <point x="677" y="660" type="line"/>
    </contour>
  </outline>
</glyph>
<glyph name="a.sc" format="2">
  <advance width="641"/>
  <anchor x="321" y="560" name="top"/>
  <anchor x="640" y="0" name="ogonek"/>
  <anchor x="321" y="0" name="bottom"/>
  <anchor x="552" y="0" name="bottomC"/>
  <outline>
    <contour>
      <point x="190" y="0" type="line"/>
      <point x="255" y="212" type="line"/>
      <point x="314" y="417" type="line"/>
      <point x="318" y="417" type="line"/>
      <point x="378" y="212" type="line"/>
      <point x="442" y="0" type="line"/>
      <point x="640" y="0" type="line"/>
      <point x="442" y="560" type="line"/>
      <point x="200" y="560" type="line"/>
      <point x="1" y="0" type="line"/>
    </contour>
    <contour>
      <point x="491" y="103" type="line"/>
      <point x="491" y="233" type="line"/>
      <point x="150" y="233" type="line"/>
      <point x="150" y="103" type="line"/>
    </contour>
  </outline>
</glyph>
<glyph name="acutecmb.cap" format="2">
  <anchor x="0" y="660" name="_top"/>
  <outline>
    <contour>
      <point x="-82" y="715" type="line"/>
      <point x="62" y="715" type="line"/>
      <point x="153" y="881" type="line"/>
      <point x="-23" y="881" type="line"/>
    </contour>
  </outline>
</glyph>
<glyph name="adieresis.titl.sc" format="2">
  <advance width="641"/>
  <outline>
    <contour>
      <point x="291" y="657" type="curve" smooth="yes"/>
      <point x="291" y="709"/>
      <point x="256" y="740"/>
      <point x="195" y="740" type="curve" smooth="yes"/>
      <point x="137" y="740"/>
      <point x="103" y="709"/>
      <point x="103" y="657" type="curve" smooth="yes"/>
      <point x="103" y="604"/>
      <point x="137" y="573"/>
      <point x="195" y="573" type="curve" smooth="yes"/>
      <point x="256" y="573"/>
      <point x="291" y="604"/>
    </contour>
    <contour>
      <point x="540" y="657" type="curve" smooth="yes"/>
      <point x="540" y="709"/>
      <point x="505" y="740"/>
      <point x="445" y="740" type="curve" smooth="yes"/>
      <point x="386" y="740"/>
      <point x="352" y="709"/>
      <point x="352" y="657" type="curve" smooth="yes"/>
      <point x="352" y="604"/>
      <point x="386" y="573"/>
      <point x="445" y="573" type="curve" smooth="yes"/>
      <point x="505" y="573"/>
      <point x="540" y="604"/>
    </contour>
    <contour>
      <point x="191" y="0" type="line"/>
      <point x="256" y="212" type="line"/>
      <point x="315" y="417" type="line"/>
      <point x="319" y="417" type="line"/>
      <point x="379" y="212" type="line"/>
      <point x="442" y="0" type="line"/>
      <point x="641" y="0" type="line"/>
      <point x="443" y="560" type="line"/>
      <point x="200" y="560" type="line"/>
      <point x="2" y="0" type="line"/>
    </contour>
    <contour>
      <point x="492" y="103" type="line"/>
      <point x="492" y="233" type="line"/>
      <point x="150" y="233" type="line"/>
      <point x="150" y="103" type="line"/>
    </contour>
  </outline>
</glyph>
<glyph name="b.sc" format="2">
  <advance width="639"/>
  <anchor x="301" y="560" name="top"/>
  <anchor x="392" y="0" name="ogonek"/>
  <anchor x="301" y="0" name="bottom"/>
  <anchor x="315" y="0" name="bottomC"/>
  <outline>
    <contour>
      <point x="407" y="0" type="line" smooth="yes"/>
      <point x="544" y="0"/>
      <point x="611" y="51"/>
      <point x="611" y="148" type="curve" smooth="yes"/>
      <point x="611" y="220"/>
      <point x="568" y="268"/>
      <point x="477" y="278" type="curve"/>
      <point x="477" y="281" type="line"/>
      <point x="557" y="295"/>
      <point x="596" y="344"/>
      <point x="596" y="410" type="curve" smooth="yes"/>
      <point x="596" y="509"/>
      <point x="529" y="559"/>
      <point x="389" y="560" type="curve" smooth="yes"/>
      <point x="61" y="560" type="line"/>
      <point x="61" y="0" type="line"/>
    </contour>
    <contour>
      <point x="249" y="222" type="line"/>
      <point x="356" y="222" type="line" smooth="yes"/>
      <point x="390" y="222"/>
      <point x="412" y="208"/>
      <point x="412" y="173" type="curve" smooth="yes"/>
      <point x="412" y="140"/>
      <point x="390" y="125"/>
      <point x="356" y="125" type="curve" smooth="yes"/>
      <point x="249" y="125" type="line"/>
    </contour>
    <contour>
      <point x="249" y="435" type="line"/>
      <point x="335" y="435" type="line" smooth="yes"/>
      <point x="379" y="435"/>
      <point x="397" y="420"/>
      <point x="397" y="387" type="curve" smooth="yes"/>
      <point x="397" y="354"/>
      <point x="379" y="339"/>
      <point x="335" y="339" type="curve" smooth="yes"/>
      <point x="249" y="339" type="line"/>
    </contour>
  </outline>
</glyph>
<glyph name="blackCircle.case" format="2">
  <advance width="813"/>
  <outline>
    <contour>
      <point x="746" y="330" type="curve" smooth="yes"/>
      <point x="746" y="524"/>
      <point x="600" y="670"/>
      <point x="406" y="670" type="curve" smooth="yes"/>
      <point x="212" y="670"/>
      <point x="66" y="524"/>
      <point x="66" y="330" type="curve" smooth="yes"/>
      <point x="66" y="136"/>
      <point x="212" y="-10"/>
      <point x="406" y="-10" type="curve" smooth="yes"/>
      <point x="600" y="-10"/>
      <point x="746" y="136"/>
    </contour>
  </outline>
</glyph>
<glyph name="braceleft.case" format="2">
  <advance width="445"/>
  <outline>
    <contour>
      <point x="158" y="592" type="curve" smooth="yes"/>
      <point x="158" y="495" type="line" smooth="yes"/>
      <point x="158" y="420"/>
      <point x="127" y="391"/>
      <point x="46" y="391" type="curve"/>
      <point x="46" y="310" type="line"/>
      <point x="217" y="310"/>
      <point x="316" y="337"/>
      <point x="316" y="449" type="curve" smooth="yes"/>
      <point x="316" y="563" type="line" smooth="yes"/>
      <point x="316" y="628"/>
      <point x="349" y="654"/>
      <point x="426" y="654" type="curve"/>
      <point x="424" y="778" type="line"/>
      <point x="232" y="778"/>
      <point x="158" y="730"/>
    </contour>
    <contour>
      <point x="46" y="267" type="line"/>
      <point x="127" y="267"/>
      <point x="158" y="238"/>
      <point x="158" y="163" type="curve" smooth="yes"/>
      <point x="158" y="67" type="line" smooth="yes"/>
      <point x="158" y="-72"/>
      <point x="232" y="-120"/>
      <point x="424" y="-120" type="curve"/>
      <point x="426" y="4" type="line"/>
      <point x="349" y="4"/>
      <point x="316" y="31"/>
      <point x="316" y="96" type="curve" smooth="yes"/>
      <point x="316" y="209" type="line" smooth="yes"/>
      <point x="316" y="322"/>
      <point x="217" y="348"/>
      <point x="46" y="348" type="curve"/>
    </contour>
  </outline>
</glyph>
<glyph name="bracketleftsuperior" format="2">
  <advance width="270"/>
  <outline>
    <contour>
      <point x="166" y="810" type="line"/>
      <point x="50" y="810" type="line"/>
      <point x="50" y="253" type="line"/>
      <point x="166" y="253" type="line"/>
    </contour>
    <contour>
      <point x="114" y="716" type="line"/>
      <point x="253" y="716" type="line"/>
      <point x="253" y="810" type="line"/>
      <point x="114" y="810" type="line"/>
    </contour>
    <contour>
      <point x="114" y="253" type="line"/>
      <point x="253" y="253" type="line"/>
      <point x="253" y="347" type="line"/>
      <point x="114" y="347" type="line"/>
    </contour>
  </outline>
</glyph>
<glyph name="c.sc" format="2">
  <advance width="605"/>
  <anchor x="337" y="560" name="top"/>
  <anchor x="406" y="0" name="ogonek"/>
  <anchor x="337" y="0" name="bottom"/>
  <anchor x="335" y="0" name="bottomC"/>
  <outline>
    <contour>
      <point x="417" y="221" type="line"/>
      <point x="413" y="167"/>
      <point x="384" y="143"/>
      <point x="334" y="143" type="curve" smooth="yes"/>
      <point x="270" y="143"/>
      <point x="235" y="184"/>
      <point x="235" y="280" type="curve" smooth="yes"/>
      <point x="235" y="376"/>
      <point x="272" y="417"/>
      <point x="331" y="417" type="curve" smooth="yes"/>
      <point x="371" y="417"/>
      <point x="407" y="399"/>
      <point x="411" y="336" type="curve"/>
      <point x="591" y="385" type="line"/>
      <point x="573" y="505"/>
      <point x="461" y="568"/>
      <point x="332" y="568" type="curve" smooth="yes"/>
      <point x="143" y="568"/>
      <point x="32" y="465"/>
      <point x="32" y="280" type="curve" smooth="yes"/>
      <point x="32" y="96"/>
      <point x="141" y="-8"/>
      <point x="326" y="-8" type="curve" smooth="yes"/>
      <point x="483" y="-8"/>
      <point x="580" y="68"/>
      <point x="594" y="174" type="curve"/>
    </contour>
  </outline>
</glyph>
<glyph name="c_t" format="2">
  <advance width="967"/>
  <outline>
    <contour>
      <point x="551" y="145" type="curve"/>
      <point x="370" y="202" type="line"/>
      <point x="363" y="155"/>
      <point x="344" y="129"/>
      <point x="307" y="129" type="curve" smooth="yes"/>
      <point x="261" y="129"/>
      <point x="231" y="155"/>
      <point x="231" y="248" type="curve" smooth="yes"/>
      <point x="231" y="337"/>
      <point x="256" y="371"/>
      <point x="308" y="371" type="curve" smooth="yes"/>
      <point x="343" y="371"/>
      <point x="362" y="345"/>
      <point x="365" y="290" type="curve"/>
      <point x="551" y="347" type="line"/>
      <point x="526" y="405"/>
      <point x="508" y="460"/>
      <point x="508" y="508" type="curve" smooth="yes"/>
      <point x="508" y="567"/>
      <point x="532" y="583"/>
      <point x="560" y="583" type="curve" smooth="yes"/>
      <point x="588" y="583"/>
      <point x="615" y="562"/>
      <point x="615" y="501" type="curve" smooth="yes"/>
      <point x="615" y="160" type="line" smooth="yes"/>
      <point x="615" y="36"/>
      <point x="687" y="-10"/>
      <point x="815" y="-10" type="curve" smooth="yes"/>
      <point x="866" y="-10"/>
      <point x="927" y="4"/>
      <point x="960" y="26" type="curve"/>
      <point x="947" y="144" type="line"/>
      <point x="928" y="133"/>
      <point x="908" y="127"/>
      <point x="880" y="127" type="curve" smooth="yes"/>
      <point x="838" y="127"/>
      <point x="817" y="145"/>
      <point x="817" y="192" type="curve" smooth="yes"/>
      <point x="817" y="530" type="line" smooth="yes"/>
      <point x="817" y="670"/>
      <point x="690" y="722"/>
      <point x="579" y="722" type="curve" smooth="yes"/>
      <point x="448" y="722"/>
      <point x="363" y="659"/>
      <point x="363" y="551" type="curve" smooth="yes"/>
      <point x="363" y="497"/>
      <point x="389" y="468"/>
      <point x="414" y="456" type="curve"/>
      <point x="403" y="494" type="line"/>
      <point x="357" y="506"/>
      <point x="330" y="510"/>
      <point x="298" y="510" type="curve" smooth="yes"/>
      <point x="127" y="510"/>
      <point x="28" y="415"/>
      <point x="28" y="250" type="curve" smooth="yes"/>
      <point x="28" y="85"/>
      <point x="125" y="-10"/>
      <point x="308" y="-10" type="curve" smooth="yes"/>
      <point x="460" y="-10"/>
      <point x="545" y="60"/>
    </contour>
    <contour>
      <point x="954" y="361" type="line"/>
      <point x="954" y="500" type="line"/>
      <point x="694" y="500" type="line"/>
      <point x="694" y="361" type="line"/>
    </contour>
  </outline>
</glyph>
<glyph name="cent.001" format="2">
  <advance width="578"/>
  <outline>
    <contour>
      <point x="36" y="250" type="curve" smooth="yes"/>
      <point x="36" y="85"/>
      <point x="133" y="-10"/>
      <point x="315" y="-10" type="curve" smooth="yes"/>
      <point x="463" y="-10"/>
      <point x="550" y="54"/>
      <point x="557" y="146" type="curve"/>
      <point x="396" y="188" type="line"/>
      <point x="389" y="142"/>
      <point x="359" y="118"/>
      <point x="313" y="118" type="curve" smooth="yes"/>
      <point x="258" y="118"/>
      <point x="222" y="150"/>
      <point x="222" y="248" type="curve" smooth="yes"/>
      <point x="222" y="344"/>
      <point x="253" y="382"/>
      <point x="315" y="382" type="curve" smooth="yes"/>
      <point x="358" y="382"/>
      <point x="385" y="355"/>
      <point x="391" y="304" type="curve"/>
      <point x="557" y="345" type="line"/>
      <point x="547" y="431"/>
      <point x="483" y="510"/>
      <point x="307" y="510" type="curve" smooth="yes"/>
      <point x="135" y="510"/>
      <point x="36" y="415"/>
    </contour>
    <contour>
      <point x="238" y="52" type="line"/>
      <point x="238" y="-110" type="line"/>
      <point x="370" y="-110" type="line"/>
      <point x="370" y="52" type="line"/>
    </contour>
    <contour>
      <point x="238" y="610" type="line"/>
      <point x="238" y="447" type="line"/>
      <point x="370" y="447" type="line"/>
      <point x="370" y="610" type="line"/>
    </contour>
  </outline>
</glyph>
<glyph name="d.sc" format="2">
  <advance width="664"/>
  <anchor x="303" y="0" name="bottom"/>
  <anchor x="303" y="560" name="top"/>
  <anchor x="330" y="0" name="ogonek"/>
  <anchor x="123" y="93" name="center"/>
  <anchor x="307" y="0" name="bottomC"/>
  <outline>
    <contour>
      <point x="192" y="560" type="line"/>
      <point x="192" y="413" type="line"/>
      <point x="328" y="413" type="line" smooth="yes"/>
      <point x="396" y="413"/>
      <point x="420" y="368"/>
      <point x="420" y="280" type="curve" smooth="yes"/>
      <point x="420" y="192"/>
      <point x="396" y="147"/>
      <point x="328" y="147" type="curve" smooth="yes"/>
      <point x="193" y="147" type="line"/>
      <point x="193" y="0" type="line"/>
      <point x="330" y="0" type="line" smooth="yes"/>
      <point x="518" y="0"/>
      <point x="623" y="103"/>
      <point x="623" y="280" type="curve" smooth="yes"/>
      <point x="623" y="457"/>
      <point x="518" y="560"/>
      <point x="330" y="560" type="curve" smooth="yes"/>
    </contour>
    <contour>
      <point x="61" y="560" type="line"/>
      <point x="61" y="0" type="line"/>
      <point x="259" y="0" type="line"/>
      <point x="259" y="560" type="line"/>
    </contour>
  </outline>
</glyph>
<glyph name="daggerdblsuperior" format="2">
  <advance width="508"/>
  <outline>
    <contour>
      <point x="35" y="606" type="line"/>
      <point x="35" y="502" type="line"/>
      <point x="474" y="502" type="line"/>
      <point x="474" y="606" type="line"/>
    </contour>
    <contour>
      <point x="326" y="730" type="line"/>
      <point x="183" y="730" type="line"/>
      <point x="183" y="196" type="line"/>
      <point x="326" y="196" type="line"/>
    </contour>
    <contour>
      <point x="474" y="424" type="line"/>
      <point x="35" y="424" type="line"/>
      <point x="35" y="320" type="line"/>
      <point x="474" y="320" type="line"/>
    </contour>
  </outline>
</glyph>
<glyph name="daggersuperior" format="2">
  <advance width="508"/>
  <outline>
    <contour>
      <point x="183" y="730" type="line"/>
      <point x="183" y="196" type="line"/>
      <point x="326" y="196" type="line"/>
      <point x="326" y="730" type="line"/>
    </contour>
    <contour>
      <point x="35" y="581" type="line"/>
      <point x="35" y="461" type="line"/>
      <point x="474" y="461" type="line"/>
      <point x="474" y="581" type="line"/>
    </contour>
  </outline>
</glyph>
<glyph name="dcroat.sc" format="2">
  <advance width="683"/>
  <anchor x="322" y="0" name="bottom"/>
  <anchor x="322" y="560" name="top"/>
  <anchor x="349" y="0" name="ogonek"/>
  <anchor x="142" y="93" name="center"/>
  <anchor x="326" y="0" name="bottomC"/>
  <outline>
    <contour>
      <point x="4" y="318" type="line"/>
      <point x="4" y="239" type="line"/>
      <point x="372" y="239" type="line"/>
      <point x="372" y="318" type="line"/>
    </contour>
    <component base="d.sc" xOffset="19"/>
  </outline>
</glyph>
<glyph name="dollar.tf" format="2">
  <advance width="604"/>
  <outline>
    <contour>
      <point x="46" y="454" type="curve" smooth="yes"/>
      <point x="46" y="202"/>
      <point x="414" y="288"/>
      <point x="414" y="186" type="curve" smooth="yes"/>
      <point x="414" y="152"/>
      <point x="387" y="133"/>
      <point x="304" y="133" type="curve" smooth="yes"/>
      <point x="235" y="133"/>
      <point x="148" y="165"/>
      <point x="116" y="230" type="curve"/>
      <point x="19" y="110" type="line"/>
      <point x="82" y="39"/>
      <point x="162" y="0"/>
      <point x="310" y="0" type="curve" smooth="yes"/>
      <point x="458" y="0"/>
      <point x="574" y="69"/>
      <point x="574" y="194" type="curve" smooth="yes"/>
      <point x="574" y="441"/>
      <point x="206" y="358"/>
      <point x="206" y="466" type="curve" smooth="yes"/>
      <point x="206" y="502"/>
      <point x="240" y="527"/>
      <point x="318" y="527" type="curve" smooth="yes"/>
      <point x="389" y="527"/>
      <point x="454" y="501"/>
      <point x="490" y="433" type="curve"/>
      <point x="584" y="546" type="line"/>
      <point x="514" y="613"/>
      <point x="457" y="660"/>
      <point x="313" y="660" type="curve" smooth="yes"/>
      <point x="143" y="660"/>
      <point x="46" y="573"/>
    </contour>
    <contour>
      <point x="257" y="744" type="line"/>
      <point x="257" y="-84" type="line"/>
      <point x="364" y="-84" type="line"/>
      <point x="364" y="744" type="line"/>
    </contour>
  </outline>
</glyph>
<glyph name="e.sc" format="2">
  <advance width="585"/>
  <anchor x="301" y="560" name="top"/>
  <anchor x="556" y="0" name="ogonek"/>
  <anchor x="310" y="0" name="bottom"/>
  <anchor x="322" y="0" name="bottomC"/>
  <outline>
    <contour>
      <point x="61" y="560" type="line"/>
      <point x="61" y="0" type="line"/>
      <point x="259" y="0" type="line"/>
      <point x="259" y="560" type="line"/>
    </contour>
    <contour>
      <point x="162" y="137" type="line"/>
      <point x="162" y="0" type="line"/>
      <point x="556" y="0" type="line"/>
      <point x="556" y="137" type="line"/>
    </contour>
    <contour>
      <point x="162" y="346" type="line"/>
      <point x="162" y="216" type="line"/>
      <point x="488" y="216" type="line"/>
      <point x="488" y="346" type="line"/>
    </contour>
    <contour>
      <point x="162" y="560" type="line"/>
      <point x="162" y="423" type="line"/>
      <point x="553" y="423" type="line"/>
      <point x="553" y="560" type="line"/>
    </contour>
  </outline>
</glyph>
<glyph name="eight.osf" format="2">
  <advance width="631"/>
  <outline>
    <contour>
      <point x="59" y="480" type="curve" smooth="yes"/>
      <point x="59" y="412"/>
      <point x="98" y="362"/>
      <point x="168" y="334" type="curve"/>
      <point x="168" y="333" type="line"/>
      <point x="86" y="308"/>
      <point x="38" y="251"/>
      <point x="38" y="178" type="curve" smooth="yes"/>
      <point x="38" y="58"/>
      <point x="142" y="-10"/>
      <point x="315" y="-10" type="curve" smooth="yes"/>
      <point x="489" y="-10"/>
      <point x="593" y="58"/>
      <point x="593" y="178" type="curve" smooth="yes"/>
      <point x="593" y="253"/>
      <point x="542" y="308"/>
      <point x="462" y="333" type="curve"/>
      <point x="462" y="334" type="line"/>
      <point x="535" y="363"/>
      <point x="572" y="413"/>
      <point x="572" y="480" type="curve" smooth="yes"/>
      <point x="572" y="597"/>
      <point x="474" y="667"/>
      <point x="315" y="667" type="curve" smooth="yes"/>
      <point x="155" y="667"/>
      <point x="59" y="597"/>
    </contour>
    <contour>
      <point x="390" y="467" type="curve" smooth="yes"/>
      <point x="390" y="424"/>
      <point x="362" y="401"/>
      <point x="315" y="401" type="curve" smooth="yes"/>
      <point x="268" y="401"/>
      <point x="240" y="424"/>
      <point x="240" y="467" type="curve" smooth="yes"/>
      <point x="240" y="509"/>
      <point x="268" y="533"/>
      <point x="315" y="533" type="curve" smooth="yes"/>
      <point x="362" y="533"/>
      <point x="390" y="509"/>
    </contour>
    <contour>
      <point x="234" y="195" type="curve" smooth="yes"/>
      <point x="234" y="239"/>
      <point x="264" y="265"/>
      <point x="315" y="265" type="curve" smooth="yes"/>
      <point x="367" y="265"/>
      <point x="397" y="239"/>
      <point x="397" y="195" type="curve" smooth="yes"/>
      <point x="397" y="151"/>
      <point x="367" y="125"/>
      <point x="315" y="125" type="curve" smooth="yes"/>
      <point x="264" y="125"/>
      <point x="234" y="151"/>
    </contour>
  </outline>
</glyph>
<glyph name="eight.sc" format="2">
  <advance width="579"/>
  <outline>
    <contour>
      <point x="545" y="152" type="curve" smooth="yes"/>
      <point x="545" y="208"/>
      <point x="514" y="255"/>
      <point x="440" y="284" type="curve"/>
      <point x="440" y="286" type="line"/>
      <point x="506" y="312"/>
      <point x="534" y="353"/>
      <point x="534" y="401" type="curve" smooth="yes"/>
      <point x="534" y="507"/>
      <point x="439" y="568"/>
      <point x="289" y="568" type="curve" smooth="yes"/>
      <point x="139" y="568"/>
      <point x="45" y="507"/>
      <point x="45" y="401" type="curve" smooth="yes"/>
      <point x="45" y="353"/>
      <point x="73" y="312"/>
      <point x="138" y="286" type="curve"/>
      <point x="138" y="284" type="line"/>
      <point x="65" y="255"/>
      <point x="34" y="208"/>
      <point x="34" y="152" type="curve" smooth="yes"/>
      <point x="34" y="54"/>
      <point x="129" y="-8"/>
      <point x="289" y="-8" type="curve" smooth="yes"/>
      <point x="450" y="-8"/>
      <point x="545" y="54"/>
    </contour>
    <contour>
      <point x="224" y="174" type="curve" smooth="yes"/>
      <point x="224" y="207"/>
      <point x="249" y="226"/>
      <point x="289" y="226" type="curve" smooth="yes"/>
      <point x="330" y="226"/>
      <point x="355" y="207"/>
      <point x="355" y="174" type="curve" smooth="yes"/>
      <point x="355" y="142"/>
      <point x="330" y="122"/>
      <point x="289" y="122" type="curve" smooth="yes"/>
      <point x="248" y="122"/>
      <point x="224" y="142"/>
    </contour>
    <contour>
      <point x="228" y="387" type="curve" smooth="yes"/>
      <point x="228" y="418"/>
      <point x="252" y="437"/>
      <point x="289" y="437" type="curve" smooth="yes"/>
      <point x="327" y="437"/>
      <point x="350" y="418"/>
      <point x="350" y="387" type="curve" smooth="yes"/>
      <point x="350" y="356"/>
      <point x="327" y="337"/>
      <point x="289" y="337" type="curve" smooth="yes"/>
      <point x="252" y="337"/>
      <point x="228" y="356"/>
    </contour>
  </outline>
</glyph>
<glyph name="emdashsuperior" format="2">
  <advance width="682"/>
  <outline>
    <contour>
      <point x="52" y="585" type="line"/>
      <point x="52" y="478" type="line"/>
      <point x="630" y="478" type="line"/>
      <point x="630" y="585" type="line"/>
    </contour>
  </outline>
</glyph>
<glyph name="endashsuperior" format="2">
  <advance width="477"/>
  <outline>
    <contour>
      <point x="52" y="585" type="line"/>
      <point x="52" y="478" type="line"/>
      <point x="426" y="478" type="line"/>
      <point x="426" y="585" type="line"/>
    </contour>
  </outline>
</glyph>
<glyph name="exclam.sc" format="2">
  <advance width="296"/>
  <outline>
    <contour>
      <point x="46" y="560" type="line"/>
      <point x="46" y="446" type="line"/>
      <point x="68" y="201" type="line"/>
      <point x="229" y="201" type="line"/>
      <point x="250" y="446" type="line"/>
      <point x="250" y="560" type="line"/>
    </contour>
    <component base="period" xScale="0.9074666666666666" yScale="0.8630666666666666" xOffset="13"/>
  </outline>
</glyph>
<glyph name="f.sc" format="2">
  <advance width="578"/>
  <anchor x="307" y="560" name="top"/>
  <anchor x="263" y="0" name="ogonek"/>
  <anchor x="162" y="0" name="bottom"/>
  <anchor x="165" y="0" name="bottomC"/>
  <outline>
    <contour>
      <point x="61" y="560" type="line"/>
      <point x="61" y="0" type="line"/>
      <point x="259" y="0" type="line"/>
      <point x="259" y="560" type="line"/>
    </contour>
    <contour>
      <point x="162" y="338" type="line"/>
      <point x="162" y="200" type="line"/>
      <point x="488" y="200" type="line"/>
      <point x="488" y="338" type="line"/>
    </contour>
    <contour>
      <point x="162" y="560" type="line"/>
      <point x="162" y="423" type="line"/>
      <point x="553" y="423" type="line"/>
      <point x="553" y="560" type="line"/>
    </contour>
  </outline>
</glyph>
<glyph name="florin.tf" format="2">
  <advance width="604"/>
  <outline>
    <contour>
      <point x="282" y="540" type="curve" smooth="yes"/>
      <point x="199" y="79" type="line" smooth="yes"/>
      <point x="191" y="33"/>
      <point x="159" y="6"/>
      <point x="113" y="6" type="curve" smooth="yes"/>
      <point x="93" y="6"/>
      <point x="75" y="11"/>
      <point x="62" y="19" type="curve"/>
      <point x="37" y="-100" type="line"/>
      <point x="70" y="-121"/>
      <point x="98" y="-128"/>
      <point x="151" y="-128" type="curve" smooth="yes"/>
      <point x="270" y="-128"/>
      <point x="346" y="-62"/>
      <point x="367" y="56" type="curve" smooth="yes"/>
      <point x="450" y="517" type="line" smooth="yes"/>
      <point x="458" y="563"/>
      <point x="490" y="590"/>
      <point x="537" y="590" type="curve" smooth="yes"/>
      <point x="557" y="590"/>
      <point x="573" y="586"/>
      <point x="588" y="577" type="curve"/>
      <point x="612" y="696" type="line"/>
      <point x="580" y="718"/>
      <point x="552" y="724"/>
      <point x="498" y="724" type="curve" smooth="yes"/>
      <point x="379" y="724"/>
      <point x="304" y="659"/>
    </contour>
    <contour>
      <point x="101" y="424" type="line"/>
      <point x="101" y="287" type="line"/>
      <point x="569" y="287" type="line"/>
      <point x="569" y="424" type="line"/>
    </contour>
  </outline>
</glyph>
<glyph name="four.sc" format="2">
  <advance width="635"/>
  <outline>
    <contour>
      <point x="520" y="0" type="line"/>
      <point x="520" y="105" type="line"/>
      <point x="607" y="105" type="line"/>
      <point x="607" y="239" type="line"/>
      <point x="520" y="239" type="line"/>
      <point x="520" y="560" type="line"/>
      <point x="282" y="560" type="line"/>
      <point x="38" y="200" type="line"/>
      <point x="38" y="105" type="line"/>
      <point x="339" y="105" type="line"/>
      <point x="339" y="0" type="line"/>
    </contour>
    <contour>
      <point x="301" y="372" type="line" smooth="yes"/>
      <point x="315" y="394"/>
      <point x="334" y="427"/>
      <point x="343" y="451" type="curve"/>
      <point x="346" y="451" type="line"/>
      <point x="340" y="239" type="line"/>
      <point x="212" y="239" type="line"/>
    </contour>
  </outline>
</glyph>
<glyph name="four.tf" format="2">
  <advance width="604"/>
  <outline>
    <contour>
      <point x="492" y="0" type="line"/>
      <point x="492" y="135" type="line"/>
      <point x="589" y="135" type="line"/>
      <point x="589" y="270" type="line"/>
      <point x="492" y="270" type="line"/>
      <point x="492" y="660" type="line"/>
      <point x="258" y="660" type="line"/>
      <point x="29" y="224" type="line"/>
      <point x="29" y="135" type="line"/>
      <point x="314" y="135" type="line"/>
      <point x="314" y="0" type="line"/>
    </contour>
    <contour>
      <point x="290" y="452" type="line" smooth="yes"/>
      <point x="299" y="469"/>
      <point x="317" y="508"/>
      <point x="323" y="528" type="curve"/>
      <point x="326" y="528" type="line"/>
      <point x="324" y="472"/>
      <point x="322" y="399"/>
      <point x="322" y="360" type="curve" smooth="yes"/>
      <point x="322" y="270" type="line"/>
      <point x="195" y="270" type="line"/>
    </contour>
  </outline>
</glyph>
<glyph name="four.tosf" format="2">
  <advance width="604"/>
  <outline>
    <contour>
      <point x="491" y="-100" type="line"/>
      <point x="491" y="35" type="line"/>
      <point x="586" y="35" type="line"/>
      <point x="586" y="170" type="line"/>
      <point x="491" y="170" type="line"/>
      <point x="491" y="560" type="line"/>
      <point x="257" y="560" type="line"/>
      <point x="23" y="124" type="line"/>
      <point x="23" y="35" type="line"/>
      <point x="313" y="35" type="line"/>
      <point x="313" y="-100" type="line"/>
    </contour>
    <contour>
      <point x="287" y="353" type="line" smooth="yes"/>
      <point x="298" y="373"/>
      <point x="315" y="409"/>
      <point x="322" y="430" type="curve"/>
      <point x="325" y="430" type="line"/>
      <point x="323" y="374"/>
      <point x="321" y="299"/>
      <point x="321" y="260" type="curve" smooth="yes"/>
      <point x="321" y="170" type="line"/>
      <point x="185" y="170" type="line"/>
    </contour>
  </outline>
</glyph>
<glyph name="g.sc" format="2">
  <advance width="641"/>
  <anchor x="337" y="560" name="top"/>
  <anchor x="362" y="0" name="ogonek"/>
  <anchor x="338" y="0" name="bottom"/>
  <anchor x="319" y="0" name="bottomC"/>
  <outline>
    <contour>
      <point x="32" y="280" type="curve" smooth="yes"/>
      <point x="32" y="95"/>
      <point x="143" y="-8"/>
      <point x="303" y="-8" type="curve" smooth="yes"/>
      <point x="459" y="-8"/>
      <point x="494" y="128"/>
      <point x="494" y="209" type="curve"/>
      <point x="436" y="201" type="line"/>
      <point x="435" y="161"/>
      <point x="406" y="131"/>
      <point x="352" y="131" type="curve" smooth="yes"/>
      <point x="271" y="131"/>
      <point x="233" y="179"/>
      <point x="233" y="280" type="curve" smooth="yes"/>
      <point x="233" y="377"/>
      <point x="276" y="423"/>
      <point x="342" y="423" type="curve" smooth="yes"/>
      <point x="382" y="423"/>
      <point x="414" y="408"/>
      <point x="427" y="351" type="curve"/>
      <point x="600" y="397" type="line"/>
      <point x="571" y="506"/>
      <point x="472" y="568"/>
      <point x="335" y="568" type="curve" smooth="yes"/>
      <point x="146" y="568"/>
      <point x="32" y="465"/>
    </contour>
    <contour>
      <point x="332" y="204" type="line"/>
      <point x="436" y="204" type="line"/>
      <point x="436" y="158" type="line"/>
      <point x="462" y="120" type="line"/>
      <point x="471" y="0" type="line"/>
      <point x="596" y="0" type="line"/>
      <point x="596" y="305" type="line"/>
      <point x="332" y="305" type="line"/>
    </contour>
  </outline>
</glyph>
<glyph name="g.ss01" format="2">
  <advance width="628"/>
  <anchor x="318" y="500" name="top"/>
  <anchor x="416" y="-199" name="ogonek"/>
  <anchor x="313" y="-210" name="bottom"/>
  <anchor x="297" y="-210" name="bottomC"/>
  <outline>
    <contour>
      <point x="397" y="500" type="line"/>
      <point x="392" y="376" type="line"/>
      <point x="376" y="364" type="line"/>
      <point x="376" y="-8" type="line" smooth="yes"/>
      <point x="376" y="-67"/>
      <point x="350" y="-95"/>
      <point x="307" y="-95" type="curve" smooth="yes"/>
      <point x="263" y="-95"/>
      <point x="241" y="-69"/>
      <point x="240" y="-14" type="curve"/>
      <point x="46" y="-61" type="line"/>
      <point x="64" y="-184"/>
      <point x="163" y="-215"/>
      <point x="289" y="-215" type="curve" smooth="yes"/>
      <point x="460" y="-215"/>
      <point x="578" y="-150"/>
      <point x="578" y="40" type="curve" smooth="yes"/>
      <point x="578" y="383" type="line"/>
      <point x="578" y="500" type="line"/>
    </contour>
    <contour>
      <point x="32" y="262" type="curve" smooth="yes"/>
      <point x="32" y="108"/>
      <point x="104" y="19"/>
      <point x="230" y="19" type="curve" smooth="yes"/>
      <point x="346" y="19"/>
      <point x="413" y="110"/>
      <point x="413" y="225" type="curve"/>
      <point x="376" y="260" type="line"/>
      <point x="376" y="193"/>
      <point x="350" y="163"/>
      <point x="307" y="163" type="curve" smooth="yes"/>
      <point x="263" y="163"/>
      <point x="236" y="189"/>
      <point x="236" y="264" type="curve" smooth="yes"/>
      <point x="236" y="339"/>
      <point x="263" y="365"/>
      <point x="307" y="365" type="curve" smooth="yes"/>
      <point x="353" y="365"/>
      <point x="376" y="332"/>
      <point x="376" y="268" type="curve"/>
      <point x="401" y="303" type="line"/>
      <point x="401" y="419"/>
      <point x="347" y="510"/>
      <point x="231" y="510" type="curve" smooth="yes"/>
      <point x="105" y="510"/>
      <point x="32" y="419"/>
    </contour>
  </outline>
</glyph>
<glyph name="g.ss01_j.liga" format="2">
  <advance width="922"/>
  <anchor x="318" y="500" name="top"/>
  <outline>
    <contour>
      <point x="397" y="500" type="line"/>
      <point x="392" y="376" type="line"/>
      <point x="376" y="364" type="line"/>
      <point x="376" y="-8" type="line" smooth="yes"/>
      <point x="376" y="-67"/>
      <point x="350" y="-95"/>
      <point x="307" y="-95" type="curve" smooth="yes"/>
      <point x="263" y="-95"/>
      <point x="241" y="-69"/>
      <point x="240" y="-14" type="curve"/>
      <point x="46" y="-61" type="line"/>
      <point x="64" y="-184"/>
      <point x="163" y="-215"/>
      <point x="289" y="-215" type="curve" smooth="yes"/>
      <point x="460" y="-215"/>
      <point x="578" y="-150"/>
      <point x="578" y="40" type="curve" smooth="yes"/>
      <point x="578" y="383" type="line"/>
      <point x="578" y="500" type="line"/>
    </contour>
    <contour>
      <point x="32" y="262" type="curve" smooth="yes"/>
      <point x="32" y="108"/>
      <point x="104" y="19"/>
      <point x="230" y="19" type="curve" smooth="yes"/>
      <point x="346" y="19"/>
      <point x="413" y="110"/>
      <point x="413" y="225" type="curve"/>
      <point x="376" y="260" type="line"/>
      <point x="376" y="193"/>
      <point x="350" y="163"/>
      <point x="307" y="163" type="curve" smooth="yes"/>
      <point x="263" y="163"/>
      <point x="236" y="189"/>
      <point x="236" y="264" type="curve" smooth="yes"/>
      <point x="236" y="339"/>
      <point x="263" y="365"/>
      <point x="307" y="365" type="curve" smooth="yes"/>
      <point x="353" y="365"/>
      <point x="376" y="332"/>
      <point x="376" y="268" type="curve"/>
      <point x="401" y="303" type="line"/>
      <point x="401" y="419"/>
      <point x="347" y="510"/>
      <point x="231" y="510" type="curve" smooth="yes"/>
      <point x="105" y="510"/>
      <point x="32" y="419"/>
    </contour>
    <contour>
      <point x="677" y="500" type="line"/>
      <point x="677" y="-19" type="line" smooth="yes"/>
      <point x="677" y="-60"/>
      <point x="663" y="-74"/>
      <point x="641" y="-74" type="curve" smooth="yes"/>
      <point x="624" y="-74"/>
      <point x="612" y="-70"/>
      <point x="602" y="-60" type="curve"/>
      <point x="575" y="-197" type="line"/>
      <point x="605" y="-210"/>
      <point x="630" y="-215"/>
      <point x="666" y="-215" type="curve" smooth="yes"/>
      <point x="771" y="-215"/>
      <point x="879" y="-185"/>
      <point x="879" y="-28" type="curve" smooth="yes"/>
      <point x="879" y="500" type="line"/>
    </contour>
    <contour>
      <point x="665" y="633" type="curve" smooth="yes"/>
      <point x="665" y="570"/>
      <point x="697" y="544"/>
      <point x="777" y="544" type="curve" smooth="yes"/>
      <point x="859" y="544"/>
      <point x="891" y="570"/>
      <point x="891" y="633" type="curve" smooth="yes"/>
      <point x="891" y="696"/>
      <point x="859" y="723"/>
      <point x="777" y="723" type="curve" smooth="yes"/>
      <point x="697" y="723"/>
      <point x="665" y="696"/>
    </contour>
  </outline>
</glyph>
<glyph name="g_j.liga" format="2">
  <advance width="874"/>
  <outline>
    <contour>
      <point x="385" y="471" type="curve"/>
      <point x="448" y="451" type="line"/>
      <point x="448" y="495"/>
      <point x="490" y="536"/>
      <point x="569" y="520" type="curve"/>
      <point x="550" y="649" type="line"/>
      <point x="430" y="661"/>
      <point x="384" y="562"/>
    </contour>
    <contour>
      <point x="28" y="99" type="curve" smooth="yes"/>
      <point x="28" y="1"/>
      <point x="137" y="-30"/>
      <point x="227" y="-30" type="curve" smooth="yes"/>
      <point x="336" y="-30" type="line" smooth="yes"/>
      <point x="373" y="-30"/>
      <point x="385" y="-39"/>
      <point x="385" y="-53" type="curve" smooth="yes"/>
      <point x="385" y="-75"/>
      <point x="348" y="-89"/>
      <point x="276" y="-89" type="curve" smooth="yes"/>
      <point x="199" y="-89"/>
      <point x="162" y="-78"/>
      <point x="162" y="-56" type="curve" smooth="yes"/>
      <point x="162" y="-38"/>
      <point x="179" y="-30"/>
      <point x="232" y="-30" type="curve"/>
      <point x="185" y="0" type="line"/>
      <point x="56" y="0"/>
      <point x="13" y="-49"/>
      <point x="13" y="-103" type="curve" smooth="yes"/>
      <point x="13" y="-173"/>
      <point x="105" y="-215"/>
      <point x="271" y="-215" type="curve" smooth="yes"/>
      <point x="437" y="-215"/>
      <point x="540" y="-155"/>
      <point x="540" y="-33" type="curve" smooth="yes"/>
      <point x="540" y="76"/>
      <point x="469" y="127"/>
      <point x="346" y="127" type="curve" smooth="yes"/>
      <point x="213" y="127" type="line" smooth="yes"/>
      <point x="175" y="127"/>
      <point x="159" y="138"/>
      <point x="159" y="155" type="curve" smooth="yes"/>
      <point x="159" y="174"/>
      <point x="178" y="184"/>
      <point x="229" y="185" type="curve"/>
      <point x="181" y="215" type="line"/>
      <point x="95" y="215"/>
      <point x="28" y="166"/>
    </contour>
    <contour>
      <point x="28" y="339" type="curve" smooth="yes"/>
      <point x="28" y="228"/>
      <point x="118" y="170"/>
      <point x="286" y="170" type="curve" smooth="yes"/>
      <point x="455" y="170"/>
      <point x="533" y="228"/>
      <point x="533" y="339" type="curve" smooth="yes"/>
      <point x="533" y="452"/>
      <point x="455" y="510"/>
      <point x="286" y="510" type="curve" smooth="yes"/>
      <point x="118" y="510"/>
      <point x="28" y="452"/>
    </contour>
    <contour>
      <point x="339" y="340" type="curve" smooth="yes"/>
      <point x="339" y="302"/>
      <point x="318" y="280"/>
      <point x="281" y="280" type="curve" smooth="yes"/>
      <point x="244" y="280"/>
      <point x="223" y="302"/>
      <point x="223" y="340" type="curve" smooth="yes"/>
      <point x="223" y="378"/>
      <point x="244" y="401"/>
      <point x="281" y="401" type="curve" smooth="yes"/>
      <point x="318" y="401"/>
      <point x="339" y="378"/>
    </contour>
    <contour>
      <point x="624" y="500" type="line"/>
      <point x="624" y="-19" type="line" smooth="yes"/>
      <point x="624" y="-60"/>
      <point x="613" y="-74"/>
      <point x="592" y="-74" type="curve" smooth="yes"/>
      <point x="578" y="-74"/>
      <point x="568" y="-72"/>
      <point x="559" y="-64" type="curve"/>
      <point x="533" y="-201" type="line"/>
      <point x="561" y="-212"/>
      <point x="583" y="-215"/>
      <point x="618" y="-215" type="curve" smooth="yes"/>
      <point x="722" y="-215"/>
      <point x="826" y="-185"/>
      <point x="826" y="-28" type="curve" smooth="yes"/>
      <point x="826" y="500" type="line"/>
    </contour>
    <contour>
      <point x="612" y="633" type="curve" smooth="yes"/>
      <point x="612" y="570"/>
      <point x="644" y="544"/>
      <point x="724" y="544" type="curve" smooth="yes"/>
      <point x="806" y="544"/>
      <point x="838" y="570"/>
      <point x="838" y="633" type="curve" smooth="yes"/>
      <point x="838" y="696"/>
      <point x="806" y="723"/>
      <point x="724" y="723" type="curve" smooth="yes"/>
      <point x="644" y="723"/>
      <point x="612" y="696"/>
    </contour>
  </outline>
</glyph>
<glyph name="gbase" format="2">
  <advance width="579"/>
  <outline>
    <contour>
      <point x="34" y="99" type="curve" smooth="yes"/>
      <point x="34" y="1"/>
      <point x="144" y="-30"/>
      <point x="234" y="-30" type="curve" smooth="yes"/>
      <point x="376" y="-30" type="line" smooth="yes"/>
      <point x="412" y="-30"/>
      <point x="424" y="-39"/>
      <point x="424" y="-53" type="curve" smooth="yes"/>
      <point x="424" y="-75"/>
      <point x="387" y="-89"/>
      <point x="299" y="-89" type="curve" smooth="yes"/>
      <point x="206" y="-89"/>
      <point x="168" y="-78"/>
      <point x="168" y="-56" type="curve" smooth="yes"/>
      <point x="168" y="-38"/>
      <point x="186" y="-30"/>
      <point x="238" y="-30" type="curve"/>
      <point x="191" y="0" type="line"/>
      <point x="63" y="0"/>
      <point x="20" y="-49"/>
      <point x="20" y="-103" type="curve" smooth="yes"/>
      <point x="20" y="-173"/>
      <point x="96" y="-215"/>
      <point x="286" y="-215" type="curve" smooth="yes"/>
      <point x="468" y="-215"/>
      <point x="579" y="-155"/>
      <point x="579" y="-33" type="curve" smooth="yes"/>
      <point x="579" y="76"/>
      <point x="508" y="127"/>
      <point x="385" y="127" type="curve" smooth="yes"/>
      <point x="219" y="127" type="line" smooth="yes"/>
      <point x="182" y="127"/>
      <point x="166" y="138"/>
      <point x="166" y="155" type="curve" smooth="yes"/>
      <point x="166" y="174"/>
      <point x="184" y="184"/>
      <point x="236" y="185" type="curve"/>
      <point x="187" y="215" type="line"/>
      <point x="101" y="215"/>
      <point x="34" y="166"/>
    </contour>
    <contour>
      <point x="35" y="339" type="curve" smooth="yes"/>
      <point x="35" y="228"/>
      <point x="125" y="170"/>
      <point x="293" y="170" type="curve" smooth="yes"/>
      <point x="461" y="170"/>
      <point x="552" y="228"/>
      <point x="552" y="339" type="curve" smooth="yes"/>
      <point x="552" y="452"/>
      <point x="461" y="510"/>
      <point x="293" y="510" type="curve" smooth="yes"/>
      <point x="125" y="510"/>
      <point x="35" y="452"/>
    </contour>
    <contour>
      <point x="351" y="340" type="curve" smooth="yes"/>
      <point x="351" y="302"/>
      <point x="330" y="280"/>
      <point x="293" y="280" type="curve" smooth="yes"/>
      <point x="256" y="280"/>
      <point x="235" y="302"/>
      <point x="235" y="340" type="curve" smooth="yes"/>
      <point x="235" y="378"/>
      <point x="256" y="401"/>
      <point x="293" y="401" type="curve" smooth="yes"/>
      <point x="330" y="401"/>
      <point x="351" y="378"/>
    </contour>
  </outline>
</glyph>
<glyph name="germandbls.sc" format="2">
  <advance width="684"/>
  <anchor x="361" y="560" name="top"/>
  <anchor x="512" y="0" name="ogonek"/>
  <anchor x="361" y="0" name="bottom"/>
  <anchor x="463" y="0" name="bottomC"/>
  <outline>
    <contour>
      <point x="263" y="0" type="line"/>
      <point x="263" y="317" type="line" smooth="yes"/>
      <point x="263" y="381"/>
      <point x="305" y="419"/>
      <point x="357" y="419" type="curve" smooth="yes"/>
      <point x="461" y="419" type="line"/>
      <point x="331" y="308" type="line"/>
      <point x="436" y="251" type="line"/>
      <point x="634" y="423" type="line"/>
      <point x="634" y="560" type="line"/>
      <point x="329" y="560" type="line" smooth="yes"/>
      <point x="171" y="560"/>
      <point x="61" y="465"/>
      <point x="61" y="320" type="curve" smooth="yes"/>
      <point x="61" y="0" type="line"/>
    </contour>
    <contour>
      <point x="660" y="163" type="curve" smooth="yes"/>
      <point x="660" y="273"/>
      <point x="580" y="308"/>
      <point x="476" y="308" type="curve" smooth="yes"/>
      <point x="331" y="308" type="line"/>
      <point x="331" y="204" type="line"/>
      <point x="422" y="204" type="line" smooth="yes"/>
      <point x="464" y="204"/>
      <point x="486" y="194"/>
      <point x="486" y="165" type="curve" smooth="yes"/>
      <point x="486" y="136"/>
      <point x="464" y="120"/>
      <point x="427" y="120" type="curve" smooth="yes"/>
      <point x="397" y="120"/>
      <point x="368" y="130"/>
      <point x="342" y="147" type="curve"/>
      <point x="304" y="44" type="line"/>
      <point x="334" y="15"/>
      <point x="387" y="-4"/>
      <point x="466" y="-4" type="curve" smooth="yes"/>
      <point x="582" y="-4"/>
      <point x="660" y="51"/>
    </contour>
  </outline>
</glyph>
<glyph name="idieresis.sc" format="2">
  <advance width="323"/>
  <anchor x="162" y="0" name="bottomC"/>
  <anchor x="162" y="560" name="top"/>
  <anchor x="263" y="0" name="ogonek"/>
  <anchor x="162" y="0" name="bottom"/>
  <outline>
    <contour>
      <point x="-37" y="691" type="curve" smooth="yes"/>
      <point x="-37" y="637"/>
      <point x="-4" y="606"/>
      <point x="53" y="606" type="curve" smooth="yes"/>
      <point x="111" y="606"/>
      <point x="147" y="637"/>
      <point x="147" y="691" type="curve" smooth="yes"/>
      <point x="147" y="744"/>
      <point x="111" y="776"/>
      <point x="53" y="776" type="curve" smooth="yes"/>
      <point x="-4" y="776"/>
      <point x="-37" y="744"/>
    </contour>
    <contour>
      <point x="177" y="691" type="curve" smooth="yes"/>
      <point x="177" y="637"/>
      <point x="210" y="606"/>
      <point x="267" y="606" type="curve" smooth="yes"/>
      <point x="325" y="606"/>
      <point x="361" y="637"/>
      <point x="361" y="691" type="curve" smooth="yes"/>
      <point x="361" y="744"/>
      <point x="325" y="776"/>
      <point x="267" y="776" type="curve" smooth="yes"/>
      <point x="210" y="776"/>
      <point x="177" y="744"/>
    </contour>
    <component base="i.sc"/>
  </outline>
</glyph>
<glyph name="j.ogonek" format="2">
  <advance width="340"/>
  <anchor x="195" y="713" name="top"/>
  <anchor x="172" y="-204" name="ogonek"/>
  <anchor x="151" y="-210" name="bottom"/>
  <anchor x="151" y="-210" name="bottomC"/>
  <outline>
    <contour>
      <point x="83" y="633" type="curve" smooth="yes"/>
      <point x="83" y="570"/>
      <point x="115" y="544"/>
      <point x="195" y="544" type="curve" smooth="yes"/>
      <point x="277" y="544"/>
      <point x="309" y="570"/>
      <point x="309" y="633" type="curve" smooth="yes"/>
      <point x="309" y="696"/>
      <point x="277" y="723"/>
      <point x="195" y="723" type="curve" smooth="yes"/>
      <point x="115" y="723"/>
      <point x="83" y="696"/>
    </contour>
    <component base="jdotless.ogonek"/>
  </outline>
</glyph>
<glyph name="j_j.liga" format="2">
  <advance width="597"/>
  <outline>
    <contour>
      <point x="49" y="500" type="line"/>
      <point x="49" y="-2" type="line" smooth="yes"/>
      <point x="49" y="-57"/>
      <point x="26" y="-78"/>
      <point x="-17" y="-78" type="curve" smooth="yes"/>
      <point x="-39" y="-78"/>
      <point x="-61" y="-71"/>
      <point x="-73" y="-61" type="curve"/>
      <point x="-99" y="-184" type="line"/>
      <point x="-62" y="-205"/>
      <point x="-16" y="-215"/>
      <point x="43" y="-215" type="curve" smooth="yes"/>
      <point x="182" y="-215"/>
      <point x="251" y="-159"/>
      <point x="251" y="-20" type="curve" smooth="yes"/>
      <point x="251" y="500" type="line"/>
    </contour>
    <contour>
      <point x="348" y="500" type="line"/>
      <point x="348" y="-19" type="line" smooth="yes"/>
      <point x="348" y="-60"/>
      <point x="334" y="-74"/>
      <point x="312" y="-74" type="curve" smooth="yes"/>
      <point x="295" y="-74"/>
      <point x="283" y="-70"/>
      <point x="273" y="-60" type="curve"/>
      <point x="246" y="-197" type="line"/>
      <point x="276" y="-210"/>
      <point x="300" y="-215"/>
      <point x="337" y="-215" type="curve" smooth="yes"/>
      <point x="442" y="-215"/>
      <point x="550" y="-185"/>
      <point x="550" y="-28" type="curve" smooth="yes"/>
      <point x="550" y="500" type="line"/>
    </contour>
    <contour>
      <point x="37" y="633" type="curve" smooth="yes"/>
      <point x="37" y="570"/>
      <point x="69" y="544"/>
      <point x="149" y="544" type="curve" smooth="yes"/>
      <point x="231" y="544"/>
      <point x="263" y="570"/>
      <point x="263" y="633" type="curve" smooth="yes"/>
      <point x="263" y="696"/>
      <point x="231" y="723"/>
      <point x="149" y="723" type="curve" smooth="yes"/>
      <point x="69" y="723"/>
      <point x="37" y="696"/>
    </contour>
    <contour>
      <point x="336" y="633" type="curve" smooth="yes"/>
      <point x="336" y="570"/>
      <point x="368" y="544"/>
      <point x="448" y="544" type="curve" smooth="yes"/>
      <point x="530" y="544"/>
      <point x="561" y="570"/>
      <point x="561" y="633" type="curve" smooth="yes"/>
      <point x="561" y="696"/>
      <point x="530" y="723"/>
      <point x="448" y="723" type="curve" smooth="yes"/>
      <point x="368" y="723"/>
      <point x="336" y="696"/>
    </contour>
  </outline>
</glyph>
<glyph name="jdotless.ogonek" format="2">
  <advance width="346"/>
  <anchor x="196" y="500" name="top"/>
  <anchor x="172" y="-204" name="ogonek"/>
  <anchor x="151" y="-210" name="bottom"/>
  <anchor x="151" y="-210" name="bottomC"/>
  <outline>
    <contour>
      <point x="95" y="500" type="line"/>
      <point x="95" y="-19" type="line" smooth="yes"/>
      <point x="95" y="-60"/>
      <point x="84" y="-74"/>
      <point x="63" y="-74" type="curve" smooth="yes"/>
      <point x="49" y="-74"/>
      <point x="39" y="-72"/>
      <point x="30" y="-64" type="curve"/>
      <point x="4" y="-201" type="line"/>
      <point x="32" y="-212"/>
      <point x="54" y="-215"/>
      <point x="89" y="-215" type="curve" smooth="yes"/>
      <point x="193" y="-215"/>
      <point x="297" y="-185"/>
      <point x="297" y="-28" type="curve" smooth="yes"/>
      <point x="297" y="500" type="line"/>
    </contour>
  </outline>
</glyph>
<glyph name="k.sc" format="2">
  <advance width="679"/>
  <anchor x="339" y="560" name="top"/>
  <anchor x="678" y="0" name="ogonek"/>
  <anchor x="352" y="0" name="bottom"/>
  <anchor x="576" y="0" name="bottomC"/>
  <outline>
    <contour>
      <point x="459" y="560" type="line"/>
      <point x="179" y="239" type="line"/>
      <point x="223" y="91" type="line"/>
      <point x="351" y="230" type="line"/>
      <point x="371" y="217" type="line"/>
      <point x="671" y="560" type="line"/>
    </contour>
    <contour>
      <point x="61" y="560" type="line"/>
      <point x="61" y="0" type="line"/>
      <point x="259" y="0" type="line"/>
      <point x="259" y="560" type="line"/>
    </contour>
    <contour>
      <point x="283" y="281" type="line"/>
      <point x="452" y="0" type="line"/>
      <point x="678" y="0" type="line"/>
      <point x="428" y="384" type="line"/>
    </contour>
  </outline>
</glyph>
<glyph name="longs.component" format="2">
  <advance width="299"/>
  <anchor x="181" y="730" name="top"/>
  <anchor x="244" y="0" name="ogonek"/>
  <anchor x="150" y="0" name="bottom"/>
  <anchor x="143" y="0" name="bottomC"/>
  <outline>
    <contour>
      <point x="244" y="0" type="line"/>
      <point x="244" y="536" type="line" smooth="yes"/>
      <point x="244" y="571"/>
      <point x="257" y="587"/>
      <point x="280" y="587" type="curve" smooth="yes"/>
      <point x="294" y="587"/>
      <point x="301" y="585"/>
      <point x="307" y="580" type="curve"/>
      <point x="314" y="707" type="line"/>
      <point x="297" y="716"/>
      <point x="270" y="723"/>
      <point x="241" y="723" type="curve" smooth="yes"/>
      <point x="129" y="723"/>
      <point x="48" y="672"/>
      <point x="48" y="532" type="curve" smooth="yes"/>
      <point x="48" y="0" type="line"/>
    </contour>
  </outline>
</glyph>
<glyph name="longs_l.ss02" format="2">
  <advance width="648"/>
  <anchor x="498" y="0" name="bottomC"/>
  <anchor x="498" y="706" name="top"/>
  <anchor x="584" y="8" name="ogonek"/>
  <anchor x="655" y="706" name="topright"/>
  <anchor x="498" y="0" name="bottom"/>
  <outline>
    <contour>
      <point x="244" y="0" type="line"/>
      <point x="244" y="518" type="line" smooth="yes"/>
      <point x="244" y="568"/>
      <point x="273" y="587"/>
      <point x="313" y="587" type="curve" smooth="yes"/>
      <point x="331" y="587"/>
      <point x="343" y="585"/>
      <point x="355" y="576" type="curve"/>
      <point x="363" y="697" type="line"/>
      <point x="338" y="716"/>
      <point x="308" y="723"/>
      <point x="259" y="723" type="curve" smooth="yes"/>
      <point x="147" y="723"/>
      <point x="48" y="672"/>
      <point x="48" y="532" type="curve" smooth="yes"/>
      <point x="48" y="0" type="line"/>
    </contour>
    <component base="l.ss02" xOffset="348"/>
  </outline>
</glyph>
<glyph name="lslash.ss02" format="2">
  <advance width="360"/>
  <anchor x="178" y="0" name="bottom"/>
  <anchor x="180" y="706" name="top"/>
  <anchor x="266" y="8" name="ogonek"/>
  <anchor x="337" y="706" name="topright"/>
  <anchor x="180" y="0" name="bottomC"/>
  <outline>
    <contour>
      <point x="189" y="287" type="line"/>
      <point x="353" y="373" type="line"/>
      <point x="353" y="505" type="line"/>
      <point x="161" y="378" type="line"/>
      <point x="5" y="299" type="line"/>
      <point x="5" y="167" type="line"/>
    </contour>
    <component base="l.ss02" xOffset="30"/>
  </outline>
</glyph>
<glyph name="n.sc" format="2">
  <advance width="701"/>
  <anchor x="355" y="560" name="top"/>
  <anchor x="640" y="0" name="ogonek"/>
  <anchor x="351" y="0" name="bottom"/>
  <anchor x="513" y="0" name="bottomC"/>
  <outline>
    <contour>
      <point x="456" y="560" type="line"/>
      <point x="456" y="356" type="line"/>
      <point x="462" y="212" type="line"/>
      <point x="460" y="212" type="line"/>
      <point x="417" y="303" type="line"/>
      <point x="282" y="560" type="line"/>
      <point x="61" y="560" type="line"/>
      <point x="61" y="0" type="line"/>
      <point x="245" y="0" type="line"/>
      <point x="245" y="204" type="line"/>
      <point x="239" y="348" type="line"/>
      <point x="241" y="348" type="line"/>
      <point x="283" y="259" type="line"/>
      <point x="419" y="0" type="line"/>
      <point x="640" y="0" type="line"/>
      <point x="640" y="560" type="line"/>
    </contour>
  </outline>
</glyph>
<glyph name="n.swsh" format="2">
  <advance width="660"/>
  <anchor x="311" y="500" name="top"/>
  <anchor x="586" y="-100" name="ogonek"/>
  <anchor x="270" y="0" name="bottom"/>
  <anchor x="568" y="-100" name="bottomC"/>
  <outline>
    <contour>
      <point x="214" y="267" type="curve"/>
      <point x="251" y="263" type="line"/>
      <point x="251" y="331"/>
      <point x="279" y="359"/>
      <point x="319" y="359" type="curve" smooth="yes"/>
      <point x="351" y="359"/>
      <point x="370" y="341"/>
      <point x="370" y="284" type="curve" smooth="yes"/>
      <point x="370" y="40" type="line" smooth="yes"/>
      <point x="370" y="-62"/>
      <point x="443" y="-106"/>
      <point x="536" y="-106" type="curve" smooth="yes"/>
      <point x="588" y="-106"/>
      <point x="612" y="-97"/>
      <point x="651" y="-79" type="curve"/>
      <point x="664" y="37" type="line"/>
      <point x="648" y="29"/>
      <point x="635" y="27"/>
      <point x="615" y="27" type="curve" smooth="yes"/>
      <point x="591" y="27"/>
      <point x="572" y="38"/>
      <point x="572" y="70" type="curve" smooth="yes"/>
      <point x="572" y="338" type="line" smooth="yes"/>
      <point x="572" y="449"/>
      <point x="509" y="510"/>
      <point x="408" y="510" type="curve" smooth="yes"/>
      <point x="286" y="510"/>
      <point x="214" y="424"/>
    </contour>
    <contour>
      <point x="49" y="500" type="line"/>
      <point x="49" y="300" type="line"/>
      <point x="49" y="0" type="line"/>
      <point x="251" y="0" type="line"/>
      <point x="251" y="299" type="line"/>
      <point x="238" y="346" type="line"/>
      <point x="231" y="500" type="line"/>
    </contour>
  </outline>
</glyph>
<glyph name="nine.tf" format="2">
  <advance width="604"/>
  <outline>
    <contour>
      <point x="30" y="443" type="curve" smooth="yes"/>
      <point x="30" y="307"/>
      <point x="121" y="230"/>
      <point x="242" y="234" type="curve" smooth="yes"/>
      <point x="319" y="236"/>
      <point x="365" y="262"/>
      <point x="384" y="308" type="curve"/>
      <point x="387" y="308" type="line"/>
      <point x="387" y="300"/>
      <point x="387" y="295"/>
      <point x="387" y="289" type="curve" smooth="yes"/>
      <point x="387" y="190"/>
      <point x="359" y="140"/>
      <point x="295" y="140" type="curve" smooth="yes"/>
      <point x="249" y="140"/>
      <point x="230" y="159"/>
      <point x="221" y="200" type="curve"/>
      <point x="37" y="132" type="line"/>
      <point x="77" y="35"/>
      <point x="161" y="-10"/>
      <point x="286" y="-10" type="curve" smooth="yes"/>
      <point x="466" y="-10"/>
      <point x="567" y="84"/>
      <point x="567" y="325" type="curve" smooth="yes"/>
      <point x="567" y="560"/>
      <point x="464" y="670"/>
      <point x="291" y="670" type="curve" smooth="yes"/>
      <point x="125" y="670"/>
      <point x="30" y="582"/>
    </contour>
    <contour>
      <point x="359" y="444" type="curve" smooth="yes"/>
      <point x="359" y="399"/>
      <point x="333" y="373"/>
      <point x="287" y="373" type="curve" smooth="yes"/>
      <point x="240" y="373"/>
      <point x="214" y="399"/>
      <point x="214" y="444" type="curve" smooth="yes"/>
      <point x="214" y="489"/>
      <point x="240" y="515"/>
      <point x="287" y="515" type="curve" smooth="yes"/>
      <point x="333" y="515"/>
      <point x="359" y="488"/>
    </contour>
  </outline>
</glyph>
<glyph name="odieresis.titl.sc" format="2">
  <advance width="662"/>
  <outline>
    <contour>
      <point x="91" y="657" type="curve" smooth="yes"/>
      <point x="91" y="604"/>
      <point x="125" y="573"/>
      <point x="184" y="573" type="curve" smooth="yes"/>
      <point x="244" y="573"/>
      <point x="279" y="604"/>
      <point x="279" y="657" type="curve" smooth="yes"/>
      <point x="279" y="709"/>
      <point x="244" y="740"/>
      <point x="184" y="740" type="curve" smooth="yes"/>
      <point x="125" y="740"/>
      <point x="91" y="709"/>
    </contour>
    <contour>
      <point x="385" y="657" type="curve" smooth="yes"/>
      <point x="385" y="604"/>
      <point x="419" y="573"/>
      <point x="477" y="573" type="curve" smooth="yes"/>
      <point x="538" y="573"/>
      <point x="573" y="604"/>
      <point x="573" y="657" type="curve" smooth="yes"/>
      <point x="573" y="709"/>
      <point x="538" y="740"/>
      <point x="477" y="740" type="curve" smooth="yes"/>
      <point x="419" y="740"/>
      <point x="385" y="709"/>
    </contour>
    <contour>
      <point x="33" y="280" type="curve" smooth="yes"/>
      <point x="33" y="99"/>
      <point x="146" y="-8"/>
      <point x="332" y="-8" type="curve" smooth="yes"/>
      <point x="518" y="-8"/>
      <point x="631" y="99"/>
      <point x="631" y="280" type="curve" smooth="yes"/>
      <point x="631" y="461"/>
      <point x="518" y="568"/>
      <point x="332" y="568" type="curve" smooth="yes"/>
      <point x="146" y="568"/>
      <point x="33" y="461"/>
    </contour>
    <contour>
      <point x="428" y="280" type="curve" smooth="yes"/>
      <point x="428" y="183"/>
      <point x="397" y="143"/>
      <point x="332" y="143" type="curve" smooth="yes"/>
      <point x="266" y="143"/>
      <point x="236" y="183"/>
      <point x="236" y="280" type="curve" smooth="yes"/>
      <point x="236" y="377"/>
      <point x="266" y="417"/>
      <point x="332" y="417" type="curve" smooth="yes"/>
      <point x="397" y="417"/>
      <point x="428" y="377"/>
    </contour>
  </outline>
</glyph>
<glyph name="ogonek.E" format="2">
  <advance width="637"/>
  <anchor x="608" y="0" name="_ogonek"/>
  <outline>
    <contour>
      <point x="560" y="30" type="line"/>
      <point x="438" y="21"/>
      <point x="356" y="-21"/>
      <point x="356" y="-100" type="curve" smooth="yes"/>
      <point x="356" y="-179"/>
      <point x="421" y="-215"/>
      <point x="502" y="-215" type="curve" smooth="yes"/>
      <point x="548" y="-215"/>
      <point x="583" y="-209"/>
      <point x="613" y="-190" type="curve"/>
      <point x="588" y="-97" type="line"/>
      <point x="577" y="-104"/>
      <point x="560" y="-106"/>
      <point x="545" y="-106" type="curve" smooth="yes"/>
      <point x="513" y="-106"/>
      <point x="493" y="-91"/>
      <point x="493" y="-65" type="curve" smooth="yes"/>
      <point x="493" y="-33"/>
      <point x="520" y="-10"/>
      <point x="608" y="0" type="curve"/>
    </contour>
  </outline>
</glyph>
<glyph name="ogonek.e" format="2">
  <advance width="592"/>
  <anchor x="354" y="37" name="_ogonek"/>
  <outline>
    <contour>
      <point x="193" y="-99" type="curve" smooth="yes"/>
      <point x="193" y="-179"/>
      <point x="258" y="-215"/>
      <point x="339" y="-215" type="curve" smooth="yes"/>
      <point x="385" y="-215"/>
      <point x="421" y="-209"/>
      <point x="450" y="-190" type="curve"/>
      <point x="425" y="-97" type="line"/>
      <point x="414" y="-104"/>
      <point x="398" y="-106"/>
      <point x="382" y="-106" type="curve" smooth="yes"/>
      <point x="350" y="-106"/>
      <point x="331" y="-91"/>
      <point x="331" y="-64" type="curve" smooth="yes"/>
      <point x="331" y="-32"/>
      <point x="360" y="-12"/>
      <point x="426" y="13" type="curve"/>
      <point x="354" y="37" type="line"/>
      <point x="264" y="18"/>
      <point x="193" y="-25"/>
    </contour>
  </outline>
</glyph>
<glyph name="one.osf" format="2">
  <advance width="444"/>
  <outline>
    <contour>
      <point x="381" y="560" type="line"/>
      <point x="221" y="560" type="line"/>
      <point x="205" y="519"/>
      <point x="185" y="432"/>
      <point x="185" y="388" type="curve" smooth="yes"/>
      <point x="185" y="0" type="line"/>
      <point x="381" y="0" type="line"/>
      <point x="381" y="406" type="line"/>
    </contour>
    <contour>
      <point x="299" y="522" type="curve"/>
      <point x="221" y="560" type="line"/>
      <point x="190" y="512"/>
      <point x="98" y="463"/>
      <point x="21" y="453" type="curve"/>
      <point x="35" y="288" type="line"/>
      <point x="156" y="300"/>
      <point x="264" y="435"/>
    </contour>
  </outline>
</glyph>
<glyph name="one.tf" format="2">
  <advance width="604"/>
  <outline>
    <contour>
      <point x="424" y="0" type="line"/>
      <point x="424" y="506" type="line"/>
      <point x="424" y="660" type="line"/>
      <point x="264" y="660" type="line"/>
      <point x="249" y="609"/>
      <point x="239" y="546"/>
      <point x="239" y="494" type="curve" smooth="yes"/>
      <point x="239" y="0" type="line"/>
    </contour>
    <contour>
      <point x="573" y="0" type="line"/>
      <point x="573" y="151" type="line"/>
      <point x="67" y="151" type="line"/>
      <point x="67" y="0" type="line"/>
    </contour>
    <contour>
      <point x="342" y="618" type="curve"/>
      <point x="264" y="660" type="line"/>
      <point x="231" y="612"/>
      <point x="141" y="560"/>
      <point x="62" y="552" type="curve"/>
      <point x="77" y="396" type="line"/>
      <point x="198" y="408"/>
      <point x="306" y="531"/>
    </contour>
  </outline>
</glyph>
<glyph name="one.tosf" format="2">
  <advance width="604"/>
  <outline>
    <contour>
      <point x="584" y="0" type="line"/>
      <point x="584" y="145" type="line"/>
      <point x="75" y="145" type="line"/>
      <point x="75" y="0" type="line"/>
    </contour>
    <contour>
      <point x="434" y="560" type="line"/>
      <point x="289" y="560" type="line"/>
      <point x="268" y="509"/>
      <point x="253" y="437"/>
      <point x="253" y="384" type="curve" smooth="yes"/>
      <point x="253" y="0" type="line"/>
      <point x="434" y="0" type="line"/>
      <point x="434" y="406" type="line"/>
    </contour>
    <contour>
      <point x="366" y="522" type="curve"/>
      <point x="289" y="560" type="line"/>
      <point x="256" y="512"/>
      <point x="156" y="460"/>
      <point x="77" y="452" type="curve"/>
      <point x="92" y="307" type="line"/>
      <point x="217" y="319"/>
      <point x="331" y="435"/>
    </contour>
  </outline>
</glyph>
<glyph name="oslash.sc" format="2">
  <advance width="662"/>
  <anchor x="331" y="560" name="top"/>
  <anchor x="409" y="0" name="ogonek"/>
  <anchor x="331" y="0" name="bottom"/>
  <anchor x="331" y="0" name="bottomC"/>
  <outline>
    <contour>
      <point x="537" y="572" type="line"/>
      <point x="443" y="448" type="line"/>
      <point x="471" y="409" type="line"/>
      <point x="605" y="572" type="line"/>
    </contour>
    <contour>
      <point x="197" y="134" type="line"/>
      <point x="237" y="99" type="line"/>
      <point x="465" y="409" type="line"/>
      <point x="426" y="447" type="line"/>
    </contour>
    <contour>
      <point x="125" y="-14" type="line"/>
      <point x="220" y="111" type="line"/>
      <point x="190" y="148" type="line"/>
      <point x="57" y="-14" type="line"/>
    </contour>
    <component base="o.sc"/>
  </outline>
</glyph>
<glyph name="p.sc" format="2">
  <advance width="626"/>
  <anchor x="314" y="560" name="top"/>
  <anchor x="162" y="0" name="bottom"/>
  <outline>
    <contour>
      <point x="370" y="165" type="line" smooth="yes"/>
      <point x="515" y="165"/>
      <point x="600" y="237"/>
      <point x="600" y="362" type="curve" smooth="yes"/>
      <point x="600" y="488"/>
      <point x="515" y="560"/>
      <point x="370" y="560" type="curve" smooth="yes"/>
      <point x="187" y="560" type="line"/>
      <point x="187" y="425" type="line"/>
      <point x="332" y="425" type="line" smooth="yes"/>
      <point x="378" y="425"/>
      <point x="402" y="405"/>
      <point x="402" y="360" type="curve" smooth="yes"/>
      <point x="402" y="316"/>
      <point x="378" y="296"/>
      <point x="332" y="296" type="curve" smooth="yes"/>
      <point x="187" y="296" type="line"/>
      <point x="187" y="165" type="line"/>
    </contour>
    <contour>
      <point x="259" y="0" type="line"/>
      <point x="259" y="560" type="line"/>
      <point x="61" y="560" type="line"/>
      <point x="61" y="0" type="line"/>
    </contour>
  </outline>
</glyph>
<glyph name="q.sc" format="2">
  <advance width="662"/>
  <anchor x="331" y="560" name="top"/>
  <anchor x="516" y="-173" name="ogonek"/>
  <anchor x="331" y="-210" name="bottom"/>
  <anchor x="496" y="-173" name="bottomC"/>
  <outline>
    <contour>
      <point x="285" y="30" type="line"/>
      <point x="259" y="-111"/>
      <point x="336" y="-174"/>
      <point x="472" y="-177" type="curve" smooth="yes"/>
      <point x="534" y="-178"/>
      <point x="585" y="-157"/>
      <point x="619" y="-130" type="curve"/>
      <point x="572" y="-1" type="line"/>
      <point x="548" y="-30"/>
      <point x="522" y="-40"/>
      <point x="474" y="-40" type="curve" smooth="yes"/>
      <point x="408" y="-40"/>
      <point x="373" y="-19"/>
      <point x="380" y="33" type="curve"/>
    </contour>
    <component base="o.sc"/>
  </outline>
</glyph>
<glyph name="r.sc" format="2">
  <advance width="633"/>
  <anchor x="311" y="560" name="top"/>
  <anchor x="627" y="0" name="ogonek"/>
  <anchor x="336" y="0" name="bottom"/>
  <anchor x="526" y="0" name="bottomC"/>
  <outline>
    <contour>
      <point x="187" y="560" type="line"/>
      <point x="187" y="429" type="line"/>
      <point x="334" y="429" type="line" smooth="yes"/>
      <point x="382" y="429"/>
      <point x="405" y="408"/>
      <point x="405" y="365" type="curve" smooth="yes"/>
      <point x="405" y="322"/>
      <point x="382" y="302"/>
      <point x="334" y="302" type="curve" smooth="yes"/>
      <point x="187" y="302" type="line"/>
      <point x="187" y="182" type="line"/>
      <point x="363" y="182" type="line" smooth="yes"/>
      <point x="514" y="182"/>
      <point x="602" y="249"/>
      <point x="602" y="370" type="curve" smooth="yes"/>
      <point x="602" y="493"/>
      <point x="514" y="560"/>
      <point x="363" y="560" type="curve" smooth="yes"/>
    </contour>
    <contour>
      <point x="61" y="560" type="line"/>
      <point x="61" y="0" type="line"/>
      <point x="259" y="0" type="line"/>
      <point x="259" y="560" type="line"/>
    </contour>
    <contour>
      <point x="297" y="235" type="line"/>
      <point x="412" y="0" type="line"/>
      <point x="627" y="0" type="line"/>
      <point x="441" y="290" type="line"/>
    </contour>
  </outline>
</glyph>
<glyph name="r.sc.ss03" format="2">
  <advance width="640"/>
  <anchor x="311" y="560" name="top"/>
  <anchor x="611" y="0" name="ogonek"/>
  <anchor x="328" y="0" name="bottom"/>
  <anchor x="509" y="0" name="bottomC"/>
  <outline>
    <contour>
      <point x="259" y="0" type="line"/>
      <point x="259" y="182" type="line"/>
      <point x="304" y="182" type="line" smooth="yes"/>
      <point x="340" y="182"/>
      <point x="365" y="172"/>
      <point x="375" y="130" type="curve" smooth="yes"/>
      <point x="385" y="85"/>
      <point x="385" y="37"/>
      <point x="399" y="0" type="curve"/>
      <point x="611" y="0" type="line"/>
      <point x="611" y="5" type="line"/>
      <point x="591" y="41"/>
      <point x="586" y="85"/>
      <point x="573" y="148" type="curve" smooth="yes"/>
      <point x="567" y="184"/>
      <point x="539" y="220"/>
      <point x="481" y="233" type="curve"/>
      <point x="481" y="236" type="line"/>
      <point x="552" y="247"/>
      <point x="602" y="299"/>
      <point x="602" y="384" type="curve" smooth="yes"/>
      <point x="602" y="493"/>
      <point x="514" y="560"/>
      <point x="363" y="560" type="curve" smooth="yes"/>
      <point x="61" y="560" type="line"/>
      <point x="61" y="0" type="line"/>
    </contour>
    <contour>
      <point x="259" y="425" type="line"/>
      <point x="331" y="425" type="line" smooth="yes"/>
      <point x="380" y="425"/>
      <point x="405" y="404"/>
      <point x="405" y="363" type="curve" smooth="yes"/>
      <point x="405" y="322"/>
      <point x="380" y="301"/>
      <point x="331" y="301" type="curve" smooth="yes"/>
      <point x="259" y="301" type="line"/>
    </contour>
  </outline>
</glyph>
<glyph name="s.sc" format="2">
  <advance width="584"/>
  <anchor x="294" y="560" name="top"/>
  <anchor x="375" y="0" name="ogonek"/>
  <anchor x="313" y="0" name="bottom"/>
  <anchor x="304" y="0" name="bottomC"/>
  <outline>
    <contour>
      <point x="28" y="376" type="curve" smooth="yes"/>
      <point x="28" y="155"/>
      <point x="357" y="236"/>
      <point x="357" y="165" type="curve" smooth="yes"/>
      <point x="357" y="144"/>
      <point x="334" y="132"/>
      <point x="288" y="132" type="curve" smooth="yes"/>
      <point x="210" y="132"/>
      <point x="163" y="149"/>
      <point x="98" y="198" type="curve"/>
      <point x="21" y="69" type="line"/>
      <point x="95" y="13"/>
      <point x="176" y="-8"/>
      <point x="291" y="-8" type="curve" smooth="yes"/>
      <point x="454" y="-8"/>
      <point x="559" y="62"/>
      <point x="559" y="182" type="curve" smooth="yes"/>
      <point x="559" y="399"/>
      <point x="230" y="320"/>
      <point x="230" y="391" type="curve" smooth="yes"/>
      <point x="230" y="411"/>
      <point x="252" y="429"/>
      <point x="298" y="429" type="curve" smooth="yes"/>
      <point x="375" y="429"/>
      <point x="414" y="411"/>
      <point x="482" y="360" type="curve"/>
      <point x="561" y="488" type="line"/>
      <point x="488" y="543"/>
      <point x="423" y="568"/>
      <point x="296" y="568" type="curve" smooth="yes"/>
      <point x="132" y="568"/>
      <point x="28" y="495"/>
    </contour>
  </outline>
</glyph>
